<?xml version="1.0" encoding="UTF-8" standalone="no"?>
<svg
   width="766.66669"
   height="635.86322"
   viewBox="0 0 766.66669 635.86322"
   version="1.1"
   id="svg300"
   sodipodi:docname="logo.svg"
   xml:space="preserve"
   xmlns:inkscape="http://www.inkscape.org/namespaces/inkscape"
   xmlns:sodipodi="http://sodipodi.sourceforge.net/DTD/sodipodi-0.dtd"
   xmlns:xlink="http://www.w3.org/1999/xlink"
   xmlns="http://www.w3.org/2000/svg"
   xmlns:svg="http://www.w3.org/2000/svg"><sodipodi:namedview
     id="namedview302"
     pagecolor="#ffffff"
     bordercolor="#000000"
     borderopacity="0.25"
     inkscape:showpageshadow="2"
     inkscape:pageopacity="0.0"
     inkscape:pagecheckerboard="0"
     inkscape:deskcolor="#d1d1d1"
     showgrid="false" /><defs
     id="defs193"><linearGradient
       id="gradient_0"
       gradientUnits="userSpaceOnUse"
       x1="1701.5408"
       y1="1024.939"
       x2="1697.7168"
       y2="1020.5157"><stop
         offset="0"
         stop-color="#46706E"
         id="stop188" /><stop
         offset="1"
         stop-color="#59897F"
         id="stop190" /></linearGradient><linearGradient
       inkscape:collect="always"
       xlink:href="#gradient_0"
       id="linearGradient1229"
       gradientUnits="userSpaceOnUse"
       x1="1701.5408"
       y1="1024.939"
       x2="1697.7168"
       y2="1020.5157"
       gradientTransform="matrix(0.262939,0,0,0.262939,-853.04017,512.29208)" /><linearGradient
       inkscape:collect="always"
       xlink:href="#gradient_1"
       id="linearGradient1231"
       gradientUnits="userSpaceOnUse"
       x1="2328.7905"
       y1="3499.5967"
       x2="1685.2094"
       y2="2900.4033"
       gradientTransform="matrix(0.262939,0,0,0.262939,-853.04017,512.29208)" /></defs><defs
     id="defs220"><linearGradient
       id="gradient_1"
       gradientUnits="userSpaceOnUse"
       x1="2328.7905"
       y1="3499.5967"
       x2="1685.2094"
       y2="2900.4033"><stop
         offset="0"
         stop-color="#407677"
         id="stop215" /><stop
         offset="1"
         stop-color="#74A590"
         id="stop217" /></linearGradient></defs><g
     id="g8045"
     transform="translate(1420.9205,376.00113)"><g
       id="g2399"
       transform="matrix(0.48436297,0,0,0.48081471,-717.95731,-595.36671)"><path
         fill="#ea651c"
         d="m -343.8141,787.63128 c 9.36063,0.80986 45.15452,6.18433 51.47557,3.82051 l 0.29712,-0.75464 c -1.20426,-0.8414 -6.08441,-1.66966 -7.76722,-1.95889 -14.20133,-2.49004 -29.65689,-6.85482 -38.3628,-19.3907 -12.9103,-18.59479 -7.92498,-40.2373 10.71477,-52.56256 14.40906,-9.52891 25.0239,-11.8759 42.04132,-11.02635 9.93909,-0.0644 19.79141,0.13489 29.59378,2.00675 14.23289,2.71695 28.36586,7.63785 41.99925,12.49854 16.11816,5.74706 31.08727,10.12736 47.93903,13.20322 15.38194,1.38464 22.77578,1.02389 37.35838,-4.24804 4.03611,-2.34988 8.04856,-4.73711 12.03734,-7.16114 -12.98655,23.53514 -45.19132,20.08196 -67.68049,15.8447 -15.09007,-2.84289 -30.01186,-11.21461 -44.76274,-15.5084 -28.77604,-8.37671 -87.60602,-20.33649 -105.19138,12.03103 -3.49971,6.45489 -4.2859,14.037 -2.18765,21.07378 4.57251,15.24941 18.82906,20.71012 32.54659,24.86193 -7.8461,-5.60007 -18.16908,-11.85171 -19.00523,-22.22676 -1.81428,-22.46761 15.63435,-29.22935 33.0041,-31.47616 36.33291,-4.70056 64.8355,11.77046 97.59507,22.51678 6.65762,2.19343 13.41778,4.05452 20.25945,5.57588 3.86258,0.83694 8.98463,1.55108 12.58163,2.53894 17.32505,1.15062 19.09989,1.24633 36.38813,-0.11254 1.23582,-0.68338 13.69649,-3.90727 16.47313,-4.87699 2.92914,-1.63311 5.51646,-3.38192 8.766387,-3.99825 l 1.093826,0.31816 c -0.149875,3.26701 -6.628693,7.88659 -9.476323,9.08138 -0.91766,1.03204 -3.95986,2.31676 -5.30611,2.78269 -31.55531,10.90828 -65.24305,3.74951 -95.3075,-8.34989 -5.68474,-2.28705 -12.47382,-4.435 -17.93244,-7.00286 -7.01521,-2.47925 -14.10142,-4.74105 -21.25599,-6.78172 -18.06916,-4.12578 -43.02733,-9.27465 -60.08419,0.88374 -3.96775,2.36329 -7.00469,5.79701 -8.08537,10.38398 -1.10172,4.51204 -0.30238,9.27859 2.20606,13.18666 3.92831,6.24716 17.68002,15.92674 24.8267,17.13889 4.72764,0.80196 14.87972,0.83614 20.00703,0.94658 25.59185,0.3313 48.03632,-0.43911 73.31265,5.04843 6.45515,1.03072 12.38443,2.75297 18.6897,4.42526 -6.79434,-4.08607 -9.67089,-5.2693 -17.31979,-7.65941 -30.41152,-8.20317 -60.37868,-6.137 -91.29505,-8.94466 -6.42623,-0.58373 -13.77537,-5.70499 -18.41625,-10.07293 9.39218,1.91761 18.89743,3.22705 28.45789,3.92042 24.69786,1.69017 106.04067,0.57478 120.46287,22.76973 5.4034,8.31939 4.23858,29.58326 2.50844,39.12269 0.27872,-0.23402 0.62843,-0.49958 0.80985,-0.80459 6.07127,-10.18363 5.77414,-18.99472 4.70924,-29.71474 l -1.37254,-9.03195 c 21.77924,2.61887 40.77921,9.02932 55.443318,26.36752 l -0.147246,7.19401 c -0.152505,2.398 -0.299751,4.78286 -0.533766,7.18612 -1.156932,11.90588 -6.355236,22.97561 -12.397576,33.14346 -0.43648,0.7336 -0.29449,0.65209 -0.34971,1.63023 l 0.33919,-0.31816 c 12.644741,-12.0505 18.59505,-26.52003 18.905318,-43.85297 5.829358,4.13077 12.016313,9.00566 16.736068,14.44324 27.15634,31.28974 24.587426,85.03185 -2.576802,115.69053 -2.929141,3.30778 -6.991548,3.7127 -8.290467,5.18516 -3.097422,3.51024 -5.571678,8.51396 -9.505245,11.54302 -14.890232,13.41252 -37.781702,20.43299 -57.391692,23.11497 -5.41129,0.74149 -13.95944,0.19983 -19.53111,-0.16039 -18.19801,11.76648 -37.83167,19.62578 -59.67664,20.43298 -28.32116,1.0465 -0.0316,-28.37374 7.75407,-34.9998 -9.00566,-6.0292 -19.36282,-14.67463 -23.8696,-24.77938 -1.21478,-2.72667 -3.67852,-8.97936 -1.98782,-10.89882 8.27206,-9.39481 40.76344,0.31027 49.87953,4.57777 8.95833,4.19651 13.92262,8.58759 22.27356,12.80776 1.54083,0.7783 5.8057,0.14987 7.01259,-0.14725 12.29502,-3.00539 22.46025,-10.84097 29.20989,-21.3112 -5.71366,-7.19927 -9.68667,-8.5797 -18.48461,-9.65775 11.55617,-4.00456 17.19358,-4.75657 26.64624,3.9546 0.59161,-1.60919 1.24633,-3.14212 1.9063,-4.71975 -10.74631,-13.03652 -27.45872,-10.76473 -38.62836,0.20509 -1.96679,1.9326 -3.39981,3.87835 -5.51384,5.75047 -7.11775,-6.25006 22.42081,-39.35145 48.3913,-12.83405 0.0394,-3.15264 0.19194,-6.44463 0.28923,-9.60779 -15.51603,-11.96372 -35.36529,-7.90395 -49.59292,4.82756 -2.52948,2.26128 -4.07293,6.3789 -7.12565,8.98726 -0.71257,-1.04913 -1.10172,-2.36383 -0.92029,-3.63645 3.27622,-22.75737 30.35894,-25.39202 47.11604,-25.01339 -0.14987,-3.33932 0.005,-5.44283 0.24191,-8.76638 -30.71128,12.7578 -58.95882,-2.9607 -74.54847,36.55641 -0.70468,-12.0058 0.66524,-20.86684 11.26957,-28.32642 10.90671,-7.67256 24.21931,-7.38596 36.7799,-9.88914 5.06947,-1.00968 9.429,-2.96069 14.06461,-5.16149 l -8.982,-3.65485 c -15.92884,4.14391 -32.75694,5.27718 -48.73574,9.69456 -17.30664,4.78812 -25.21322,14.87972 -30.38786,31.29763 -0.16828,-0.75201 -0.32604,-1.50401 -0.47329,-2.26128 -6.58136,-34.14263 39.5881,-40.10083 62.58737,-44.43143 -2.97384,-0.94921 -5.86354,-2.07196 -8.78479,-3.17105 -13.45459,2.08774 -52.95329,9.90755 -63.05277,16.79918 -9.09506,6.20536 -12.9366,15.40822 -14.86657,25.89423 -1.53031,-7.27552 -2.65306,-13.76486 0.71782,-20.79059 7.80929,-16.27329 28.36586,-19.68887 43.71887,-22.82047 -28.16603,-0.823 -48.56484,-16.56779 -73.16015,-27.6533 -7.5148,-3.38665 -17.46178,-5.14045 -25.63392,-6.47356 l 0.0131,-1.98518 c 11.23013,-1.20689 23.57774,-0.2235 34.70006,1.58815 -7.85399,-4.10185 -15.53706,-9.3843 -23.02031,-14.16979 -15.14002,-9.67878 -29.96715,-20.15427 -45.17292,-29.69633 z"
         id="path945"
         style="stroke-width:0.262939" /><path
         fill="#fa892c"
         d="m -267.01487,780.88953 c 25.59185,0.3313 48.03632,-0.43911 73.31265,5.04843 6.45515,1.03072 12.38443,2.75297 18.6897,4.42526 -6.79434,-4.08607 -9.67089,-5.2693 -17.31979,-7.65941 4.13077,-2.50318 19.21032,3.49446 23.75917,5.7347 4.54095,2.23761 8.90311,7.42276 9.86547,12.49486 4.10448,21.58992 -3.70218,51.55971 -28.11607,57.12087 -24.84247,6.39993 -51.9436,-2.85026 -70.87258,-19.41279 -15.19524,-13.29946 -29.68055,-24.853 -47.80231,-34.09004 -3.60226,-1.83795 -8.1958,-5.4218 -12.03471,-7.71726 7.17823,1.07279 31.50009,3.40769 37.23742,-0.33919 1.32258,-2.85552 -3.08691,-11.17754 -5.01688,-13.54662 3.84417,-1.71699 12.71573,-1.17797 17.40393,-1.26474 z"
         id="path947"
         style="stroke-width:0.262939" /><path
         fill="#ee641d"
         d="m -267.01487,780.88953 c 25.59185,0.3313 48.03632,-0.43911 73.31265,5.04843 -2.50581,1.38831 -26.40959,-3.18157 -31.20823,-3.16842 -10.27303,0.0263 -21.13241,0.1341 -31.31867,0.0316 1.86161,0.48381 3.42873,0.66524 4.84334,1.90631 l -0.26031,0.64157 c -6.37364,-2.90284 -13.70175,0.33656 -16.68348,-2.24813 l 0.4207,-1.41724 z"
         id="path949"
         style="stroke-width:0.262939" /><path
         fill="#487472"
         d="m -258.86376,787.087 c 3.19996,-0.62054 6.48144,0.54428 8.57181,3.0422 2.09299,2.49792 2.66357,5.93454 1.49086,8.97411 -1.17271,3.03958 -3.90201,5.20356 -7.1309,5.65056 -4.80653,0.66261 -9.2686,-2.6215 -10.06268,-7.40699 -0.79408,-4.78812 2.36645,-9.33696 7.13091,-10.25988 z"
         id="path951"
         style="stroke-width:0.262939" /><path
         fill="#4c7e77"
         d="m -258.92687,789.06956 c 4.40423,-1.08857 8.61388,2.23235 8.63755,6.74964 0.0158,2.93966 -2.0667,4.64351 -4.05189,6.53667 l -0.49433,-0.12621 c -1.39621,-0.82037 -3.94671,-1.98782 -5.47702,-2.75297 -0.71256,1.10697 -0.2419,0.67312 -1.62496,1.09645 -5.90035,-2.53473 -2.42956,-9.38166 3.01065,-11.50358 z"
         id="path953"
         style="stroke-width:0.262939" /><path
         fill="#fa892c"
         d="m -146.46786,789.94778 c 21.77924,2.61887 40.77921,9.02932 55.443318,26.36752 l -0.147246,7.19401 c -0.152505,2.398 -0.299751,4.78286 -0.533766,7.18612 -1.156932,11.90588 -6.355236,22.97561 -12.397576,33.14346 -0.43648,0.7336 -0.29449,0.65209 -0.34971,1.63023 -5.12994,6.93896 -14.74825,12.45016 -23.00979,14.86657 -6.31316,-1.35677 -8.8032,-3.96249 -13.68597,-8.04331 0.021,-1.88001 0.31815,-3.76265 0.56006,-5.63215 -13.76223,0.752 -18.56087,0.36548 -30.86641,-6.41571 12.63159,-7.86451 17.14099,-15.84734 20.84054,-30.74546 0.27872,-0.23402 0.62843,-0.49958 0.80985,-0.80459 6.07127,-10.18363 5.77414,-18.99472 4.70924,-29.71474 z"
         id="path955"
         style="stroke-width:0.262939" /><path
         fill="#ea651c"
         d="m -146.46786,789.94778 c 21.77924,2.61887 40.77921,9.02932 55.443318,26.36752 l -0.147246,7.19401 -0.546913,-0.0894 c -2.705643,-2.84237 -13.804299,-8.86367 -17.580099,-10.86464 -0.0131,17.67213 -7.99598,36.90612 -24.32712,45.34909 12.26873,-19.08937 14.98489,-29.35188 15.58965,-51.72799 -9.34222,-4.19388 -16.60196,-6.74438 -27.05905,-7.19664 z"
         id="path957"
         style="stroke-width:0.262939" /><path
         fill="#ee641d"
         d="m -165.88328,733.46716 c 15.38194,1.38464 22.77578,1.02389 37.35838,-4.24804 -0.94658,3.79816 -26.1414,8.48452 -30.01449,6.47882 -2.17188,-1.12354 -7.37018,-0.79408 -8.76639,-1.53635 0.76516,-0.4896 0.5811,-0.48381 1.4225,-0.69443 z"
         id="path959"
         style="stroke-width:0.262939" /><path
         fill="#ee641d"
         d="m -159.32821,757.2897 c 17.32505,1.15062 19.09989,1.24633 36.38813,-0.11254 -0.12358,0.41492 -0.39441,0.84377 -0.60739,1.24449 -5.59534,0.9692 -32.9147,3.43372 -35.78074,-1.13195 z"
         id="path961"
         style="stroke-width:0.262939" /><path
         fill="#ee641d"
         d="m -245.8851,738.34968 c 5.93454,-1.81139 13.52822,0.65235 18.92635,3.54836 0.79408,0.42596 2.10877,1.00811 2.3349,1.91209 0.18669,0.75779 0.14199,0.4683 -0.005,1.32127 -7.01521,-2.47925 -14.10142,-4.74105 -21.25599,-6.78172 z"
         id="path963"
         style="stroke-width:0.262939" /><path
         fill="#ee641d"
         d="m -106.46695,752.30017 c 2.92914,-1.63311 5.51646,-3.38192 8.766387,-3.99825 l 1.093826,0.31816 c -0.149875,3.26701 -6.628693,7.88659 -9.476323,9.08138 l 0.10255,-0.95263 c 1.33836,-1.33362 1.4856,-1.43301 2.55839,-3.089 l -0.48643,-0.84009 c -0.85456,-0.16539 -1.70648,-0.33841 -2.5584,-0.51957 z"
         id="path965"
         style="stroke-width:0.262939" /><path
         fill="#fa892c"
         d="m -75.64787,842.10436 c 6.160661,3.97826 12.229293,19.53373 14.87183,26.27023 -4.101848,6.21851 -8.356201,10.00746 -13.133803,15.31883 -8.535,9.4921 -19.35231,12.93397 -29.207267,20.14112 20.806366,-1.51189 30.148589,-8.80845 45.685654,-21.77397 -1.091196,43.32446 -5.997638,44.9836 -46.842584,46.85573 2.19817,0.70993 4.798638,1.8169 6.986291,2.67672 9.797107,2.398 21.169219,2.47162 30.834856,-0.58636 -3.223632,4.95114 -8.345684,17.24354 -13.79378,18.26637 -13.436183,2.52422 -31.089907,-12.9103 -34.413457,-24.70837 0.97288,-3.67326 1.44091,-7.48851 1.99571,-11.25379 2.53736,-0.29187 7.00469,-1.14116 9.07928,-2.64254 l 0.003,-0.89662 c -2.42693,-2.67146 -8.0249,-3.73637 -11.50095,-7.0231 -6.94685,-6.56296 -5.71104,-7.69623 -7.41488,-15.50026 l -0.19458,-0.85718 c 20.89051,-8.66384 36.359209,-24.39285 47.04505,-44.28681 z"
         id="path967"
         style="stroke-width:0.262939" /><path
         fill="#fa892c"
         d="m -120.43953,933.84114 c 1.80376,0.9571 3.68904,4.44104 5.16938,6.3605 7.58842,9.85232 13.89896,13.66231 25.278958,17.64583 -11.006628,12.68418 -26.861848,18.59505 -42.722328,22.59172 -6.61555,1.36466 -22.29723,4.64088 -27.5639,-0.33656 -1.63285,-3.42609 -1.45405,-7.31759 -1.23055,-11.00137 l 2.79504,-3.9099 c 17.5617,-6.84693 26.94336,-16.51257 38.2734,-31.35022 z"
         id="path969"
         style="stroke-width:0.262939" /><path
         fill="#fa892c"
         d="m -234.72334,945.39731 c 19.76513,-0.9755 44.70226,9.06614 60.18148,20.85632 1.92735,2.04041 4.10448,4.13078 4.41475,6.99155 l -0.6705,0.80197 c -3.11056,-0.18143 -2.17976,-1.33836 -4.94062,-1.12801 l -0.39178,-0.28924 c -17.35923,0.92818 -35.92272,-5.22722 -50.59472,-14.34069 -1.76432,-1.09645 -4.84597,-2.1745 -6.08178,-3.72584 3.63382,-0.90188 34.05849,10.18888 40.31644,11.86117 2.48214,0.66261 4.98795,1.78799 7.10461,0.21299 l -0.7783,-2.33227 c -8.29047,-5.46914 -20.79059,-9.36589 -30.42467,-12.32921 -8.09589,-2.48741 -10.68584,-1.89579 -18.13491,-6.57874 z"
         id="path971"
         style="stroke-width:0.262939" /><path
         fill="#ee641d"
         d="m -174.54186,966.25363 c 1.92735,2.04041 4.10448,4.13078 4.41475,6.99155 l -0.6705,0.80197 c -3.11056,-0.18143 -2.17976,-1.33836 -4.94062,-1.12801 l -0.39178,-0.28924 c 2.2455,-0.5285 1.81954,-0.0763 3.10531,-1.51715 0.20772,-1.80639 -0.70993,-3.15001 -1.51716,-4.85912 z"
         id="path973"
         style="stroke-width:0.262939" /><path
         fill="#ee641d"
         d="m -186.16376,964.30526 c 3.59438,1.54871 6.22902,2.8897 9.6893,4.74079 -2.67146,-0.28661 -6.31579,-0.56532 -8.87682,-1.06754 l 0.5548,-1.09119 -0.58898,-0.24979 z"
         id="path975"
         style="stroke-width:0.262939" /><path
         fill="#fa892c"
         d="m -169.50395,980.99399 0.34183,0.28135 c -0.41808,7.20979 -23.87487,14.10931 -29.90143,16.15497 -6.27109,2.12718 -12.9103,2.28231 -19.31287,5.34029 -0.13147,-0.2787 -0.26557,-0.5574 -0.39704,-0.8361 1.49876,-1.0255 4.8039,-3.73378 6.27636,-4.30436 14.3144,-5.53486 28.73134,-10.93826 42.99315,-16.63615 z"
         id="path977"
         style="stroke-width:0.262939" /><path
         fill="#fa892c"
         d="m -213.22281,987.26246 c 8.83475,-5.20093 21.68458,-8.70328 31.71044,-10.60959 3.7574,-0.71256 6.94422,-2.83974 9.52628,0.88085 l -0.0947,0.9308 c -1.82479,1.12801 -12.46068,3.18419 -15.31357,3.8468 -7.78299,1.81165 -14.55893,4.85911 -21.91859,7.27289 -1.76432,-0.7967 -1.92734,-0.52851 -3.3814,-0.0894 l -0.58372,-0.69153 0.29449,-0.39704 z"
         id="path979"
         style="stroke-width:0.262939" /><path
         fill="#f88e2b"
         d="m -225.82022,995.32154 c 4.00456,-3.30777 8.07486,-5.56379 12.59741,-8.05908 l 0.23927,1.14378 -0.29449,0.39704 0.58372,0.69153 c 1.45406,-0.43911 1.61708,-0.7073 3.3814,0.0894 -4.59354,2.05093 -11.5772,4.12289 -16.50731,5.73733 z"
         id="path981"
         style="stroke-width:0.262939" /><path
         id="path983"
         style="fill:#ea651c;fill-opacity:1;stroke-width:0.262939"
         d="m -120.74805,1041.6289 c -2.11907,-0.017 -4.45914,0.253 -7.02148,0.8516 -13.48345,4.7092 -30.152,22.853 -36.22852,34.9824 -9.97322,11.7586 -19.79989,40.9324 -25.80273,55.7832 -2.40326,5.9477 -3.41305,15.227 -6.30274,21.3535 -5.21665,8.1642 -16.39408,21.3605 -25.8125,24.5684 -2.93697,0.9992 -5.16079,-3.2449 -4.6875,-6.1504 3.668,-22.4865 20.78589,-41.1814 27.63282,-62.5899 0.73097,-2.3059 -8.75338,-8.6867 -12.88672,-8.3632 -6.95994,0.5442 -8.59684,4.4951 -11.53906,10.0957 -8.28784,-16.2075 -29.91171,-9.5026 -40.81836,0.2656 l -5.11133,4.9121 c -6.72598,6.9784 -12.72702,14.6207 -17.91211,22.8086 -2.45848,3.9283 -5.06869,8.2634 -6.86719,12.5703 -5.26135,12.608 -22.69739,33.0024 -35.7207,36.8965 -13.93571,-0.3918 -5.83668,-19.5025 -4.87695,-28.0059 l 0.0469,-0.4414 c 23.8537,-14.9692 49.79547,-49.5217 62.98437,-74.7265 3.41294,-6.5209 9.70881,-21.3261 6.87696,-28.8672 -0.49695,-2.114 -5.42833,-7.2246 -7.47656,-7.5664 -42.03319,-7.0152 -74.5042,86.3404 -84.18555,109.2871 -1.86161,3.5024 -7.06685,11.9162 -8.24219,15.0215 -2.40589,2.8556 -4.9304,5.6061 -7.57031,8.246 -17.0541,16.8491 -28.75833,17.5087 -16.21094,-8.7773 2.96858,-6.2185 5.89282,-12.583 8.99024,-18.7988 1.14898,-1.9668 2.23813,-4.261 3.27148,-6.3145 0.88873,-0.8914 2.49213,-4.1261 3.04687,-5.2988 1.30681,-1.9116 2.66632,-4.164 3.92579,-6.1387 1.86155,-2.5741 3.3854,-4.7509 5.08398,-7.4355 0.77173,-0.9965 1.53356,-1.8977 2.10742,-2.8633 0.28693,-0.4828 0.5271,-0.9826 0.69727,-1.5176 0.17017,-0.535 0.27075,-1.1053 0.2793,-1.7324 -0.13082,-0.4457 -0.27531,-0.8 -0.44141,-1.0996 -0.1661,-0.2996 -0.35485,-0.5447 -0.57227,-0.7695 -0.43483,-0.4497 -0.98838,-0.822 -1.72461,-1.4004 -12.6078,-9.642 -17.56599,-3.618 -24.59961,7.2519 -1.31726,-4.5146 -2.61692,-7.7506 -7.1289,-10.2617 -6.442,-3.5865 -16.80129,-2.5947 -23.67188,-0.2598 -23.56705,8.1722 -39.89103,30.1639 -51.12109,51.4356 -6.05806,12.1557 -10.86005,26.2858 -6.51367,39.7851 3.97294,12.3477 17.47486,15.947 28.7207,11.5059 12.37911,-4.888 22.54636,-16.2075 30.68164,-26.3438 -0.73623,28.4132 25.51749,23.7537 40.40234,9.5372 2.01937,-1.8932 3.90389,-3.9214 5.64454,-6.0723 3.14206,-4.0072 5.9041,-7.5066 8.37304,-11.9844 0.85981,16.8412 9.3569,27.3795 27.47071,23.3145 14.14074,-5.6112 23.52873,-15.3659 32.41601,-27.5899 0.41018,6.555 2.45004,14.7935 7.5957,19.0137 16.68867,13.6833 37.16696,-8.7693 46.10157,-19.8496 0.11569,6.4105 1.54958,12.8377 6.96875,16.8633 15.76045,11.7113 36.02666,-13.9828 43.83594,-24.8711 1.33567,13.4152 9.64968,22.9348 23.71679,21.6543 16.03396,-1.4567 28.88769,-16.7834 38.56641,-28.3028 0.93344,15.24 9.19371,28.0107 26.53711,24.1192 12.297565,-2.7582 26.218416,-16.5989 32.568357,-27.127 -2.06406,14.5668 3.531385,26.2682 20.291015,23.084 18.97357,-3.6049 32.886743,-22.9421 39.607422,-39.9043 0.96235,-2.4296 0.987391,-7.4229 -1.5,-9.0683 l -0.958984,0.4941 c -3.428706,6.3553 -29.233244,43.046 -35.191406,24.2695 -2.805541,-8.8295 31.051943,-62.8534 30.455078,-65.9062 -1.259472,-1.7117 -2.16011,-2.5392 -4.066406,-3.5489 -13.833142,-7.3328 -15.007406,-3.8363 -21.365235,8.0801 -8.227314,-25.6997 -42.274862,-8.9901 -54.283201,4.8379 -1.41921,1.5527 -2.97132,3.3707 -4.56641,5.3418 -1.59509,1.9711 -3.23391,4.0955 -4.82617,6.2598 -1.59226,2.1643 -3.13812,4.3678 -4.54883,6.5 -2.8e-4,4e-4 2.9e-4,0 0,0 -1.41034,2.1317 -2.68611,4.1921 -3.73633,6.0664 -3.69686,6.3027 -6.19104,11.0919 -9.21484,17.8731 -3.10005,3.4813 -8.10392,8.431 -10.84375,11.7441 -6.79165,4.0992 -16.44813,17.9599 -26.33984,15.6934 -10.48068,-2.4033 -4.74832,-19.8062 -3.02344,-27.0449 9.41841,-6.5498 17.89873,-14.3507 25.20312,-23.1934 7.77511,-9.2002 15.08119,-18.7842 21.88868,-28.7207 1.1411,-1.4199 2.83268,-4.3391 3.85546,-5.9824 3.8205,-5.8504 8.25448,-12.8075 10.77344,-19.2285 7.65673,-13.9538 3.72834,-28.1329 -11.10547,-28.252 z m -2.10742,18.3926 c 0.16328,0 0.32559,0.012 0.48828,0.031 8.51919,8.8505 -33.25117,61.8639 -41.61523,69.4707 -0.62579,0.5732 -1.262,1.1335 -1.91406,1.6778 2.1587,-7.1098 5.81087,-14.3235 7.60937,-20.3106 1.05176,-1.7643 2.13561,-4.4741 2.99805,-6.4199 5.52169,-11.0408 9.61013,-18.3456 16.45703,-28.4609 l 3.01367,-4.4024 c 2.60581,-3.5813 7.90129,-11.6336 12.96289,-11.5859 z m -159.00586,8 c 1.0465,0.3208 1.26049,0.1178 1.66016,0.9355 1.34887,2.7556 -2.42419,12.2823 -3.60742,14.959 -8.19581,18.5319 -21.00476,37.5997 -35.04297,52.1875 -1.22266,1.27 -4.66946,4.7731 -5.93946,5.5488 l -0.31445,-0.7832 c 3.03958,-6.187 6.77601,-16.6791 9.36328,-23.3867 0.90714,-1.4199 3.99645,-7.9766 4.98242,-9.9355 3.21838,-6.3946 6.17176,-11.7507 9.98438,-17.8614 1.94838,-2.6846 3.28046,-4.868 4.99219,-7.6972 4.02555,-4.7934 8.07679,-12.7967 13.92187,-13.9668 z m 214.304689,32.6894 c 13.094847,0.055 6.201952,14.9999 2.455079,23.211 -7.446419,16.3259 -18.14063,35.6134 -35.857418,42.3789 -17.22248,3.5864 -8.94239,-18.2434 -5.37696,-26.0684 4.73027,-10.3782 12.082191,-19.5679 19.736331,-27.9531 4.848585,-5.314 9.371837,-8.8718 16.15039,-11.375 1.057506,-0.1351 2.019589,-0.197 2.892578,-0.1934 z m -170.390629,15.3438 c 19.58362,-0.8545 -15.33481,62.496 -34.80273,67.7285 -11.27742,-2.2745 -4.03998,-22.176 -0.55078,-28.5391 8.2694,-15.0739 18.29148,-33.0813 35.35351,-39.1894 z m -168.0039,12.6914 c 1.62262,0.01 3.57921,0.1079 4.6875,0.6934 7.39904,3.912 -0.23143,18.9415 -2.71094,23.748 -9.23173,17.893 -18.8079,39.0617 -39.18555,46.0664 -25.92823,2.824 10.00389,-64.3978 35.74024,-70.498 0.42267,0 0.92788,-0.012 1.46875,-0.01 z" /><path
         fill="#a8c2a6"
         d="m -428.39106,928.46667 c 6.21588,-2.27179 12.35814,-5.314 18.64501,-7.41751 27.56389,-9.22916 62.72936,-18.73966 87.8637,0.82826 14.53,6.68917 27.06957,13.9121 40.20074,22.94406 17.36975,11.9532 20.35148,17.38289 -1.36728,26.31756 3.80735,-0.17091 14.39328,-1.12538 17.29349,0.39441 5.04054,8.51922 -31.40543,28.23176 -38.01572,31.88665 -8.26154,4.5567 -14.74299,7.428 -23.48571,11.0145 -4.60932,1.575 -9.6893,3.4392 -14.35384,4.6855 -11.62716,16.8229 -25.76276,28.5947 -45.69617,34.4188 3.32881,-8.5666 6.8706,-17.049 10.628,-25.4341 -14.55105,5.5243 -34.211,7.3202 -49.94264,7.7882 -12.72098,11.9348 -20.16479,22.1316 -38.82294,14.63 -0.89662,-0.2945 -3.30514,-1.4857 -4.28065,-1.9405 l -5.19567,-2.3297 -2.67672,-1.3751 -5.80569,-3.5077 c 2.29545,-3.4366 4.80652,-6.9205 7.17823,-10.3203 -9.32119,2.0141 -15.98669,3.9888 -24.93976,6.9074 -11.57458,6.2185 -24.09047,14.3828 -30.53774,26.1887 -10.37031,-0.142 -27.09849,-0.4812 -35.60457,6.1659 -0.29712,-10.3413 1.18323,-15.5686 5.16675,-25.2263 -4.53307,-0.7783 -7.16508,-1.3016 -11.309,-3.647 -2.87656,-1.738 -9.01881,-7.4859 -11.85855,-9.9733 -4.74079,-4.2201 -9.74478,-8.1406 -14.97859,-11.7323 20.3294,-19.99914 49.04759,1.0912 76.693,-6.8811 10.94089,-3.8021 16.8018,-13.4546 23.77495,-21.99749 7.35703,-9.01092 14.52475,-18.19801 22.52072,-26.66465 -3.54442,0.56795 -5.0642,1.30681 -7.96179,-0.67312 -1.07016,-2.50318 -0.3129,-4.1334 2.36645,-4.77497 -2.13244,-1.30944 -1.6013,-0.5995 -2.09825,-2.58206 0.63368,-1.73014 1.4225,-3.14213 1.04386,-4.867 1.32522,-2.03252 0.76778,-1.85635 2.62939,-2.6031 -1.3068,-0.72045 -0.82825,-0.20772 -1.28577,-1.72225 0.66261,-1.75906 1.23581,-2.69776 0.90188,-4.53833 l 2.05093,-4.41212 c -0.823,-3.01591 -1.01495,-2.96332 -0.80197,-6.32105 -1.67755,-0.12358 -1.62496,-0.14724 -3.20522,-0.77304 l -0.0263,-0.65209 c 3.76266,-3.21574 16.07609,-4.56199 21.08508,-4.72238 11.6929,-0.4023 22.73897,0.90188 34.20836,2.91862 z"
         id="path999"
         style="stroke-width:0.262939" /><path
         fill="#4c7e77"
         d="m -428.39106,928.46667 c 6.21588,-2.27179 12.35814,-5.314 18.64501,-7.41751 27.56389,-9.22916 62.72936,-18.73966 87.8637,0.82826 -1.92209,-0.26294 -2.45848,-0.44174 -4.39897,-0.0316 -0.94921,5.78991 2.56365,2.18502 -3.45502,7.17823 l -2.54788,-0.57321 -0.72834,1.52242 c -1.63022,-0.53114 -4.35427,-0.79145 -6.12648,-1.02809 -16.05769,-2.40852 -32.42301,-1.7985 -48.2572,1.7985 -2.82133,0.63631 -13.32574,4.00719 -14.82976,4.1781 -17.92718,6.83642 -27.74269,11.34056 -43.99232,21.86601 1.24107,1.17271 1.71173,1.84583 3.37088,2.25602 2.91336,-1.72751 0.1341,-2.77664 2.47162,-2.72668 0.0657,0.43385 0.58899,3.68903 0.54429,3.92042 -5.27719,7.84084 -8.27469,14.20659 -6.49985,24.26401 0.44962,2.55577 1.33573,4.16233 0.90977,6.68391 -5.05369,0.5995 -10.06268,-8.92415 -11.94532,-12.88664 l -0.48907,0.21035 c -1.23318,-0.39704 -2.0667,-0.51536 -3.33933,-0.74675 -4.94325,7.9171 -4.98532,12.86298 -1.67492,21.48475 -2.01937,-1.26474 -3.85994,-2.41378 -5.78991,-3.8468 -1.93261,-1.43302 -3.84154,-5.43495 -5.64005,-5.74259 -2.25864,1.98782 -3.0869,3.32881 -5.03791,5.4481 0.0552,6.49192 -0.22349,8.49552 1.95101,14.54052 -7.27552,-2.3507 -8.37724,-2.7162 -12.20563,-9.2292 -6.36312,5.5401 -11.75337,11.2827 -18.67918,16.2207 -3.98616,-1.4593 -3.92042,0.3997 -7.10199,1.6276 -4.3569,1.6802 -4.0177,-3.6654 -8.21947,-5.4139 10.94089,-3.8021 16.8018,-13.45455 23.77495,-21.99744 7.35703,-9.01092 14.52475,-18.19801 22.52072,-26.66465 -3.54442,0.56795 -5.0642,1.30681 -7.96179,-0.67312 -1.07016,-2.50318 -0.3129,-4.1334 2.36645,-4.77497 -2.13244,-1.30944 -1.6013,-0.5995 -2.09825,-2.58206 0.63368,-1.73014 1.4225,-3.14213 1.04386,-4.867 1.32522,-2.03252 0.76778,-1.85635 2.62939,-2.6031 -1.3068,-0.72045 -0.82825,-0.20772 -1.28577,-1.72225 0.66261,-1.75906 1.23581,-2.69776 0.90188,-4.53833 l 2.05093,-4.41212 c -0.823,-3.01591 -1.01495,-2.96332 -0.80197,-6.32105 -1.67755,-0.12358 -1.62496,-0.14724 -3.20522,-0.77304 l -0.0263,-0.65209 c 3.76266,-3.21574 16.07609,-4.56199 21.08508,-4.72238 11.6929,-0.4023 22.73897,0.90188 34.20836,2.91862 z"
         id="path1001"
         style="stroke-width:0.262939" /><path
         fill="#487472"
         d="m -428.39106,928.46667 c 6.21588,-2.27179 12.35814,-5.314 18.64501,-7.41751 27.56389,-9.22916 62.72936,-18.73966 87.8637,0.82826 -1.92209,-0.26294 -2.45848,-0.44174 -4.39897,-0.0316 -0.94921,5.78991 2.56365,2.18502 -3.45502,7.17823 l -2.54788,-0.57321 c -8.5613,-2.67934 -14.92442,-4.30431 -23.97741,-4.37793 -25.6234,-0.3576 -50.82874,7.36755 -73.46779,19.07885 -1.22266,-1.52767 -1.73539,-1.96941 -3.62855,-1.96415 -1.64863,1.64337 -2.95018,1.83794 -4.85386,3.88098 -0.47329,-0.57058 -0.8677,-1.00706 -1.36728,-1.55134 0.24979,-1.5566 1.01757,-2.12718 2.08774,-3.34459 l 0.46014,-0.51536 -0.15514,-0.73097 c -2.022,-1.19111 -1.96678,-1.07805 -3.03168,-3.13949 l 0.11832,-0.31815 -0.40755,-0.6889 -3.72585,-0.7599 -2.15347,1.79062 -5.86617,-0.12096 c -11.29849,-0.14198 -15.9788,0.34445 -27.39824,2.32701 -0.823,-3.01591 -1.01495,-2.96332 -0.80197,-6.32105 -1.67755,-0.12358 -1.62496,-0.14724 -3.20522,-0.77304 l -0.0263,-0.65209 c 3.76266,-3.21574 16.07609,-4.56199 21.08508,-4.72238 11.6929,-0.4023 22.73897,0.90188 34.20836,2.91862 z"
         id="path1003"
         style="stroke-width:0.262939" /><path
         fill="#f6e1bb"
         d="m -469.00461,930.09426 c 9.31855,0.89137 15.61331,1.91157 24.77148,3.92568 l -2.15347,1.79062 -5.86617,-0.12096 c -11.29849,-0.14198 -15.9788,0.34445 -27.39824,2.32701 -0.823,-3.01591 -1.01495,-2.96332 -0.80197,-6.32105 l 2.60573,-0.27346 z"
         id="path1005"
         style="stroke-width:0.262939" /><path
         fill="#ffffff"
         d="m -469.00461,930.09426 c 9.31855,0.89137 15.61331,1.91157 24.77148,3.92568 l -2.15347,1.79062 -5.86617,-0.12096 c -1.92208,-0.26556 -0.87559,-0.092 -2.21658,-1.00179 -5.46913,-3.69955 -18.02709,-0.43122 -23.3779,-3.26571 z"
         id="path1007"
         style="stroke-width:0.262939" /><path
         fill="#4c7e77"
         d="m -480.45298,931.69556 c -1.67755,-0.12358 -1.62496,-0.14724 -3.20522,-0.77304 l -0.0263,-0.65209 c 3.76266,-3.21574 16.07609,-4.56199 21.08508,-4.72238 1.25159,1.53556 0.90188,0.69416 1.18586,2.5768 -2.08248,2.63202 -5.26667,1.04913 -7.59105,1.96941 l -8.84264,1.32784 z"
         id="path1009"
         style="stroke-width:0.262939" /><path
         fill="#f6e1bb"
         d="m -356.26163,924.07296 c 9.05299,0.0736 15.41611,1.69859 23.97741,4.37793 l -0.72834,1.52242 c -1.63022,-0.53114 -4.35427,-0.79145 -6.12648,-1.02809 -16.05769,-2.40852 -32.42301,-1.7985 -48.2572,1.7985 -2.82133,0.63631 -13.32574,4.00719 -14.82976,4.1781 -17.92718,6.83642 -27.74269,11.34056 -43.99232,21.86601 -16.22597,11.23275 -27.95042,22.81259 -42.34107,36.19355 l -1.08331,-0.62316 c 20.81688,-22.31563 33.03829,-33.83236 59.91328,-49.20641 22.63905,-11.7113 47.84439,-19.43645 73.46779,-19.07885 z"
         id="path1011"
         style="stroke-width:0.262939" /><path
         fill="#f6e1bb"
         d="m -481.70194,942.42873 c 11.57721,-1.12801 18.05865,-2.03778 29.30455,1.28051 -11.07499,1.84584 -17.42496,2.30861 -28.92066,4.98007 -1.3068,-0.72045 -0.82825,-0.20772 -1.28577,-1.72225 0.66261,-1.75906 1.23581,-2.69776 0.90188,-4.53833 z"
         id="path1013"
         style="stroke-width:0.262939" /><path
         fill="#f6e1bb"
         d="m -482.89305,958.74147 c -2.13244,-1.30944 -1.6013,-0.5995 -2.09825,-2.58206 0.63368,-1.73014 1.4225,-3.14213 1.04386,-4.867 0.88348,0.376 15.01382,-0.39967 18.1612,-0.24191 -6.47619,4.75657 -9.50525,5.50594 -17.10681,7.69097 z"
         id="path1015"
         style="stroke-width:0.262939" /><path
         fill="#f6e1bb"
         d="m -444.23313,934.01994 3.72585,0.7599 0.40755,0.6889 -0.11832,0.31815 c -1.92209,0.37863 -4.1781,0.12884 -6.16855,0.0237 z"
         id="path1017"
         style="stroke-width:0.262939" /><path
         fill="#bbc2a5"
         d="m -461.19533,977.76247 c 1.25422,-1.26999 2.00623,-2.58469 3.31041,-2.61887 0.42859,1.4488 0.41281,1.62759 0.51799,3.15527 l -0.48907,0.21035 c -1.23318,-0.39704 -2.0667,-0.51536 -3.33933,-0.74675 z"
         id="path1019"
         style="stroke-width:0.262939" /><path
         fill="#bbc2a5"
         d="m -489.6427,992.35822 1.08331,0.62316 c -1.29629,1.20689 -2.48214,2.62939 -4.11499,3.06587 0.62579,-1.77747 1.55134,-2.26127 3.03168,-3.68903 z"
         id="path1021"
         style="stroke-width:0.262939" /><path
         fill="#487472"
         d="m -600.28638,1019.7328 c 20.3294,-19.99914 49.04759,1.0912 76.693,-6.8811 4.20177,1.7485 3.86257,7.0941 8.21947,5.4139 3.18157,-1.2279 3.11583,-3.0869 7.10199,-1.6276 -9.41322,6.2842 -14.2697,8.9636 -25.54979,11.9243 1.4225,5.3219 2.2008,18.198 10.69373,14.4222 7.42803,-3.2999 12.48172,-8.3667 20.30415,-11.6272 1.2253,2.9923 0.96499,2.5058 4.06767,4.5042 -0.84141,0.6626 -1.63548,1.3541 -2.40852,2.0956 -11.57458,6.2185 -24.09047,14.3828 -30.53774,26.1887 -10.37031,-0.142 -27.09849,-0.4812 -35.60457,6.1659 -0.29712,-10.3413 1.18323,-15.5686 5.16675,-25.2263 -4.53307,-0.7783 -7.16508,-1.3016 -11.309,-3.647 -2.87656,-1.738 -9.01881,-7.4859 -11.85855,-9.9733 -4.74079,-4.2201 -9.74478,-8.1406 -14.97859,-11.7323 z"
         id="path1023"
         style="stroke-width:0.262939" /><path
         fill="#a8c2a6"
         d="m -573.44924,1041.4384 c 6.80486,-2.8844 22.0448,-3.831 29.90668,-4.5594 -4.8223,3.0607 -13.09699,6.2449 -18.59768,8.2064 -4.53307,-0.7783 -7.16508,-1.3016 -11.309,-3.647 z"
         id="path1025"
         style="stroke-width:0.262939" /><path
         fill="#a8c2a6"
         d="m -542.22524,1045.7322 c 2.00623,0.468 1.43565,-0.084 2.29283,1.1964 -10.09686,5.4744 -9.89439,5.832 -18.48198,13.4335 l -0.88348,0.8178 -0.61264,-0.3576 c 0.6889,-8.2616 10.14944,-13.9963 17.68527,-15.0901 z"
         id="path1027"
         style="stroke-width:0.262939" /><path
         fill="#bbc2a5"
         d="m -575.77625,1027.6525 c 5.16412,0.6363 26.95387,1.7012 29.58063,3.9625 -7.93024,1.8327 -23.02819,1.2463 -29.58063,-3.9625 z"
         id="path1029"
         style="stroke-width:0.262939" /><path
         fill="#bbc2a5"
         d="m -576.03656,1020.5164 c 10.20729,-0.5496 21.27702,-0.142 30.15384,5.3402 l -8.33779,-1.8432 c -12.7578,-1.7538 -18.99735,-1.7169 -31.86032,-1.759 4.17547,-1.0649 5.75573,-1.3463 10.04427,-1.738 z"
         id="path1031"
         style="stroke-width:0.262939" /><path
         fill="#4c7e77"
         d="m -536.65619,1041.5226 0.95447,-0.1683 -0.47329,0.7493 c 3.54968,2.5295 2.80819,0.6837 4.61195,4.1045 l -0.53377,0.5837 -1.20952,-0.1314 c -1.34624,-1.1938 -3.75476,-2.9292 -4.1071,-4.5226 z"
         id="path1033"
         style="stroke-width:0.262939" /><path
         fill="#4c7e77"
         d="m -565.53741,1057.2857 c 1.9589,0.4996 2.0036,0.1315 2.82134,1.3963 -0.37075,1.8984 0.39178,1.1201 -0.93607,3.2788 -1.15693,1.0097 -0.52324,0.8388 -1.81428,0.9545 -0.6889,-1.7197 -0.26556,-3.7206 -0.071,-5.6296 z"
         id="path1035"
         style="stroke-width:0.262939" /><path
         fill="#4c7e77"
         d="m -539.60374,1026.5876 c 0.29187,0.1841 1.03861,1.3384 1.28052,1.6802 -0.69679,1.5566 -1.35414,1.5645 -3.04747,2.6978 l -0.50747,-1.888 c 0.72046,-1.7248 0.54166,-1.2121 2.27442,-2.49 z"
         id="path1037"
         style="stroke-width:0.262939" /><path
         fill="#4c7e77"
         d="m -350.98444,1013.1409 c 2.81081,-1.2884 8.4903,-3.0238 11.60612,-4.0755 4.19651,1.1148 4.00194,0.5627 6.96789,3.8993 l -0.23928,0.5522 -0.91765,0.305 -0.0763,0.4234 c 1.53557,0.2708 2.62939,-0.5075 4.10448,-1.2043 1.79587,0.2235 1.02546,-0.1604 2.28231,1.3936 -4.60932,1.575 -9.6893,3.4392 -14.35384,4.6855 -11.62716,16.8229 -25.76276,28.5947 -45.69617,34.4188 3.32881,-8.5666 6.8706,-17.049 10.628,-25.4341 -14.55105,5.5243 -34.211,7.3202 -49.94264,7.7882 -12.72098,11.9348 -20.16479,22.1316 -38.82294,14.63 -0.89662,-0.2945 -3.30514,-1.4857 -4.28065,-1.9405 l -5.19567,-2.3297 -2.67672,-1.3751 -5.80569,-3.5077 c 2.29545,-3.4366 4.80652,-6.9205 7.17823,-10.3203 -9.32119,2.0141 -15.98669,3.9888 -24.93976,6.9074 0.77304,-0.7415 1.56711,-1.433 2.40852,-2.0956 -3.10268,-1.9984 -2.84237,-1.5119 -4.06767,-4.5042 7.28867,-2.5952 18.05602,-6.6997 25.44461,-7.2545 4.76971,-0.9308 9.5105,-0.4443 14.1803,-1.2594 8.52185,-2.6478 33.38799,3.2052 43.81353,2.774 3.38139,-0.1394 19.35756,-1.0045 21.50052,-0.2288 7.41488,0.1026 38.42327,-9.8418 46.90043,-12.2477 z"
         id="path1039"
         style="stroke-width:0.262939" /><path
         fill="#487472"
         d="m -397.88487,1025.3886 c 7.41488,0.1026 38.42327,-9.8418 46.90043,-12.2477 -2.64517,3.8021 -38.22345,11.8349 -45.73561,13.1759 -7.23871,1.291 -15.495,2.8134 -22.82311,2.7477 -12.81302,-0.1131 -25.8916,-3.9625 -38.69936,-5.0589 -5.88983,-0.5049 -13.66494,1.9562 -19.1367,0.097 4.76971,-0.9308 9.5105,-0.4443 14.1803,-1.2594 8.52185,-2.6478 33.38799,3.2052 43.81353,2.774 3.38139,-0.1394 19.35756,-1.0045 21.50052,-0.2288 z"
         id="path1041"
         style="stroke-width:0.262939" /><path
         fill="#bbc2a5"
         d="m -463.19892,1022.8434 c 8.52185,-2.6478 33.38799,3.2052 43.81353,2.774 3.38139,-0.1394 19.35756,-1.0045 21.50052,-0.2288 -19.72043,4.8249 -44.84162,-1.036 -65.31405,-2.5452 z"
         id="path1043"
         style="stroke-width:0.262939" /><path
         fill="#bbc2a5"
         d="m -469.72507,1048.5825 c 9.60254,-5.2457 17.17781,-8.514 26.13614,-15.0428 -4.45682,8.0039 -13.70175,13.3205 -21.85549,16.9833 -0.89662,-0.2945 -3.30514,-1.4857 -4.28065,-1.9405 z"
         id="path1045"
         style="stroke-width:0.262939" /><path
         fill="#bbc2a5"
         d="m -477.59746,1044.8777 c 6.01079,-5.0827 14.69303,-10.2363 22.3393,-12.1557 -7.89606,7.5016 -11.84015,7.9118 -19.66258,13.5308 z"
         id="path1047"
         style="stroke-width:0.262939" /><path
         fill="#bbc2a5"
         d="m -351.51558,1019.2911 c -0.98602,5.1115 -21.09034,22.0342 -26.17558,25.3946 l 0.0841,-0.9413 c 7.74093,-9.1161 16.49417,-17.3198 26.09144,-24.4533 z"
         id="path1049"
         style="stroke-width:0.262939" /><path
         fill="#4c7e77"
         d="m -329.73634,929.0241 c 6.01867,-4.99321 2.50581,-1.38832 3.45502,-7.17823 1.94049,-0.41019 2.47688,-0.23139 4.39897,0.0316 14.53,6.68917 27.06957,13.9121 40.20074,22.94406 17.36975,11.9532 20.35148,17.38289 -1.36728,26.31756 3.80735,-0.17091 14.39328,-1.12538 17.29349,0.39441 5.04054,8.51922 -31.40543,28.23176 -38.01572,31.8867 -8.26154,4.5567 -14.74299,7.428 -23.48571,11.0145 -1.25685,-1.554 -0.48644,-1.1702 -2.28231,-1.3936 -1.47509,0.6968 -2.56891,1.4751 -4.10448,1.2043 l 0.0763,-0.4234 0.91765,-0.305 0.23928,-0.5522 c -2.96595,-3.3366 -2.77138,-2.7845 -6.96789,-3.8993 5.09839,-2.0142 10.37558,-4.5331 15.5581,-6.1528 -15.25309,-4.5305 -23.85908,-14.6668 -26.44114,-30.68767 -1.67229,-10.3782 0.82037,-18.51354 7.15983,-26.88551 -4.41738,16.17074 -2.04041,32.16795 12.66051,42.14386 7.73041,5.24826 17.05685,8.12218 26.20976,4.75657 9.5999,-3.53128 18.63186,-8.07749 26.89866,-14.11194 -5.2693,0.52062 -21.78976,2.4427 -24.6742,-2.34279 0.37338,-7.55686 19.83875,-12.85246 23.42261,-18.19538 -0.0605,-0.33656 -0.17091,-1.18322 -0.39704,-1.3962 -13.68071,-12.89979 -33.26178,-21.7135 -50.75511,-27.16949 z"
         id="path1051"
         style="stroke-width:0.262939" /><path
         fill="#487472"
         d="m -323.82022,1002.9126 0.87559,-0.4654 1.34099,0.5495 0.9124,-1.0412 c 1.06753,1.2674 0.60476,0.6468 0.87033,2.6951 -1.13327,1.0176 -1.54346,0.9492 -3.04221,1.2805 l 0.27346,1.3121 -0.15776,-0.7205 0.6179,0.497 -0.90714,0.2077 -1.47771,-0.9387 -1.42513,0.4391 c -0.6705,1.9221 -0.76253,1.0781 -0.37864,2.753 1.39095,0.4128 0.75727,0.4812 2.35857,-0.4181 0.44436,-0.2524 0.8861,-0.5101 1.32521,-0.773 1.08331,0.9702 0.63105,0.397 1.04387,1.9931 1.59078,-0.639 6.62343,-2.3639 7.34125,-3.5234 l -0.87558,-1.199 0.19457,-0.8519 0.79671,-0.4391 c -0.62054,-0.8362 -1.26211,-1.6566 -1.92209,-2.4585 0.62843,-0.9913 0.31553,-0.681 1.39358,-1.2227 l -0.65735,-0.5522 c -2.44796,0.2314 -2.09825,0.5811 -3.91779,-0.37334 -1.15693,-1.75117 -2.78189,-3.39191 -2.56365,-5.02739 1.76695,-0.2419 3.13423,0.83352 4.80126,1.73803 0.98339,-0.19195 1.96416,-0.39178 2.94492,-0.59687 l 0.58898,1.73539 0.84404,0.28661 -0.35497,-1.5566 0.53639,-0.14199 1.55134,1.04124 c 1.94575,-0.7783 4.43842,-2.05093 6.41309,-1.84846 1.51978,1.84057 1.22792,5.85298 0.70467,8.12748 -8.26154,4.5567 -14.74299,7.428 -23.48571,11.0145 -1.25685,-1.554 -0.48644,-1.1701 -2.28231,-1.3936 -1.47509,0.6968 -2.56891,1.4751 -4.10448,1.2043 l 0.0763,-0.4234 0.91765,-0.305 0.23928,-0.5522 c -2.96595,-3.3366 -2.77138,-2.7845 -6.96789,-3.8993 5.09839,-2.0142 10.37558,-4.5331 15.5581,-6.1528 z"
         id="path1053"
         style="stroke-width:0.262939" /><path
         fill="#4c7e77"
         d="m -329.41293,993.42575 c 2.40064,1.38569 4.54885,1.83531 4.10448,4.84597 l 0.29449,0.33919 -1.00968,0.823 c -2.86604,0.0342 -5.42707,-0.73623 -6.03182,-3.88887 0.9492,-1.47246 1.02546,-1.33836 2.64253,-2.11929 z"
         id="path1055"
         style="stroke-width:0.262939" /><path
         fill="#487472"
         d="m -402.226,934.92182 c 1.50402,-0.17091 12.00843,-3.54179 14.82976,-4.1781 15.83419,-3.597 32.19951,-4.20702 48.2572,-1.7985 -3.30252,0.89399 -7.07306,4.03611 -10.62537,2.96595 -0.72308,-1.45405 -0.56269,-0.66523 -0.19457,-2.48214 l -1.72751,-0.38915 c -1.88001,1.56974 0.92554,2.43481 -3.58386,4.12288 -2.07196,-0.43385 -2.64254,-0.93869 -4.50151,-2.06144 -4.01508,0.0789 -10.20993,0.56269 -13.85163,2.04829 l -5.39288,2.14296 -0.0394,-2.96858 -0.83352,-0.76779 -1.19111,0.0947 c -0.92029,1.52242 -1.13327,1.98519 -1.11223,3.78106 l 0.34445,0.44963 c -8.06697,5.36921 -10.20467,10.5123 -13.01811,19.52848 l -0.32079,-0.59424 c -0.42596,1.2437 -0.62579,1.61707 -1.18059,2.81082 -1.70385,-0.94396 -3.56809,-10.72266 -6.80487,-13.18377 l 0.19721,-1.34887 -0.60213,-0.18932 c -7.57265,6.26847 -8.66384,18.05339 -8.09852,27.19841 -4.25699,-3.36825 -7.21768,-5.68737 -8.52186,-11.23538 -0.5285,-2.45322 -0.4391,-3.49446 -0.43122,-6.05023 l -0.67838,-0.30764 -1.41461,0.65209 c -1.26211,-1.65126 -0.78356,-1.12275 -2.91862,-2.00359 -1.97993,0.11832 -1.95101,0.25505 -3.53127,1.3515 0.24453,1.34362 0.0421,0.69416 1.20426,1.89053 -1.69859,1.28315 -4.55674,-1.64862 -5.70578,-2.92914 -3.35773,1.4935 -4.67506,3.63908 -6.70232,4.84597 -2.33752,-0.05 0.44174,0.99917 -2.47162,2.72668 -1.65915,-0.41019 -2.12981,-1.08331 -3.37088,-2.25602 16.24963,-10.52545 26.06514,-15.02959 43.99232,-21.86601 z"
         id="path1057"
         style="stroke-width:0.262939" /><path
         fill="#4c7e77"
         d="m -420.6291,952.81745 c 0.28135,-1.02546 0.1788,-0.93869 0.0552,-1.95101 1.42513,-0.81248 0.87822,-0.54428 2.65306,-0.72308 l -0.22613,-0.68627 -0.50747,-0.16565 c -0.56532,-0.18669 -0.39178,-0.0526 -0.63632,-0.28135 l 0.77304,-1.56711 c 1.47509,0.40755 2.77401,0.4654 3.42873,2.01937 1.66703,3.97038 3.22889,8.86893 -0.76778,11.7113 l -1.15694,-0.33393 0.92555,0.38915 -0.97024,-0.73097 -0.0316,-1.63285 -1.00442,-0.61002 0.80722,-0.0736 c -1.22267,-0.42333 -1.30944,-0.0158 -2.91074,0.68627 -0.5285,-2.45322 -0.4391,-3.49446 -0.43122,-6.05023 z"
         id="path1059"
         style="stroke-width:0.262939" /><path
         fill="#4c7e77"
         d="m -339.13904,928.94522 c 1.77221,0.23664 4.49626,0.49695 6.12648,1.02809 -1.58815,3.99141 -22.93617,9.6893 -27.53235,28.19495 -2.01411,1.05701 -3.87046,-0.59161 -4.60669,-2.4427 -1.63811,-4.11763 -1.08593,-8.74273 0.34708,-12.84983 l -4.43841,-0.53377 -0.95447,0.23139 c -1.81165,3.05535 -4.49888,4.9564 -6.37364,9.08717 -1.52241,3.35773 -1.17796,7.13616 -2.62939,9.03721 -2.10351,-0.62579 -3.51812,-3.54179 -4.22017,-5.47439 -1.71699,-5.37447 0.70205,-13.70701 2.47952,-18.94475 l -0.90714,-0.39704 -0.34445,-0.44963 c -0.021,-1.79587 0.19194,-2.25864 1.11223,-3.78106 l 1.19111,-0.0947 0.83352,0.76779 0.0394,2.96858 5.39288,-2.14296 c 3.6417,-1.4856 9.83655,-1.96941 13.85163,-2.04829 1.85897,1.12275 2.42955,1.62759 4.50151,2.06144 4.5094,-1.68807 1.70385,-2.55314 3.58386,-4.12288 l 1.72751,0.38915 c -0.36812,1.81691 -0.52851,1.02809 0.19457,2.48214 3.55231,1.07016 7.32285,-2.07196 10.62537,-2.96595 z"
         id="path1061"
         style="stroke-width:0.262939" /><path
         fill="#487472"
         d="m -380.94108,936.27859 c 0.91765,2.46374 0.98339,3.29988 0.23401,5.86617 -0.81248,2.78978 -1.67229,11.07499 -2.71353,13.07858 -1.71699,-5.37447 0.70205,-13.70701 2.47952,-18.94475 z"
         id="path1063"
         style="stroke-width:0.262939" /><path
         fill="#487472"
         d="m -370.1974,942.57335 c -0.57583,-1.08857 -0.41018,-0.64946 -0.51273,-1.92735 2.19028,-2.8187 4.41212,-3.01065 7.38859,-1.71699 l 0.53114,0.33131 -2.01412,3.61541 -4.43841,-0.53377 z"
         id="path1065"
         style="stroke-width:0.262939" /><path
         fill="#bbc2a5"
         d="m -363.32154,938.92901 0.53114,0.33131 -2.01412,3.61541 -4.43841,-0.53377 c 1.89316,-1.18848 3.96512,-2.31123 5.92139,-3.41295 z"
         id="path1067"
         style="stroke-width:0.262939" /><path
         fill="#4c7e77"
         d="m -440.37582,956.31717 c 2.02726,-1.20689 3.34459,-3.35247 6.70232,-4.84597 1.14904,1.28052 4.00719,4.21229 5.70578,2.92914 -1.16219,-1.19637 -0.95973,-0.54691 -1.20426,-1.89053 1.58026,-1.09645 1.55134,-1.23318 3.53127,-1.3515 2.13506,0.88084 1.65651,0.35233 2.91862,2.00359 -5.12205,5.89772 -8.13533,10.09423 -8.05645,18.35051 -0.81774,0.86244 -1.23582,1.36992 -1.80376,2.41378 l -1.74855,0.28924 c -6.18958,-7.08358 -3.28148,-9.00566 -5.50068,-13.97784 0.0447,-0.23139 -0.47855,-3.48657 -0.54429,-3.92042 z"
         id="path1069"
         style="stroke-width:0.262939" /><path
         fill="#4c7e77"
         d="m -403.17258,944.44284 c 3.23678,2.46111 5.10102,12.23981 6.80487,13.18377 0.5548,-1.19375 0.75463,-1.56712 1.18059,-2.81082 l 0.32079,0.59424 c -0.21035,3.47079 0.22087,5.63741 0.72834,9.06877 -6.7549,-4.41475 -10.68584,-11.88485 -9.03459,-20.03596 z"
         id="path1071"
         style="stroke-width:0.262939" /><path
         fill="#487472"
         d="m -434.33085,974.21543 1.74855,-0.28924 c 0.56794,-1.04386 0.98602,-1.55134 1.80376,-2.41378 0.39967,2.0036 1.05701,3.50761 0.44699,5.18253 -1.63022,-0.17617 -2.67409,-1.37517 -3.9993,-2.47951 z"
         id="path1073"
         style="stroke-width:0.262939" /><path
         fill="#4c7e77"
         d="m -390.97747,975.29085 c 12.63685,-0.894 22.40767,1.45668 33.98487,6.18695 -1.31732,1.76958 -3.48131,5.05106 -4.20439,6.92844 -2.98173,7.75408 0.56794,14.02776 -10.93038,12.71306 -3.597,-0.4101 -8.25102,-0.7073 -12.23455,-1.34094 -0.36023,-0.0579 -0.71782,-0.12096 -1.07805,-0.19195 -10.47023,-2.09299 -27.92938,-7.74618 -34.14789,-17.00426 8.01175,-3.90202 19.71517,-6.51826 28.61039,-7.2913 z"
         id="path1075"
         style="stroke-width:0.262939" /><path
         fill="#bbc2a5"
         d="m -397.01192,989.92866 c 5.04317,-0.96236 20.84318,0.36812 25.88898,3.39191 -5.56116,0.36549 -20.89839,-1.10171 -25.88898,-3.39191 z"
         id="path1077"
         style="stroke-width:0.262939" /><path
         fill="#bbc2a5"
         d="m -393.95656,983.13695 c 8.09589,-0.91766 14.8245,-0.4654 22.61538,1.70121 -3.32618,0.38389 -6.6655,0.15251 -10.01798,0.0342 -2.9791,-0.17616 -17.89563,0.16566 -19.01837,-0.376 2.0851,-0.87558 4.15969,-1.00968 6.42097,-1.35939 z"
         id="path1079"
         style="stroke-width:0.262939" /><path
         fill="#f6e1bb"
         d="m -319.70785,941.57944 c 4.61984,-0.31553 5.38236,-0.12621 9.46843,2.06933 4.09396,6.06074 3.09217,11.85066 -4.14917,14.50634 -6.39205,0.32342 -13.28631,-1.55923 -11.6929,-10.45708 0.53639,-2.98436 3.72322,-4.86963 6.37364,-6.11859 z"
         id="path1081"
         style="stroke-width:0.262939" /><path
         fill="#487472"
         d="m -319.26348,944.23775 c 3.06061,-1.22792 6.53666,0.27872 7.73829,3.34984 1.20163,3.07376 -0.3313,6.53667 -3.41558,7.71201 -3.04483,1.16219 -6.46041,-0.34971 -7.64889,-3.38666 -1.18586,-3.03694 0.29712,-6.46304 3.32618,-7.67519 z"
         id="path1083"
         style="stroke-width:0.262939" /><path
         fill="#4c7e77"
         d="m -319.03473,946.14406 c 2.22184,-0.27346 1.32522,-0.56006 2.91863,0.34708 0.8677,2.34279 1.29892,5.27193 0.70467,7.70411 -3.51023,-0.18669 -5.38236,-0.92291 -6.01867,-4.61195 0.84403,-2.47425 0.37337,-1.59341 2.39537,-3.43924 z"
         id="path1085"
         style="stroke-width:0.262939" /><path
         fill="#487472"
         d="m -587.64795,728.74557 c 6.46304,-8.4435 13.56765,-10.58645 23.54882,-12.91294 41.79678,-9.74162 72.94191,15.79422 80.85374,57.08275 13.39674,-33.57626 37.32419,-48.66449 73.07338,-49.10281 15.03222,-0.18432 25.00813,3.63908 35.59931,14.08617 -16.21545,-2.06802 -27.06168,0.78356 -42.32003,4.79995 9.1529,2.13086 11.65345,3.1884 19.59421,8.43245 -26.5174,3.49867 -42.61715,9.00409 -64.08349,25.78801 -0.94658,1.01494 -3.15001,3.6233 -4.2044,4.11762 l -1.21477,2.04567 0.25768,0.65998 c 2.30071,-0.90977 3.85731,-2.18766 6.00815,-3.29989 35.04977,-18.12675 83.48313,-3.87572 97.5977,34.4976 3.58912,9.75766 4.37793,15.9604 4.36479,26.35963 -8.53237,-11.16965 -15.44767,-18.65026 -25.20271,-28.86281 3.0501,8.18266 3.67063,16.01824 3.53653,24.63738 -8.92678,-11.83488 -21.45845,-30.17225 -34.75001,-36.13833 7.22293,8.07748 8.52448,12.47908 10.43341,22.97824 -17.48544,-16.15235 -31.01365,-22.93617 -54.82015,-22.97036 18.25323,6.97315 37.04811,21.10612 45.11508,39.37512 4.95377,11.22487 7.09672,27.71377 5.62689,39.83 -0.1525,10.33613 -5.22723,24.06418 -12.77883,31.31603 -1.3147,1.24896 -2.70565,2.41904 -4.16233,3.49972 -0.72571,-7.07306 -1.34625,-14.1803 -2.54525,-21.18236 -1.97467,-13.5624 -6.00027,-25.17378 -10.79101,-37.83955 -0.67576,11.87695 -3.668,19.93866 -8.30099,30.59032 -0.4654,-15.87363 -4.07818,-39.61702 -10.55437,-53.95245 l 0.32078,2.57943 c 1.13327,8.81108 -0.41281,16.80706 -3.45764,25.03442 -4.18073,-15.83156 -9.99694,-29.23093 -22.51547,-39.95095 -1.65652,8.04067 -3.29988,16.39424 -5.21934,24.37707 -0.52325,2.17188 -2.66883,4.92748 -3.15527,7.00996 -1.06753,4.57251 -1.45405,9.56309 -2.58469,14.11193 -0.6442,2.59521 -2.91862,6.35261 -3.46027,8.95045 -1.05176,5.04317 -0.83615,10.71476 -1.7801,15.75793 -0.74149,3.96775 -2.8266,8.25891 -3.9362,12.2661 -0.47855,1.72751 0.23928,5.51909 -0.23401,7.79615 -1.45669,7.03098 -2.86078,14.5747 -4.16233,21.68195 0.30238,0.60213 0.60476,1.20163 0.90714,1.80376 -1.04124,8.38775 -2.10088,19.30761 -2.14558,27.57178 -0.0473,8.72958 0.41807,16.88857 0.72571,25.22111 -3.39191,6.68917 -8.52711,11.77178 -14.57734,15.963 -4.76708,3.3025 -14.20659,7.3439 -14.10405,-2.1298 0.0973,-8.92413 0.75201,-18.2348 1.6276,-27.10373 1.77746,-19.92289 4.78812,-39.71168 9.0188,-59.25856 1.22004,-5.51121 2.77401,-9.68142 4.18599,-14.97175 1.8695,-7.0047 2.53474,-19.915 7.47273,-25.17115 0.89662,-11.21435 12.35287,-42.65922 17.26983,-53.63693 0.33394,-1.46457 0.48118,-0.7967 -0.2866,-2.07459 -15.28201,10.2073 -23.53567,21.76872 -33.26967,37.08755 -0.38389,-7.88817 -0.74675,-15.02434 -0.0237,-22.94143 -7.9355,12.92345 -18.14805,40.01143 -21.78186,55.0121 -1.00706,-4.83282 -4.16759,-25.38939 -4.115,-30.14596 l -0.6626,-1.4409 -0.99128,0.80722 c -2.08248,4.77234 -4.48574,9.97853 -6.28162,14.8245 -5.1983,14.16189 -9.39218,27.51131 -14.1803,41.70213 -7.42014,-17.12259 -8.94255,-37.71072 -4.69083,-55.81407 2.18502,-11.51672 7.29919,-22.27356 14.8508,-31.23715 13.89895,-16.21808 35.11024,-26.34386 56.33468,-27.96882 -19.47853,-4.29116 -35.31271,-1.20163 -53.4555,6.93896 5.90561,-8.60599 11.54565,-13.23898 19.50218,-19.77827 -21.72402,7.26237 -33.46424,15.30042 -51.04119,29.7831 2.01885,-9.71034 5.24169,-16.14183 10.65902,-24.33763 -18.38759,9.98642 -29.86645,18.27426 -42.84565,35.40999 2.6691,-14.01202 6.23429,-25.37361 14.51213,-37.02444 18.38338,-25.87294 51.67199,-35.59563 81.77061,-27.28834 12.12412,3.34564 20.61442,7.49666 30.89797,14.9118 -14.01202,-19.23241 -28.18181,-25.39044 -49.95841,-34.23255 8.35883,-4.21386 13.71489,-3.72059 22.74685,-2.43219 -21.36117,-10.3832 -33.59572,-12.89164 -57.7677,-11.49832 z"
         id="path1087"
         style="stroke-width:0.262939" /><path
         fill="#4c7e77"
         d="m -583.85374,857.49943 c 0.37337,3.63908 0.0999,5.51646 0.30501,8.82161 1.90368,-1.22267 0.823,-4.76183 2.59784,-6.08178 l 1.02809,0.48118 0.69153,-1.3147 0.0605,1.75643 2.65043,-1.3778 c -0.18406,-0.7967 -0.35234,-1.15167 -0.2419,-1.96678 l 0.83614,-0.12621 c 0.50747,1.44879 0.36286,1.03598 0.44174,2.63202 1.07542,0.70205 0.51273,0.62316 1.65389,0.52588 l 0.32867,-1.59604 c 1.47246,1.5303 1.1096,0.67049 1.46457,2.49003 -1.03598,0.95184 -1.0912,0.92817 -2.36382,1.56975 0.46803,1.3962 0.96761,2.58469 1.05438,4.05189 1.28052,0.6626 2.12455,1.12537 3.37088,1.89842 1.70122,-0.57321 1.70385,-0.894 3.08953,-2.20343 1.42513,1.65125 -1.09382,1.14641 1.90368,4.55147 -5.1983,14.16189 -9.39218,27.51131 -14.1803,41.70213 -7.42014,-17.12259 -8.94255,-37.71072 -4.69083,-55.81407 z"
         id="path1089"
         style="stroke-width:0.262939" /><path
         fill="#4c7e77"
         d="m -428.12023,893.78239 c 2.23761,-0.40756 1.51453,0.15776 2.63465,-1.21215 l -0.62054,-3.48131 0.41545,-0.59688 1.75643,1.36466 0.23927,-0.76515 c -1.02283,-3.35774 -3.96774,-1.77221 -3.25781,-5.98187 l 1.04913,0.78882 1.40409,-0.55743 0.33919,0.87559 c 0.46803,-1.7801 0.18406,-1.87739 1.31996,-2.98436 l 0.50747,0.48907 -0.5995,1.01757 0.60476,0.41544 c 1.97467,-1.28577 1.85635,-3.46816 3.63119,-5.39551 l 2.14032,0.15251 c 2.5584,-1.5119 0.21561,-3.73899 3.51812,-4.88278 2.96333,1.51979 3.77318,4.09396 4.40423,7.12039 -0.1525,10.33613 -5.22723,24.06418 -12.77883,31.31603 -1.3147,1.24896 -2.70565,2.41904 -4.16233,3.49972 -0.72571,-7.07306 -1.34625,-14.1803 -2.54525,-21.18236 z"
         id="path1091"
         style="stroke-width:0.262939" /><path
         fill="#4c7e77"
         d="m -497.85691,818.40829 -0.9571,-0.79144 0.22876,-1.1806 1.09383,-0.73886 c 2.70564,0.79671 -0.55218,1.58027 2.20342,1.66966 l -0.0841,-1.59866 c 3.14738,-0.67576 3.67852,1.98256 7.52795,0.35233 3.00539,2.68198 0.65472,9.93384 -0.37601,13.15747 -2.69512,0.27609 -0.96498,-1.37517 -2.91862,-0.49695 -2.58732,1.16219 -5.23248,3.11319 -5.75047,-0.92555 0.63368,-0.22613 1.27262,-0.43648 1.91682,-0.63368 l 0.35234,-1.43302 -0.46277,-0.0815 0.23927,1.31995 -0.63368,-1.15167 -0.55743,0.0841 c 0.89662,-1.63022 0.26294,-1.0465 1.98519,-1.80113 1.63022,0.24453 2.63202,0.52588 4.24909,0.16565 l 0.50221,-1.17008 -0.29712,-0.42596 -1.38831,0.0868 c -0.42334,-1.20426 -0.10255,-0.73097 -0.85456,-1.49612 l -2.59783,0.26031 c -0.0868,-1.21741 -0.11307,-0.74412 0.34445,-1.94575 l -0.78882,-0.18932 -1.33836,1.15168 -1.35151,-0.11307 c 0.33394,-1.46457 0.48118,-0.7967 -0.2866,-2.07459 z"
         id="path1093"
         style="stroke-width:0.262939" /><path
         fill="#4c7e77"
         d="m -558.70099,856.78687 c -1.92472,-2.26916 -2.96333,-3.9099 -0.13673,-6.44989 l 1.31732,-0.16303 c 2.52159,2.28757 1.1806,4.23595 0.47329,7.2466 l -0.6626,-1.4409 z"
         id="path1095"
         style="stroke-width:0.262939" /><path
         fill="#487472"
         d="m -465.58641,781.03677 -1.19111,-0.57583 -1.94838,1.73539 c 0.56795,-1.96678 2.0036,-4.31482 3.78369,-5.34818 1.17271,0.16566 1.51979,0.21036 2.67146,0.1341 l 0.88874,-0.0631 c -0.94658,1.01494 -3.15001,3.6233 -4.2044,4.11762 z"
         id="path1097"
         style="stroke-width:0.262939" /><path
         fill="#4c7e77"
         d="m -508.29033,891.01364 c 1.9589,0.35497 0.97813,-0.52588 2.58206,0.69942 l -1.03072,0.51273 c 1.6644,0.29975 1.64074,0.20509 3.03695,1.11223 -0.0657,1.49349 0.18142,0.85192 -0.92292,1.89842 -1.32258,-0.90188 -0.82037,-0.73623 -2.29546,-1.12275 l -0.45751,0.83878 c 1.05964,1.71436 0.34182,1.18848 2.11929,1.77483 l 0.32604,0.54955 c 0.91766,0.21824 0.55743,-0.005 1.1359,0.59161 -1.67229,3.36562 -5.49806,6.25795 -6.00816,10.75946 -0.17354,1.53294 -1.08331,-0.6626 -3.24729,-0.008 -0.53377,1.7801 -1.06228,3.52076 0.0237,5.14309 1.36465,0.12095 1.85109,0.15514 3.16841,0.48381 l 0.36812,1.05176 c -0.34708,2.01674 0.0237,1.96941 -1.18849,3.01854 l -0.47066,-0.80986 0.18669,0.823 -0.81774,-0.22087 0.71257,-0.67575 c -0.63369,-0.52588 -1.14642,-0.87296 -1.81691,-1.34625 -1.25948,0.48907 -1.5119,0.86244 -2.42167,1.86161 l -0.98076,-0.43385 0.64157,-0.5548 c -0.63106,-1.54608 -3.5339,-1.34625 -5.02214,-3.38665 1.16745,-0.92818 0.92029,-1.16745 1.48298,-2.86604 l -0.80197,-0.93343 c -0.60476,0.13673 -1.04912,0.5548 -1.54345,0.9124 l -1.12012,-0.34708 -0.22087,-0.52062 c 0.84404,-1.81691 0.43385,-1.20426 2.49792,-2.33753 l 0.0947,-0.50221 c -1.75117,-4.115 -0.73097,-2.62939 2.01674,-5.16939 2.79768,-2.58732 0.0999,-3.41031 0.45226,-6.29476 1.59078,-0.79144 1.76432,-0.75726 2.96595,-2.12717 -1.34625,-0.69416 -0.99917,-0.1788 -1.41198,-1.32784 l 0.53902,-0.46015 c 2.47426,0.52325 3.68904,0.9387 6.13174,0.0894 l 0.54166,0.21298 z"
         id="path1099"
         style="stroke-width:0.262939" /><path
         fill="#4c7e77"
         d="m -520.40393,924.90648 1.39621,1.6197 c 1.45931,0.15776 1.37254,0.11043 2.63727,0.83878 -0.13146,1.95889 -0.19194,2.5768 -0.63368,4.47259 -1.73802,-2.07459 -4.70924,-2.86604 -4.83545,-5.36659 z"
         id="path1101"
         style="stroke-width:0.262939" /><path
         fill="#4c7e77"
         d="m -463.01486,768.73806 0.49432,0.60608 -0.34708,1.11013 c 1.98256,0.68679 1.65389,-0.33735 3.41032,0.64288 -0.32867,1.40147 0.0105,0.77804 -1.34888,1.71936 -1.82742,0.2937 -2.85814,0.33183 -4.30431,-0.85376 0.36023,-1.77353 0.6889,-1.63285 2.09563,-3.22469 z"
         id="path1103"
         style="stroke-width:0.262939" /><path
         fill="#4c7e77"
         d="m -526.16755,835.06285 1.16745,1.23055 c 0.11569,1.81428 -1.22004,3.34985 -2.26917,4.9564 -0.91239,-1.51452 -0.87295,-1.43301 -1.24633,-3.16315 0.63631,-1.99045 0.52588,-1.42776 2.34805,-3.0238 z"
         id="path1105"
         style="stroke-width:0.262939" /><path
         fill="#4c7e77"
         d="m -505.94491,806.77061 c 0.54428,0.1788 1.08593,0.36549 1.62496,0.55743 l 0.0999,0.62843 c -1.50927,1.29366 -1.54609,1.44616 -3.43925,2.23761 -0.81248,-1.36465 -1.4225,-1.75906 -1.20163,-2.92914 l 2.15873,0.75726 z"
         id="path1107"
         style="stroke-width:0.262939" /><path
         fill="#4c7e77"
         d="m -521.61608,955.81759 c 1.55923,0.5101 2.47426,0.97024 3.92831,1.66703 l 0.19983,0.58372 -1.05438,0.0552 c -1.34625,0.98602 -1.24896,1.11223 -2.75297,1.60393 -0.74412,-1.2884 -0.38652,-2.12718 -0.32079,-3.9099 z"
         id="path1109"
         style="stroke-width:0.262939" /><path
         fill="#487472"
         d="m -523.6486,919.00613 c 2.81608,1.61707 2.91337,0.85981 5.33241,3.34984 l -1.05702,0.41018 -0.56795,0.78619 -0.0368,-0.81511 c -1.24896,-0.79933 -2.52684,-1.55134 -3.83102,-2.25602 -0.2235,-0.11832 -0.44437,-0.23664 -0.66786,-0.35496 z"
         id="path1111"
         style="stroke-width:0.262939" /><path
         fill="#4c7e77"
         d="m -509.41571,788.2413 1.01495,0.19984 c 0.20246,1.65388 0.78618,2.25864 1.63811,3.79421 l -0.67313,-0.0736 c -1.22792,-0.24453 -2.54525,-0.65209 -3.39454,-1.59604 l 0.29975,-1.06227 0.85455,-0.34445 z"
         id="path1113"
         style="stroke-width:0.262939" /><path
         fill="#487472"
         d="m -480.39776,770.71826 c 1.30944,0.7946 1.39621,1.06937 2.44796,2.19791 l -0.28134,0.90214 -2.27443,0.52588 -0.55217,0.51667 c 0.29712,-2.37749 -0.44173,-2.02778 0.65998,-4.1426 z"
         id="path1115"
         style="stroke-width:0.262939" /><path
         fill="#4c7e77"
         d="m -512.03195,778.73869 1.11223,-0.092 c 0.22613,1.17271 0.23665,0.72834 1.55923,1.85635 l -0.65209,1.88264 c -1.95101,-0.95184 -1.90894,-0.57321 -2.9791,-2.11929 0.63631,-1.11223 0.31027,-0.60739 0.95973,-1.52767 z"
         id="path1117"
         style="stroke-width:0.262939" /><path
         fill="#4c7e77"
         d="m -445.28489,850.16081 c 0.6442,1.26473 0.37601,0.89925 1.34099,1.96941 l -0.0841,-0.49433 0.8677,0.88611 -0.24979,1.23318 c -0.87822,0.64946 -0.47855,0.32868 -0.76252,1.96679 l 0.14198,0.78881 c -0.97287,-0.80985 -0.86244,-0.88084 -1.59341,-1.98519 0.27346,-0.57583 0.61791,-1.04386 0.99917,-1.55397 z"
         id="path1119"
         style="stroke-width:0.262939" /><path
         fill="#4c7e77"
         d="m -526.92219,831.40274 c 1.09646,0.24453 0.57584,0.0316 1.5566,0.65472 l -0.49432,0.79933 c -1.81954,0.81511 -1.19638,0.92555 -2.78716,0.75464 -0.49695,-0.53114 -0.15513,-0.23402 -1.14641,-0.72572 l 0.14462,0.45489 -0.50222,-0.2682 c 0.84667,-1.25159 1.41461,-1.05964 3.22889,-1.66966 z"
         id="path1121"
         style="stroke-width:0.262939" /><path
         fill="#4c7e77"
         d="m -498.10407,796.55017 c 1.1096,0.7152 1.54871,1.52242 2.31649,2.59521 l -1.35151,0.85455 -1.03598,0.36812 -0.74148,-0.75727 c 0.0578,-2.29282 -0.30764,-1.34098 0.81248,-3.06061 z"
         id="path1123"
         style="stroke-width:0.262939" /><path
         fill="#4c7e77"
         d="m -521.4478,933.92265 c 0.92292,0.74412 0.42333,0.43122 1.85372,0.56269 l 0.37338,0.5364 -1.37255,1.08068 c -2.22972,-0.13147 -1.48297,0.34445 -2.64516,-0.90977 l 0.54165,-0.96762 z"
         id="path1125"
         style="stroke-width:0.262939" /><path
         fill="#4c7e77"
         d="m -425.57498,778.94378 c 1.42776,0.21561 1.0202,0.13936 2.37171,0.73886 0.447,1.53293 0.19983,1.28051 -0.40755,3.09216 -2.94755,-0.98602 0.38389,0.14462 -1.96416,-3.83102 z"
         id="path1127"
         style="stroke-width:0.262939" /><path
         fill="url(#gradient_0)"
         d="m -404.9553,780.15593 c 0.7783,0.20246 0.31027,0.0316 1.32258,0.69153 -0.94658,0.5995 -1.79587,1.07542 -2.77401,1.6197 l -0.23664,0.66524 -0.85192,-0.65209 0.33919,-1.20689 z"
         id="path1129"
         style="fill:url(#linearGradient1229);stroke-width:0.262939" /><path
         fill="#ea651c"
         d="m -463.86679,1075.7362 c 2.94755,-0.9519 5.55065,-2.0194 8.30625,-3.1264 2.83711,-1.1411 10.7095,-6.066 13.22583,-3.9099 10.32035,8.84 -3.54705,26.8855 -10.84098,33.0646 -4.30168,5.1983 -11.77966,12.2424 -16.73343,17.1173 l -24.54273,24.3272 -44.02651,43.2245 c -8.97936,8.8216 -19.78616,19.9781 -29.12049,28.1686 19.5837,-2.8897 44.97046,1.7565 63.50766,8.1328 9.91806,3.4103 21.87389,8.0722 31.83665,10.5491 12.92871,3.2157 29.09157,4.2964 42.32792,2.5242 5.65319,-0.7573 12.86035,-5.7847 17.15414,-4.8486 3.81262,4.1176 -2.10877,9.8155 -5.18516,12.5001 -14.02253,12.2293 -38.92549,16.8623 -56.86318,12.1478 -8.63492,-0.539 -30.83749,-7.62 -39.12533,-10.9488 -1.74591,-0.3155 -11.09076,-3.7285 -13.28893,-4.5252 -10.68059,-3.8757 -21.48475,-6.1343 -32.90419,-6.2842 -8.44297,-0.1341 -16.83336,1.3436 -24.72153,4.3543 -5.95872,2.2902 -11.72103,5.2719 -17.26615,8.5008 -3.95828,2.3033 -8.34963,6.7128 -13.28999,6.3894 -4.02691,-0.2629 -6.49643,-3.1711 -8.84921,-6.1002 -0.20483,-4.2491 -0.67128,-10.5228 1.90105,-13.9594 14.11904,-18.8606 36.48673,-37.1612 53.67768,-53.0716 l 66.17386,-62.0589 c 2.89233,-2.7214 18.269,-16.5546 19.01575,-18.39 -16.7387,3.739 -38.84398,0.2551 -55.66945,-2.2402 -10.57803,-0.8309 -18.12701,-0.8046 -27.90834,4.1045 l -4.19651,3.4629 -0.50221,0.6048 c -5.66634,6.9179 -8.25629,15.821 -0.33919,21.7713 2.86866,2.1561 10.56489,3.7469 11.4878,6.4867 -0.93869,2.2902 -4.00982,3.4761 -6.28161,4.3595 -10.58067,4.1203 -20.82477,-1.4014 -26.96177,-9.8418 -0.75779,-1.1516 -0.91108,-1.788 -1.38384,-3.0816 -6.21404,-11.4379 -0.53745,-27.4535 9.42978,-34.9814 26.65675,-20.128 63.3867,-9.9207 94.1085,-9.9207 9.1345,0 18.96841,-2.448 27.84786,-4.5015 z"
         id="path1131"
         style="stroke-width:0.262939" /><path
         fill="#ee641d"
         d="m -539.16726,1097.2735 -0.0131,-0.8835 c 2.26916,-1.0964 7.18612,0.6048 9.63145,1.0755 12.05838,2.3164 24.43229,0.7283 36.65107,1.5566 2.96595,0.2024 6.03445,-0.8046 9.0451,-0.5049 l 0.35497,0.9965 c -16.7387,3.739 -38.84398,0.2551 -55.66945,-2.2402 z"
         id="path1133"
         style="stroke-width:0.262939" /><path
         fill="#ee641d"
         d="m -571.24056,1184.3878 c 1.45406,0.5496 2.66358,0.9177 4.13866,1.3594 l 0.0552,0.9019 -0.99917,0.7047 c -0.73623,0.326 -1.71699,0.915 -2.44533,1.3199 l -0.69153,-0.3733 c 0.0447,-1.3936 -0.071,-2.519 -0.0578,-3.9126 z"
         id="path1135"
         style="stroke-width:0.262939" /><path
         fill="#ee641d"
         d="m -493.56575,1119.3499 c 1.89579,1.3594 2.31124,0.6862 3.02643,3.3893 -0.99391,0.3023 -1.33836,-0.1788 -2.60309,-0.781 -0.82037,0.2051 -0.42071,0.071 -1.3778,0.5049 l -0.75727,0.3523 -0.6442,-0.355 c 0.94395,-1.4435 1.1543,-1.8064 2.35593,-3.1105 z"
         id="path1137"
         style="stroke-width:0.262939" /><path
         fill="#ee641d"
         d="m -489.67688,1115.603 c 1.78799,0.5679 1.07016,0.082 2.27442,1.4435 -0.305,1.8038 0.0158,0.9335 -1.39094,2.5269 -0.27609,-0.1 -1.22267,-0.7731 -1.50927,-0.965 -0.36023,-1.4961 -0.11044,-1.2648 0.62579,-3.0054 z"
         id="path1139"
         style="stroke-width:0.262939" /><path
         fill="#ea651c"
         d="m -325.75019,1248.2689 c -12.03734,3.547 -56.44774,6.9494 -68.25633,3.1158 -2.28494,-0.7415 -4.06241,-1.6145 -5.17727,-3.8205 -0.0394,-2.2192 -0.34445,-1.2832 0.59161,-3.008 5.50857,-2.8293 42.42784,-8.7244 50.30286,-10.1179 52.29331,-9.2581 104.1738,-18.6634 157.18756,-22.831 23.4489,-1.8406 47.52623,-3.3394 71.03823,-1.3174 19.72306,1.6986 45.438493,4.8434 58.677472,21.0509 2.050924,2.5111 4.243835,5.5375 3.936197,8.911 -2.71879,2.4585 -10.159963,-1.688 -13.249497,-2.9107 -24.994981,-9.8733 -52.033002,-10.9961 -78.560912,-11.4484 -37.87899,-0.6415 -75.13745,4.7777 -112.39328,10.9331 -16.46524,2.7266 -32.82267,6.718 -49.34839,9.0477 -4.89855,0.9098 -9.81551,1.7091 -14.74825,2.3954 z"
         id="path1141"
         style="stroke-width:0.262939" /><path
         fill="#ee641d"
         d="m -325.75019,1248.2689 -1.00442,-0.4733 c -0.42334,-1.3647 -0.51011,-1.228 -1.43565,-2.3612 l 0.18406,-0.8493 c 1.74854,-0.8598 3.2657,-0.6363 5.24826,-0.6258 l -0.30501,0.1341 c 3.28937,0.2051 6.0476,0.3471 9.35274,0.092 1.61182,-0.1262 1.94575,0.7047 2.70827,1.6881 -4.89855,0.9098 -9.81551,1.7091 -14.74825,2.3954 z"
         id="path1143"
         style="stroke-width:0.262939" /><path
         fill="#ee641d"
         d="m -355.11784,1241.5613 0.99916,-0.5574 0.34445,0.2497 -0.49958,0.4076 c 1.90105,1.7223 2.96595,3.1684 2.71616,5.8662 l -0.74412,0.5048 -2.00096,-0.7941 c -0.61791,0.1788 -0.25243,0.037 -1.10435,0.6285 l -0.74149,0.5258 -0.83351,-0.2445 c 0.43911,-1.9878 0.90188,-3.9704 1.39357,-5.945 l -0.40229,-0.4102 z"
         id="path1145"
         style="stroke-width:0.262939" /><path
         fill="#a8c2a6"
         d="m -293.09579,1021.6023 c 11.12758,-3.313 25.42883,-5.8373 36.91926,-3.4892 13.27053,2.7135 24.73993,6.7286 38.69411,6.3657 19.23135,-0.5022 35.4731,-12.1425 54.40207,-13.7517 20.30678,-1.9168 38.4075,11.2249 56.19533,12.7789 12.802497,1.1175 36.5827,-7.244 51.533412,-8.4036 22.978239,-1.7827 38.120896,6.3001 60.2708774,9.9891 8.7322046,1.4567 18.6555216,0.8335 27.0721996,3.0475 -9.768184,4.7355 -19.347052,6.037 -30.0959981,6.8153 -14.6404439,1.0597 -28.9416959,-2.7319 -43.5085159,-3.1132 -11.148614,-0.2945 -22.339298,0.5943 -33.464247,1.3042 -10.554371,0.6758 -20.806363,0.263 -31.284478,-1.1674 -7.85136,-1.0544 -15.64487,-2.4953 -23.35425,-4.3149 -8.09852,-1.9589 -18.38732,-5.9135 -26.57524,-5.6216 -8.07749,0.2866 -17.95611,4.165 -25.64444,6.8022 -18.76596,6.4368 -36.45912,12.4739 -56.53189,8.209 -10.13629,-2.1535 -20.42247,-5.8162 -30.80593,-5.8294 -19.69676,0.024 -41.24198,13.3284 -60.84145,6.6971 -1.20164,-0.4181 -2.39012,-0.8677 -3.56546,-1.3541 11.15387,-4.491 23.28588,-8.5745 34.76054,-13.0734 z"
         id="path1147"
         style="stroke-width:0.262939" /><path
         fill="url(#gradient_1)"
         d="m -168.72828,1357.1361 c -20.56971,9.3633 -29.50175,-3.4603 -49.38257,-1.6723 -14.601,1.3147 -28.91277,11.6377 -43.50852,12.2924 -16.72292,0.752 -31.9392,-10.4018 -48.34396,-11.8007 -17.41708,-1.4908 -34.73161,9.3317 -52.24861,11.1118 -19.98862,2.0299 -30.43519,-10.9566 -49.61922,-11.7349 -21.68721,-0.8783 -37.16905,13.7964 -57.75981,4.42 -3.28674,-1.4988 -12.04786,-4.2518 -13.54136,-7.6253 l 0.48381,-0.8782 c 2.31124,-0.213 6.8706,0.8151 9.37115,1.2095 5.20882,0.823 11.90851,1.1254 17.08052,0.037 16.07609,-3.6837 28.77604,-10.223 45.8066,-9.1292 16.06031,1.0307 29.3808,11.8007 44.53924,11.9085 16.92012,0.1157 32.00493,-11.2564 49.58503,-11.6587 18.77385,-0.4286 33.2276,9.3238 51.30729,11.4089 15.84733,1.696 29.85672,-9.0214 44.12379,-9.7314 14.78243,-0.7362 27.28518,6.9469 43.22717,8.0907 3.11057,-0.1446 12.08994,-1.1832 14.03832,0.5337 -0.8046,1.7092 -3.39454,2.5216 -5.15887,3.2184 z"
         id="path1149"
         style="fill:url(#linearGradient1231);stroke-width:0.262939" /><path
         fill="#4c7e77"
         d="m -177.60773,1353.384 c 3.11057,-0.1446 12.08994,-1.1832 14.03832,0.5337 -0.8046,1.7092 -3.39454,2.5216 -5.15887,3.2184 0.45226,-1.8721 0.66787,-1.1464 -0.0184,-2.4479 -2.16925,-0.8783 -4.48311,-0.2656 -8.15374,-1.1307 z"
         id="path1151"
         style="stroke-width:0.262939" /><path
         fill="#a8c2a6"
         d="m -55.162292,983.66808 c 7.044136,-0.65997 14.140859,-0.54691 21.161331,0.3392 19.657319,2.46899 39.6959005,9.83391 59.960609,11.14861 3.736363,0.2419 11.006627,0.38126 13.864774,2.1745 l 0.165651,0.80723 c -1.977301,2.47158 -6.294759,3.87568 -9.213382,5.03788 -21.6688033,8.6349 -45.943332,2.0457 -68.053872,-1.8274 -6.484076,-0.8703 -17.480185,-2.06144 -23.772315,-0.9965 -24.519062,4.1518 -42.937934,14.6141 -68.937344,8.0485 17.21987,-5.1694 30.487774,-12.82614 47.008231,-19.05779 8.064339,-3.04221 19.210323,-4.56725 27.816317,-5.67423 z"
         id="path1153"
         style="stroke-width:0.262939" /><path
         fill="#4c7e77"
         d="m -424.17877,1384.1636 c 4.04663,-2.3112 6.85219,-3.7285 10.9146,-5.5427 20.71433,-9.2502 31.92868,6.8837 49.38257,6.7338 15.20839,-0.1314 30.96895,-9.826 48.29926,-10.4728 16.12868,-0.5995 28.074,9.1581 41.77049,10.0127 16.60723,1.036 33.30123,-10.0285 51.33621,-2.3323 1.40936,0.3971 2.23761,0.284 2.94755,1.7354 -3.66274,0.9703 -11.95584,0.4523 -16.47839,1.5224 -14.82187,3.5076 -30.84274,12.6185 -46.62697,8.9636 -11.40104,-2.6425 -21.27965,-8.9977 -34.10582,-8.3378 -16.74395,0.8572 -33.03565,10.3467 -49.48249,9.0583 -11.92954,-0.9335 -22.42344,-7.9776 -33.38799,-10.6569 -5.34292,-1.3068 -18.34263,-0.7678 -24.56902,-0.6837 z"
         id="path1155"
         style="stroke-width:0.262939" /><path
         fill="#487472"
         d="m -222.47564,1382.5623 c 1.40936,0.3971 2.23761,0.284 2.94755,1.7354 -1.35151,-0.095 -1.79061,-0.061 -3.07113,-0.4522 z"
         id="path1157"
         style="stroke-width:0.262939" /><path
         fill="#487472"
         d="m -341.47394,1382.9725 c 1.14904,0.5969 1.92734,0.6127 2.51896,1.6854 -2.05882,1.4672 -1.70385,0.8073 -2.69513,2.8635 l -0.63894,0.2287 0.47855,-0.2682 -0.79408,-0.2945 -0.28397,-0.9387 0.52588,1.157 c -1.25422,-1.462 -0.96236,-0.7547 -0.96236,-2.59 z"
         id="path1159"
         style="stroke-width:0.262939" /><path
         fill="#f6e1bb"
         d="m -604.97379,912.23808 c 14.64229,-0.64158 17.26536,3.95723 27.92491,4.69609 11.09603,0.77041 28.70242,-0.1604 40.48472,-0.39967 -2.26653,3.65748 -2.01411,4.05189 -2.52684,8.27732 -2.93177,3.96512 -9.69982,5.18516 -14.25656,6.28424 -15.23205,3.67326 -27.66381,2.469 -42.78306,-0.43648 -9.52365,-1.40146 -18.42598,-0.45751 -27.96357,-0.0578 -7.91972,0.305 -15.84707,0.3497 -23.76968,0.13146 -4.39424,-0.13146 -15.72113,-0.0526 -17.97399,-4.12288 l 0.50537,-1.23844 c 7.209,-6.23954 49.0071,-12.48697 60.3587,-13.1338 z"
         id="path1161"
         style="stroke-width:0.262939" /><path
         fill="#a8c2a6"
         d="m -590.88946,946.34389 c 10.28565,-0.82037 37.18957,2.77401 46.39506,7.18613 0.12884,2.93702 0.72045,9.5999 -0.78619,11.87695 -4.13866,6.25795 -19.52848,-1.199 -25.45512,-1.71699 -17.13837,-1.49875 -31.48248,1.08857 -47.61195,6.02656 -13.78115,4.17021 -37.01181,7.84347 -48.33817,-3.26044 8.00228,-1.2437 19.78984,-2.39275 27.23732,-5.05632 17.83095,-6.37627 28.74002,-13.12066 48.55905,-15.05589 z"
         id="path1163"
         style="stroke-width:0.262939" /><path
         fill="#a8c2a6"
         d="m -586.80129,977.37595 c 12.14516,-0.99391 25.82587,2.2902 37.04548,6.78646 4.02297,1.61444 2.09562,10.11526 0.18406,13.03126 -2.66095,2.21394 -13.44407,-0.14199 -16.59145,-1.00443 -22.68112,-6.20799 -36.85327,2.23235 -59.04348,4.56196 -1.81875,0.1999 -3.6446,0.334 -5.4736,0.3971 -11.96978,0.3681 -30.64344,-2.41907 -39.82238,-11.1355 11.73339,-1.74065 22.51389,1.199 36.95529,-1.22792 17.12495,-2.88181 30.50776,-10.14419 46.74608,-11.40893 z"
         id="path1165"
         style="stroke-width:0.262939" /><path
         fill="#a8c2a6"
         d="m -31.776497,956.88775 c 19.778271,-1.64863 31.58160289,4.70398 49.86901,9.25282 4.932736,1.2253 15.30568,2.08774 18.92372,3.70481 l -0.12884,0.72045 c -2.774006,1.63285 -4.74342,1.77221 -7.727777,2.65306 -12.860347,3.79158 -22.4418438,2.52947 -35.4099953,0.93606 -19.3233867,-2.26653 -50.7025277,-0.0894 -70.2809657,2.2902 7.980199,-8.50082 32.793752,-18.72389 44.754848,-19.5574 z"
         id="path1167"
         style="stroke-width:0.262939" /><path
         fill="#f6e1bb"
         d="m -393.58845,885.82322 c 15.65013,-0.89136 33.36433,6.88638 49.66392,8.14848 17.2041,1.3331 32.80164,-2.55576 49.74806,-0.31815 5.5112,0.72571 9.38955,2.89758 13.56502,6.35523 -4.88541,1.06491 -7.25186,1.36729 -12.23981,1.70385 -2.50318,0.4207 -18.43991,0.67312 -21.41375,0.74674 -30.45886,0.75201 -60.13941,-2.55576 -90.60352,-0.23664 2.13506,-8.83212 1.4672,-14.42746 11.28008,-16.39951 z"
         id="path1169"
         style="stroke-width:0.262939" /><path
         id="path1171"
         style="fill:#6c9e8c;fill-opacity:1;stroke-width:0.262939"
         d="m -242.00781,1277.0566 c -3.17287,0.02 -6.24693,0.2263 -8.72266,0.1934 -0.0868,15.5265 0.14853,31.2925 -0.0644,46.7559 8.42456,-0.016 19.25861,1.4588 25.2168,-4.4258 0.33393,-0.3313 0.659,-0.668 0.98242,-1.0098 6.84955,-13.9674 -1.05942,-12.337 -2.19532,-18.7422 2.2455,-5.5191 4.32808,-9.6497 1.82227,-15.6894 -2.60309,-6.2728 -10.05876,-7.1266 -17.03906,-7.0821 z m 97.97656,0.057 c -2.65179,0.015 -5.35191,0.1189 -7.96289,0.1465 0.0108,15.4582 0.21238,31.3357 -0.006,46.7597 l 9.13086,-0.1679 c -0.0789,-4.3911 -0.74059,-11.8429 1.26562,-15.4688 l 0.9336,-0.3867 c 3.08164,1.4829 7.62465,12.2795 9.42578,15.9922 l 10.11133,-0.1367 -8.7461,-17.7422 c 3.58912,-2.9081 5.81787,-5.8755 6.27539,-10.5742 1.63433,-16.8646 -8.93665,-18.486 -20.42773,-18.4219 z m -40.67773,0.1191 -9.92969,0.012 -11.15821,46.668 9.68165,-0.039 1.42773,-7.9726 9.99414,-0.053 1.53516,8.0839 9.57422,-0.1054 c -3.64696,-15.2978 -7.21248,-31.4327 -11.125,-46.5938 z m 42.78515,8.7207 c 8.3972,0.037 11.45596,3.7442 7.15625,12.1934 -3.30777,1.0938 -4.61191,0.9213 -8.08008,0.9765 -0.16039,-4.086 0.0352,-9.013 0.0957,-13.1621 0.28192,-0.01 0.55724,-0.01 0.82812,-0.01 z m -98.19922,0.051 c 6.43279,0 8.48337,1.9595 5.78907,9.1895 -8.85052,4.0255 -7.42994,-3.3452 -7.13282,-9.1641 0.46771,-0.017 0.9149,-0.025 1.34375,-0.025 z m 50.42578,3.3672 c 0.7336,2.4348 2.80996,14.9013 2.59961,17.3125 l -1.19531,0.793 c -1.73276,-0.2472 -3.36135,-0.2128 -4.24219,-1.375 0.83614,-5.477 1.702,-11.3219 2.83789,-16.7305 z m -50.56445,15.3301 c 6.27294,0.01 11.04514,1.5836 7.10352,9.4101 -2.98173,1.1569 -5.2751,0.9333 -8.42774,0.8965 l 0.0527,-10.289 c 0.42941,-0.012 0.85329,-0.018 1.27148,-0.018 z" /><path
         id="path1177"
         style="fill:#6c9e8c;fill-opacity:1;stroke-width:0.262939"
         d="m -519.68555,1277.1367 c -0.40236,-8e-4 -0.80218,0 -1.19922,0.014 -3.33931,0.079 -6.74984,0.068 -10.09179,0.123 l -0.0137,46.7637 c 7.74354,0.053 19.1563,1.3598 24.7832,-4.041 0.45751,-0.4417 0.8963,-0.8965 1.32226,-1.3672 1.6197,-3.0738 3.42346,-7.6357 2.44532,-10.9961 -1.5303,-5.5664 -7.10832,-5.4253 -2.875,-11.6465 1.67492,-2.4585 1.33014,-8.3288 0.37304,-11.1054 -2.23086,-6.4634 -8.70866,-7.7323 -14.74414,-7.7442 z m -0.67187,8.8516 c 6.45242,0.054 8.4534,2.0585 5.82812,9.1972 -8.83474,4.3805 -7.4058,-3.7834 -7.17968,-9.1816 0.46967,-0.013 0.9214,-0.019 1.35156,-0.016 z m -0.18164,18.6933 c 6.03806,-0.016 10.28924,0.9447 7.67383,8.7071 -3.10794,2.0641 -5.23862,1.6475 -8.93555,1.6054 l 0.0312,-10.2988 c 0.41692,-0.01 0.82793,-0.013 1.23047,-0.014 z" /><path
         fill="#f6e1bb"
         d="m -391.3114,855.86132 c 21.04827,-2.74245 36.73521,6.4236 56.20058,10.44394 8.42457,1.74066 20.23842,1.17271 29.27037,2.47426 l 0.84667,0.12358 c -4.95377,2.68461 -8.71906,3.94671 -14.06461,5.59271 -20.64334,4.74868 -28.37375,0.64683 -48.14676,-2.41641 -9.36852,-1.45142 -23.1623,0.17091 -32.45456,2.03778 0.12095,-5.85565 0.26557,-10.52545 -0.23402,-16.37584 3.40506,-1.02546 5.06684,-1.32521 8.58233,-1.88002 z"
         id="path1183"
         style="stroke-width:0.262939" /><path
         fill="#f6e1bb"
         d="m -26.438836,920.59954 c 13.985726,-1.92472 50.184538,2.68197 63.376187,8.04067 -7.964422,5.6453 -11.995277,6.89952 -21.650397,7.79088 -13.7937797,0.34182 -26.977541,0.47066 -40.994819,-1.01231 -5.60323,-0.59162 -28.468406,3.64433 -19.799307,-9.88388 2.616243,-4.08607 14.017278,-4.49363 19.068336,-4.93536 z"
         id="path1189"
         style="stroke-width:0.262939" /><path
         fill="#f6e1bb"
         d="m -60.697158,805.95813 c 7.470097,-1.28314 24.074695,4.20177 32.433526,4.73816 5.179898,0.33393 19.1393294,2.73983 19.5048147,9.30278 -2.8555177,5.92402 -12.0478647,4.73028 -17.7773057,4.76446 -9.2239,0.30764 -18.10598,1.58026 -27.385097,2.09299 -6.970513,0.38389 -13.801668,-7.8908 -18.821174,-12.11623 -1.348877,-1.13589 -4.417375,-4.23857 -4.430522,-6.12385 2.324381,-1.78535 13.039145,-2.32701 16.475758,-2.65831 z"
         id="path1191"
         style="stroke-width:0.262939" /><path
         fill="#487472"
         d="m -334.4561,1277.3105 9.22127,-0.055 c -0.20772,6.3131 -0.11569,12.6394 -0.0789,18.9552 l 10.30721,-0.045 0.071,-18.829 9.23705,-0.058 c -0.96499,11.7245 -0.18406,33.5878 -0.10518,45.7646 l -0.31815,0.4654 c -2.00097,0.6626 -6.55507,0.4522 -8.87156,0.4522 l 0.0184,-19.0894 -10.31509,0.1184 c -0.0184,6.3105 0.0158,12.621 0.0973,18.9316 l -9.28963,0.034 c 0.20772,-15.4187 0.0315,-31.2003 0.0263,-46.6453 z"
         id="path1193"
         style="fill:#6c9e8c;fill-opacity:1;stroke-width:0.262939" /><path
         fill="#f6e1bb"
         d="m -601.53639,877.97712 c 2.27574,-0.24453 1.9397,-0.53902 3.79342,0.22613 2.02542,2.86341 5.02924,14.79295 2.23814,15.95514 -13.49114,5.62689 -36.80068,5.15886 -51.00543,3.80999 -4.22675,-1.9142 -6.11333,-3.06324 -9.36142,-6.57348 15.42716,-8.89523 36.66632,-11.24327 54.33529,-13.41778 z"
         id="path1195"
         style="stroke-width:0.262939" /><path
         fill="#f6e1bb"
         d="m -43.558794,845.75132 c 3.933567,-0.48644 10.34665,0.60213 14.532639,1.03598 15.013816,1.56186 35.7071157,1.98256 48.488581,10.29406 -2.516327,1.85372 -4.498887,2.66883 -7.299187,3.99142 -14.8008364,5.41654 -34.739501,4.84333 -50.268678,3.38665 -2.174506,-3.40243 -5.774141,-11.97687 -6.704945,-16.02876 -0.268197,-1.17271 0.499584,-1.70385 1.25159,-2.67935 z"
         id="path1197"
         style="stroke-width:0.262939" /><path
         id="path1203"
         style="fill:#6c9e8c;fill-opacity:1;stroke-width:0.262939"
         d="m -425.92383,1277.1953 c -3.902,15.4161 -7.24687,31.4703 -11.23828,46.7129 l 9.72266,-0.012 1.41015,-7.959 10.05469,-0.059 1.39844,8.0508 9.6914,-0.074 c -3.71795,-15.3503 -7.25694,-31.4488 -11.21679,-46.6309 z m 4.83789,12.1758 c 0.79933,2.5926 2.87547,14.7644 2.62305,17.3281 l -1.24414,0.8379 c -1.73803,-0.2945 -3.06844,-0.1839 -4.14649,-1.1621 0.83615,-5.5217 1.65798,-11.569 2.76758,-17.0039 z" /><path
         fill="#f6e1bb"
         d="m -30.467061,884.7925 c 0.709935,-0.071 1.4225,-0.12621 2.132435,-0.16302 11.303748,-0.63631 45.538406,1.34625 53.597486,8.64281 1.199002,4.27012 -6.399935,5.45072 -9.431622,5.95819 -7.4201386,0.44174 -16.79391399,0 -24.4743622,0.24191 -6.6576158,0.21035 -18.3215898,1.02546 -24.4454388,0.29975 -8.687505,-5.44021 -7.75933,-12.53168 2.621502,-14.97964 z"
         id="path1207"
         style="stroke-width:0.262939" /><path
         fill="#f6e1bb"
         d="m -485.27265,895.83594 c 12.14515,-0.49695 27.4745,-1.12538 39.21735,2.25339 2.74246,0.78881 12.52905,8.91889 10.84624,12.66314 -1.87739,0.58372 -7.56213,0.11569 -9.87862,0.008 -8.56918,-0.56532 -17.45652,-0.23665 -26.0257,-0.27346 -6.18959,-0.0263 -17.10419,2.08774 -22.52073,0.47855 -1.49349,-2.31123 -0.58898,-7.09672 -0.25505,-9.89702 2.6662,-2.21132 5.31663,-4.13078 8.61651,-5.23249 z"
         id="path1209"
         style="stroke-width:0.262939" /><path
         fill="#487472"
         d="m -374.67525,1276.4638 c 12.19511,-1.128 16.81758,2.987 18.32685,14.8008 l -8.99514,0.1341 c -2.65832,-11.1801 -11.08551,-6.037 -10.68847,2.6031 0.27345,5.9688 -1.50138,16.6414 2.73982,21.285 6.04234,2.7161 6.12122,-1.8406 8.59548,-5.3824 l 1.37517,-0.032 7.36492,-0.068 c -2.17713,11.7165 -8.84264,18.858 -22.40503,13.6491 -9.57098,-3.6759 -6.83379,-23.533 -6.92056,-31.9129 -0.0736,-7.2597 2.85026,-13.0023 10.60696,-15.0769 z"
         id="path1211"
         style="fill:#6c9e8c;fill-opacity:1;stroke-width:0.262939" /><path
         fill="#487472"
         d="m -480.9289,1277.3 23.36213,0.018 -0.0158,8.5297 -14.44587,0.1394 -0.0763,10.152 13.36781,0.1473 -0.0605,8.1458 -13.19165,0.2446 -0.0763,7.0809 c -0.0105,0.7993 0.0868,1.6434 0.14724,2.4506 2.2271,1.8721 11.70079,1.0228 15.06641,0.9702 l 0.005,8.5482 -24.19828,0.061 c 0.14987,-15.495 0.18932,-30.9927 0.11569,-46.4876 z"
         id="path1213"
         style="fill:#6c9e8c;fill-opacity:1;stroke-width:0.262939" /><path
         fill="#f6e1bb"
         d="m -79.05293,781.79404 c 6.894261,-0.14199 36.025273,-0.30501 38.239219,7.13879 -2.642537,5.85565 -17.892999,5.72155 -23.438382,5.86617 -7.167717,0.0342 -14.324917,-0.51799 -21.403235,-1.646 -4.86963,-0.752 -14.706182,-2.18765 -17.743122,-6.30527 0.0368,-5.65582 20.030691,-4.9827 24.34552,-5.05369 z"
         id="path1215"
         style="stroke-width:0.262939" /><path
         fill="#f6e1bb"
         d="m -541.12089,876.28117 c 6.21062,-0.62054 9.49735,0.81511 15.19787,2.85026 -9.16605,16.25488 -1.5303,20.08591 -25.20533,18.60293 -2.05093,-0.12884 -5.59534,-0.0237 -7.77511,-0.0368 -1.49349,-0.44174 -4.28853,-1.02546 -4.68031,-2.68461 -1.19112,-5.06157 3.75477,-13.13117 5.93716,-17.65372 1.1096,3.11057 1.90105,8.96885 5.08524,10.10737 3.3551,-1.77747 3.47868,-6.63921 10.8252,-10.83834 z"
         id="path1217"
         style="stroke-width:0.262939" /><path
         fill="#a8c2a6"
         d="m -617.96192,1016.2936 2.4001,-0.1525 c 3.18682,1.5723 2.73036,4.4278 4.80916,8.5428 l 0.29607,0.5759 c 1.4743,0.8992 3.77396,2.0299 4.5115,3.4261 l -0.55795,0.7572 c -8.03331,2.6689 -33.45557,2.5558 -42.20197,1.2516 -5.91087,-0.9413 -11.60377,-2.9396 -16.80733,-5.8977 5.80438,-0.6889 12.31002,-1.2174 17.96662,-2.4164 9.988,-2.114 19.37861,-4.9985 29.5838,-6.087 z"
         id="path1219"
         style="stroke-width:0.262939" /><path
         fill="#f6e1bb"
         d="m -600.79411,848.55951 c 2.90101,-0.20509 6.54087,0.0315 9.5013,0.13147 -1.48508,4.7776 -2.57207,11.40366 -3.2047,16.37321 -9.39954,-0.0684 -19.53426,-0.17091 -28.85124,-1.07542 -2.59548,-0.28135 -7.83743,-1.00969 -9.20024,-3.34984 0.43437,-7.51217 25.18956,-11.82174 31.75488,-12.07942 z"
         id="path1221"
         style="stroke-width:0.262939" /><path
         fill="#f6e1bb"
         d="m -482.04376,866.44988 c 6.23691,-0.54429 18.38207,0.35234 24.67683,1.35939 1.01757,3.34722 2.80293,10.20204 0.33393,12.95501 -1.65126,1.84583 -5.00899,1.31206 -7.25186,1.23581 -7.65152,-0.071 -12.8472,0.54428 -20.35674,1.12801 -1.59867,0.12358 -3.04483,-0.39441 -4.18336,-1.58815 -0.30238,-1.4935 -0.37863,-1.80639 0.2945,-3.30252 2.60572,-5.80832 -1.93523,-10.16522 6.4867,-11.78755 z"
         id="path1223"
         style="stroke-width:0.262939" /><path
         fill="#ee641d"
         d="m -310.33407,831.89443 c -1.56712,-0.14198 -2.32176,-0.092 -3.72848,-0.83088 1.13327,-1.03861 1.91946,-0.83352 3.74162,-1.1543 z"
         id="path1225"
         style="stroke-width:0.262939" /></g><g
       id="g4872"
       transform="matrix(1.1810688,0,0,1.2180167,-773.66493,-492.55451)"><path
         d="m -425.67892,368.98558 q 0,13.91192 -4.19941,24.85735 -4.19941,10.94542 -12.05637,16.98074 -7.78923,5.93304 -18.55869,5.93304 h -23.70636 v 50.73762 h -19.98107 v -144.1317 h 42.87464 q 17.1363,0 26.34792,11.96835 9.27934,11.86605 9.27934,33.6546 z m -20.11654,0.51146 q 0,-22.70919 -17.74589,-22.70919 h -20.6584 v 46.74819 h 21.20026 q 8.26335,0 12.73369,-6.1376 4.47034,-6.23993 4.47034,-17.9014 z"
         id="path3866"
         style="font-weight:bold;font-size:144.972px;font-family:'Liberation Sans';-inkscape-font-specification:'Liberation Sans, Bold';fill:#ea651c;stroke-width:14.206" /><path
         d="m -318.86485,375.00034 q 0,16.2755 -5.89272,28.63008 -5.89273,12.35459 -16.86538,18.93876 -10.97266,6.51021 -25.60287,6.51021 -22.48717,0 -35.28861,-14.42602 -12.73369,-14.49998 -12.73369,-39.65303 0,-25.07906 12.73369,-39.13517 12.73371,-14.05611 35.42407,-14.05611 22.69037,0 35.42407,14.20406 12.80144,14.20408 12.80144,38.98722 z m -20.38746,0 q 0,-16.86733 -7.31511,-26.41069 -7.31511,-9.61734 -20.52294,-9.61734 -13.41101,0 -20.72612,9.54335 -7.3151,9.46938 -7.3151,26.48468 0,17.16326 7.45056,27.07651 7.5183,9.83929 20.4552,9.83929 13.41103,0 20.6584,-9.61735 7.31511,-9.61734 7.31511,-27.29845 z"
         id="path3863"
         style="font-weight:bold;font-size:144.972px;font-family:'Liberation Sans';-inkscape-font-specification:'Liberation Sans, Bold';fill:#ea651c;stroke-width:12.081" /><path
         d="m -225.93595,397.5641 q 0,15.31377 -10.4308,23.45151 -10.36306,8.06378 -30.4796,8.06378 -18.35549,0 -28.78629,-7.10205 -10.43079,-7.10203 -13.41101,-21.52804 l 19.30374,-3.47704 q 1.96424,8.28572 7.65377,12.05867 5.68952,3.69898 15.78165,3.69898 20.92933,0 20.92933,-13.90815 0,-4.43878 -2.43837,-7.32399 -2.37064,-2.88519 -6.77324,-4.80866 -4.33488,-1.92347 -16.72991,-4.66072 -10.70173,-2.73724 -14.90115,-4.36478 -4.19941,-1.70154 -7.58602,-3.92092 -3.38663,-2.29336 -5.75727,-5.47449 -2.37063,-3.18111 -3.72528,-7.47193 -1.28692,-4.29081 -1.28692,-9.83928 0,-14.13009 9.68574,-21.60202 9.75348,-7.54591 28.31216,-7.54591 17.74591,0 26.61886,6.06632 8.94068,6.06632 11.51452,20.04845 l -19.37149,2.8852 q -1.49011,-6.73213 -6.09592,-10.13519 -4.53807,-3.40306 -13.07236,-3.40306 -18.15229,0 -18.15229,12.42856 0,4.06888 1.8965,6.65816 1.96424,2.58929 5.75726,4.43877 3.79302,1.77551 15.37526,4.51276 13.7497,3.18111 19.64241,5.91836 5.96046,2.66326 9.41481,6.28826 3.45436,3.55101 5.28314,8.58163 1.82877,4.95662 1.82877,11.46682 z"
         id="path3860"
         style="font-weight:bold;font-size:144.972px;font-family:'Liberation Sans';-inkscape-font-specification:'Liberation Sans, Bold';fill:#ea651c;stroke-width:12.081" /><text
         xml:space="preserve"
         style="font-style:normal;font-variant:normal;font-weight:bold;font-stretch:normal;font-size:54.42px;font-family:'Liberation Sans';-inkscape-font-specification:'Liberation Sans, Bold';font-variant-ligatures:normal;font-variant-caps:normal;font-variant-numeric:normal;font-variant-east-asian:normal;fill:#ea651c;fill-opacity:1;stroke-width:0.304533"
         x="-435.37662"
         y="517.53339"
         id="text3844"
         transform="scale(1.1080489,0.90248722)"><tspan
           sodipodi:role="line"
           id="tspan3842"
           x="-435.37662"
           y="517.53339"
           style="stroke-width:0.304533">SYSTEM</tspan></text></g><path
       d="M -670.92054,-26.001146 A 16.666666,16.666666 0 0 0 -687.5872,-9.3344741 V 57.33219 a 66.666666,66.666666 0 0 1 -66.66666,66.66666 h -566.66664 a 66.666666,66.666666 0 0 1 -66.6667,-66.66666 v -333.33334 a 66.666666,66.666666 0 0 1 66.6667,-66.66666 h 566.66664 a 66.666666,66.666666 0 0 1 66.66666,66.66666 16.66668,16.66668 0 0 0 33.33336,0 100,100 0 0 0 -100.00002,-99.99999 h -566.66664 a 100,100 0 0 0 -100,99.99999 V 57.33219 a 100,100 0 0 0 100,100 h 566.66664 a 100,100 0 0 0 100.00002,-100 V -9.3344741 a 16.666666,16.666666 0 0 0 -16.6667,-16.6666719 z"
       fill="#231815"
       id="path3871"
       style="fill:#487472;fill-opacity:1;stroke-width:0.78125" /><path
       id="path3895"
       style="fill:#ea651c;fill-opacity:1;stroke-width:0.498026"
       d="m -1251.8567,-328.81275 a 10.624576,10.624576 0 0 0 -8.261,10.3577 v 22.0999 a 74.371876,74.371876 0 0 0 -33.7861,14.02442 l -15.7239,-15.6181 a 10.624554,10.624554 0 0 0 -14.9807,14.98062 l 15.6181,15.6181 a 74.371876,74.371876 0 0 0 -14.0244,33.89191 h -22.0986 a 10.624764,10.624764 0 0 0 0,21.24952 h 22.0986 a 74.371876,74.371876 0 0 0 14.0244,33.78609 l -15.6181,15.61809 a 10.624554,10.624554 0 1 0 14.9807,14.98062 l 15.618,-15.61809 a 74.371876,74.371876 0 0 0 33.892,14.13024 v 22.09866 a 10.624762,10.624762 0 0 0 21.2495,0 v -22.09866 a 74.371876,74.371876 0 0 0 33.7861,-14.02441 l 15.6181,15.61809 a 10.624554,10.624554 0 0 0 14.9806,-14.98062 l -15.5122,-15.72392 a 74.371876,74.371876 0 0 0 14.0244,-33.78609 h 22.0998 a 10.624764,10.624764 0 0 0 0,-21.24952 h -22.0998 a 74.371876,74.371876 0 0 0 -14.0244,-33.78609 l 15.6181,-15.61809 a 10.624554,10.624554 0 1 0 -14.9807,-14.98062 l -15.7239,15.51227 a 74.371876,74.371876 0 0 0 -33.7861,-14.02442 v -22.0999 a 10.624576,10.624576 0 0 0 -12.9885,-10.3577 z m -5.1969,53.3971 a 53.122773,53.122773 0 0 1 60.6832,52.58159 53.122773,53.122773 0 0 1 -53.1219,53.12318 53.122773,53.122773 0 0 1 -7.5613,-105.70477 z" /><path
       style="fill:#487472;fill-opacity:1;stroke-width:0.78125"
       d="m -899.80752,208.53719 a 16.666666,16.666666 0 0 0 0,-33.33332 h -266.66668 a 16.666666,16.666666 0 0 0 0,33.33332 z"
       id="path3893" /><path
       style="fill:#ea651c;fill-opacity:1;stroke-width:0.78125"
       d="m -727.90659,226.52876 h -600.00001 a 16.66668,16.66668 0 0 0 0,33.33336 h 600.00001 a 16.66668,16.66668 0 0 0 0,-33.33336 z"
       id="path3891" /><path
       style="fill:#487472;fill-opacity:1;stroke-width:0.78125"
       d="m -1261.3105,-234.67484 a 16.666666,16.666666 0 0 0 0,23.66666 16.666666,16.666666 0 0 0 23.6666,0 l 2,-2.66666 a 9.3333336,9.3333336 0 0 0 1.5,-2.83334 10.333334,10.333334 0 0 0 1.3334,-3 21,21 0 0 0 0,-3.33332 16.666666,16.666666 0 0 0 -28.5,-11.83334 z"
       id="path3889" /><path
       style="fill:#ea651c;fill-opacity:1;stroke-width:0.78125"
       d="m -670.92054,-159.33447 a 16.666666,16.666666 0 0 0 -16.66666,16.66666 v 66.666664 a 16.66668,16.66668 0 0 0 33.33336,0 v -66.666664 a 16.666666,16.666666 0 0 0 -16.6667,-16.66666 z"
       id="path3873" /><path
       style="fill:#487472;fill-opacity:1;stroke-width:0.78125"
       d="m -689.97957,-212.90472 a 16.666666,16.666666 0 0 0 0,23.66666 16.666666,16.666666 0 0 0 23.6666,0 l 2,-2.66666 a 9.3333336,9.3333336 0 0 0 1.5,-2.83334 10.333334,10.333334 0 0 0 1.3334,-3 21,21 0 0 0 0,-3.33332 16.666666,16.666666 0 0 0 -28.5,-11.83334 z"
       id="path6869" /></g></svg>
