<?xml version="1.0" encoding="utf-8" ?><svg xmlns="http://www.w3.org/2000/svg" xmlns:xlink="http://www.w3.org/1999/xlink" width="1077" height="1077" viewBox="0 0 1077 1077"><path fill="white" transform="scale(0.262939 0.262939)" d="M0 0L4096 0L4096 4096L0 4096L0 0Z"/><path fill="#EA651C" transform="scale(0.262939 0.262939)" d="M1936.67 1047.16C1972.27 1050.24 2108.4 1070.68 2132.44 1061.69L2133.57 1058.82C2128.99 1055.62 2110.43 1052.47 2104.03 1051.37C2050.02 1041.9 1991.24 1025.3 1958.13 977.624C1909.03 906.905 1927.99 824.595 1998.88 777.72C2053.68 741.48 2094.05 732.554 2158.77 735.785C2196.57 735.54 2234.04 736.298 2271.32 743.417C2325.45 753.75 2379.2 772.465 2431.05 790.951C2492.35 812.808 2549.28 829.467 2613.37 841.165C2671.87 846.431 2699.99 845.059 2755.45 825.009C2770.8 816.072 2786.06 806.993 2801.23 797.774C2751.84 887.282 2629.36 874.149 2543.83 858.034C2486.44 847.222 2429.69 815.383 2373.59 799.053C2264.15 767.195 2040.41 721.71 1973.53 844.809C1960.22 869.358 1957.23 898.194 1965.21 924.956C1982.6 982.952 2036.82 1003.72 2088.99 1019.51C2059.15 998.212 2019.89 974.436 2016.71 934.978C2009.81 849.53 2076.17 823.814 2142.23 815.269C2280.41 797.392 2388.81 860.034 2513.4 900.904C2538.72 909.246 2564.43 916.324 2590.45 922.11C2605.14 925.293 2624.62 928.009 2638.3 931.766C2704.19 936.142 2710.94 936.506 2776.69 931.338C2781.39 928.739 2828.78 916.478 2839.34 912.79C2850.48 906.579 2860.32 899.928 2872.68 897.584L2876.84 898.794C2876.27 911.219 2851.63 928.788 2840.8 933.332C2837.31 937.257 2825.74 942.143 2820.62 943.915C2700.61 985.401 2572.49 958.175 2458.15 912.159C2436.53 903.461 2410.71 895.292 2389.95 885.526C2363.27 876.097 2336.32 867.495 2309.11 859.734C2240.39 844.043 2145.47 824.461 2080.6 863.095C2065.51 872.083 2053.96 885.142 2049.85 902.587C2045.66 919.747 2048.7 937.875 2058.24 952.738C2073.18 976.497 2125.48 1013.31 2152.66 1017.92C2170.64 1020.97 2209.25 1021.1 2228.75 1021.52C2326.08 1022.78 2411.44 1019.85 2507.57 1040.72C2532.12 1044.64 2554.67 1051.19 2578.65 1057.55C2552.81 1042.01 2541.87 1037.51 2512.78 1028.42C2397.12 997.222 2283.15 1005.08 2165.57 994.402C2141.13 992.182 2113.18 972.705 2095.53 956.093C2131.25 963.386 2167.4 968.366 2203.76 971.003C2297.69 977.431 2607.05 973.189 2661.9 1057.6C2682.45 1089.24 2678.02 1170.11 2671.44 1206.39C2672.5 1205.5 2673.83 1204.49 2674.52 1203.33C2697.61 1164.6 2696.48 1131.09 2692.43 1090.32L2687.21 1055.97C2770.04 1065.93 2842.3 1090.31 2898.07 1156.25L2897.51 1183.61C2896.93 1192.73 2896.37 1201.8 2895.48 1210.94C2891.08 1256.22 2871.31 1298.32 2848.33 1336.99C2846.67 1339.78 2847.21 1339.47 2847 1343.19L2848.29 1341.98C2896.38 1296.15 2919.01 1241.12 2920.19 1175.2C2942.36 1190.91 2965.89 1209.45 2983.84 1230.13C3087.12 1349.13 3077.35 1553.52 2974.04 1670.12C2962.9 1682.7 2947.45 1684.24 2942.51 1689.84C2930.73 1703.19 2921.32 1722.22 2906.36 1733.74C2849.73 1784.75 2762.67 1811.45 2688.09 1821.65C2667.51 1824.47 2635 1822.41 2613.81 1821.04C2544.6 1865.79 2469.93 1895.68 2386.85 1898.75C2279.14 1902.73 2386.73 1790.84 2416.34 1765.64C2382.09 1742.71 2342.7 1709.83 2325.56 1671.4C2320.94 1661.03 2311.57 1637.25 2318 1629.95C2349.46 1594.22 2473.03 1631.13 2507.7 1647.36C2541.77 1663.32 2560.65 1680.02 2592.41 1696.07C2598.27 1699.03 2614.49 1696.64 2619.08 1695.51C2665.84 1684.08 2704.5 1654.28 2730.17 1614.46C2708.44 1587.08 2693.33 1581.83 2659.87 1577.73C2703.82 1562.5 2725.26 1559.64 2761.21 1592.77C2763.46 1586.65 2765.95 1580.82 2768.46 1574.82C2727.59 1525.24 2664.03 1533.88 2621.55 1575.6C2614.07 1582.95 2608.62 1590.35 2600.58 1597.47C2573.51 1573.7 2685.85 1447.81 2784.62 1548.66C2784.77 1536.67 2785.35 1524.15 2785.72 1512.12C2726.71 1466.62 2651.22 1482.06 2597.11 1530.48C2587.49 1539.08 2581.62 1554.74 2570.01 1564.66C2567.3 1560.67 2565.82 1555.67 2566.51 1550.83C2578.97 1464.28 2681.97 1454.26 2745.7 1455.7C2745.13 1443 2745.72 1435 2746.62 1422.36C2629.82 1470.88 2522.39 1411.1 2463.1 1561.39C2460.42 1515.73 2465.63 1482.03 2505.96 1453.66C2547.44 1424.48 2598.07 1425.57 2645.84 1416.05C2665.12 1412.21 2681.7 1404.79 2699.33 1396.42L2665.17 1382.52C2604.59 1398.28 2540.59 1402.59 2479.82 1419.39C2414 1437.6 2383.93 1475.98 2364.25 1538.42C2363.61 1535.56 2363.01 1532.7 2362.45 1529.82C2337.42 1399.97 2513.01 1377.31 2600.48 1360.84C2589.17 1357.23 2578.18 1352.96 2567.07 1348.78C2515.9 1356.72 2365.68 1386.46 2327.27 1412.67C2292.68 1436.27 2278.07 1471.27 2270.73 1511.15C2264.91 1483.48 2260.64 1458.8 2273.46 1432.08C2303.16 1370.19 2381.34 1357.2 2439.73 1345.29C2332.61 1342.16 2255.03 1282.28 2161.49 1240.12C2132.91 1227.24 2095.08 1220.57 2064 1215.5L2064.05 1207.95C2106.76 1203.36 2153.72 1207.1 2196.02 1213.99C2166.15 1198.39 2136.93 1178.3 2108.47 1160.1C2050.89 1123.29 1994.5 1083.45 1936.67 1047.16Z"/><path fill="#FA892C" transform="scale(0.262939 0.262939)" d="M2228.75 1021.52C2326.08 1022.78 2411.44 1019.85 2507.57 1040.72C2532.12 1044.64 2554.67 1051.19 2578.65 1057.55C2552.81 1042.01 2541.87 1037.51 2512.78 1028.42C2528.49 1018.9 2585.84 1041.71 2603.14 1050.23C2620.41 1058.74 2637 1078.46 2640.66 1097.75C2656.27 1179.86 2626.58 1293.84 2533.73 1314.99C2439.25 1339.33 2336.18 1304.15 2264.19 1241.16C2206.4 1190.58 2151.31 1146.64 2082.39 1111.51C2068.69 1104.52 2051.22 1090.89 2036.62 1082.16C2063.92 1086.24 2156.42 1095.12 2178.24 1080.87C2183.27 1070.01 2166.5 1038.36 2159.16 1029.35C2173.78 1022.82 2207.52 1024.87 2225.35 1024.54L2228.75 1021.52Z"/><path fill="#EE641D" transform="scale(0.262939 0.262939)" d="M2228.75 1021.52C2326.08 1022.78 2411.44 1019.85 2507.57 1040.72C2498.04 1046 2407.13 1028.62 2388.88 1028.67C2349.81 1028.77 2308.51 1029.18 2269.77 1028.79C2276.85 1030.63 2282.81 1031.32 2288.19 1036.04L2287.2 1038.48C2262.96 1027.44 2235.09 1039.76 2223.75 1029.93L2225.35 1024.54L2228.75 1021.52Z"/><path fill="#487472" transform="scale(0.262939 0.262939)" d="M2259.75 1045.09C2271.92 1042.73 2284.4 1047.16 2292.35 1056.66C2300.31 1066.16 2302.48 1079.23 2298.02 1090.79C2293.56 1102.35 2283.18 1110.58 2270.9 1112.28C2252.62 1114.8 2235.65 1102.31 2232.63 1084.11C2229.61 1065.9 2241.63 1048.6 2259.75 1045.09Z"/><path fill="#4C7E77" transform="scale(0.262939 0.262939)" d="M2259.51 1052.63C2276.26 1048.49 2292.27 1061.12 2292.36 1078.3C2292.42 1089.48 2284.5 1095.96 2276.95 1103.16L2275.07 1102.68C2269.76 1099.56 2260.06 1095.12 2254.24 1092.21C2251.53 1096.42 2253.32 1094.77 2248.06 1096.38C2225.62 1086.74 2238.82 1060.7 2259.51 1052.63Z"/><path fill="#FA892C" transform="scale(0.262939 0.262939)" d="M2687.21 1055.97C2770.04 1065.93 2842.3 1090.31 2898.07 1156.25L2897.51 1183.61C2896.93 1192.73 2896.37 1201.8 2895.48 1210.94C2891.08 1256.22 2871.31 1298.32 2848.33 1336.99C2846.67 1339.78 2847.21 1339.47 2847 1343.19C2827.49 1369.58 2790.91 1390.54 2759.49 1399.73C2735.48 1394.57 2726.01 1384.66 2707.44 1369.14C2707.52 1361.99 2708.65 1354.83 2709.57 1347.72C2657.23 1350.58 2638.98 1349.11 2592.18 1323.32C2640.22 1293.41 2657.37 1263.05 2671.44 1206.39C2672.5 1205.5 2673.83 1204.49 2674.52 1203.33C2697.61 1164.6 2696.48 1131.09 2692.43 1090.32L2687.21 1055.97Z"/><path fill="#EA651C" transform="scale(0.262939 0.262939)" d="M2687.21 1055.97C2770.04 1065.93 2842.3 1090.31 2898.07 1156.25L2897.51 1183.61L2895.43 1183.27C2885.14 1172.46 2842.93 1149.56 2828.57 1141.95C2828.52 1209.16 2798.16 1282.31 2736.05 1314.42C2782.71 1241.82 2793.04 1202.79 2795.34 1117.69C2759.81 1101.74 2732.2 1092.04 2692.43 1090.32L2687.21 1055.97Z"/><path fill="#EE641D" transform="scale(0.262939 0.262939)" d="M2613.37 841.165C2671.87 846.431 2699.99 845.059 2755.45 825.009C2751.85 839.454 2656.03 857.277 2641.3 849.649C2633.04 845.376 2613.27 846.629 2607.96 843.806C2610.87 841.944 2610.17 841.966 2613.37 841.165Z"/><path fill="#EE641D" transform="scale(0.262939 0.262939)" d="M2638.3 931.766C2704.19 936.142 2710.94 936.506 2776.69 931.338C2776.22 932.916 2775.19 934.547 2774.38 936.071C2753.1 939.757 2649.2 949.13 2638.3 931.766Z"/><path fill="#EE641D" transform="scale(0.262939 0.262939)" d="M2309.11 859.734C2331.68 852.845 2360.56 862.215 2381.09 873.229C2384.11 874.849 2389.11 877.063 2389.97 880.501C2390.68 883.383 2390.51 882.282 2389.95 885.526C2363.27 876.097 2336.32 867.495 2309.11 859.734Z"/><path fill="#EE641D" transform="scale(0.262939 0.262939)" d="M2839.34 912.79C2850.48 906.579 2860.32 899.928 2872.68 897.584L2876.84 898.794C2876.27 911.219 2851.63 928.788 2840.8 933.332L2841.19 929.709C2846.28 924.637 2846.84 924.259 2850.92 917.961L2849.07 914.766C2845.82 914.137 2842.58 913.479 2839.34 912.79Z"/><path fill="#FA892C" transform="scale(0.262939 0.262939)" d="M2956.55 1254.33C2979.98 1269.46 3003.06 1328.62 3013.11 1354.24C2997.51 1377.89 2981.33 1392.3 2963.16 1412.5C2930.7 1448.6 2889.56 1461.69 2852.08 1489.1C2931.21 1483.35 2966.74 1455.6 3025.83 1406.29C3021.68 1571.06 3003.02 1577.37 2847.68 1584.49C2856.04 1587.19 2865.93 1591.4 2874.25 1594.67C2911.51 1603.79 2954.76 1604.07 2991.52 1592.44C2979.26 1611.27 2959.78 1658.02 2939.06 1661.91C2887.96 1671.51 2820.82 1612.81 2808.18 1567.94C2811.88 1553.97 2813.66 1539.46 2815.77 1525.14C2825.42 1524.03 2842.41 1520.8 2850.3 1515.09L2850.31 1511.68C2841.08 1501.52 2819.79 1497.47 2806.57 1484.97C2780.15 1460.01 2784.85 1455.7 2778.37 1426.02L2777.63 1422.76C2857.08 1389.81 2915.91 1329.99 2956.55 1254.33Z"/><path fill="#FA892C" transform="scale(0.262939 0.262939)" d="M2786.2 1603.22C2793.06 1606.86 2800.23 1620.11 2805.86 1627.41C2834.72 1664.88 2858.72 1679.37 2902 1694.52C2860.14 1742.76 2799.84 1765.24 2739.52 1780.44C2714.36 1785.63 2654.72 1798.09 2634.69 1779.16C2628.48 1766.13 2629.16 1751.33 2630.01 1737.32L2640.64 1722.45C2707.43 1696.41 2743.11 1659.65 2786.2 1603.22Z"/><path fill="#FA892C" transform="scale(0.262939 0.262939)" d="M2351.56 1647.17C2426.73 1643.46 2521.57 1681.65 2580.44 1726.49C2587.77 1734.25 2596.05 1742.2 2597.23 1753.08L2594.68 1756.13C2582.85 1755.44 2586.39 1751.04 2575.89 1751.84L2574.4 1750.74C2508.38 1754.27 2437.78 1730.86 2381.98 1696.2C2375.27 1692.03 2363.55 1687.93 2358.85 1682.03C2372.67 1678.6 2488.38 1720.78 2512.18 1727.14C2521.62 1729.66 2531.15 1733.94 2539.2 1727.95L2536.24 1719.08C2504.71 1698.28 2457.17 1683.46 2420.53 1672.19C2389.74 1662.73 2379.89 1664.98 2351.56 1647.17Z"/><path fill="#EE641D" transform="scale(0.262939 0.262939)" d="M2580.44 1726.49C2587.77 1734.25 2596.05 1742.2 2597.23 1753.08L2594.68 1756.13C2582.85 1755.44 2586.39 1751.04 2575.89 1751.84L2574.4 1750.74C2582.94 1748.73 2581.32 1750.45 2586.21 1744.97C2587 1738.1 2583.51 1732.99 2580.44 1726.49Z"/><path fill="#EE641D" transform="scale(0.262939 0.262939)" d="M2536.24 1719.08C2549.91 1724.97 2559.93 1730.07 2573.09 1737.11C2562.93 1736.02 2549.07 1734.96 2539.33 1733.05L2541.44 1728.9L2539.2 1727.95L2536.24 1719.08Z"/><path fill="#FA892C" transform="scale(0.262939 0.262939)" d="M2599.6 1782.55L2600.9 1783.62C2599.31 1811.04 2510.1 1837.28 2487.18 1845.06C2463.33 1853.15 2438.08 1853.74 2413.73 1865.37C2413.23 1864.31 2412.72 1863.25 2412.22 1862.19C2417.92 1858.29 2430.49 1847.99 2436.09 1845.82C2490.53 1824.77 2545.36 1804.22 2599.6 1782.55Z"/><path fill="#FA892C" transform="scale(0.262939 0.262939)" d="M2433.33 1806.39C2466.93 1786.61 2515.8 1773.29 2553.93 1766.04C2568.22 1763.33 2580.34 1755.24 2590.16 1769.39L2589.8 1772.93C2582.86 1777.22 2542.41 1785.04 2531.56 1787.56C2501.96 1794.45 2476.19 1806.04 2448.2 1815.22C2441.49 1812.19 2440.87 1813.21 2435.34 1814.88L2433.12 1812.25L2434.24 1810.74L2433.33 1806.39Z"/><path fill="#F88E2B" transform="scale(0.262939 0.262939)" d="M2385.42 1837.04C2400.65 1824.46 2416.13 1815.88 2433.33 1806.39L2434.24 1810.74L2433.12 1812.25L2435.34 1814.88C2440.87 1813.21 2441.49 1812.19 2448.2 1815.22C2430.73 1823.02 2404.17 1830.9 2385.42 1837.04Z"/><path fill="#EA651C" transform="scale(0.262939 0.262939)" d="M2758.32 2016.39C2836.28 1998.18 2860.54 2059.95 2827.26 2120.6C2817.68 2145.02 2800.82 2171.48 2786.29 2193.73C2782.4 2199.98 2775.97 2211.08 2771.63 2216.48C2745.74 2254.27 2717.95 2290.72 2688.38 2325.71C2660.6 2359.34 2628.35 2389.01 2592.53 2413.92C2585.97 2441.45 2564.17 2507.64 2604.03 2516.78C2641.65 2525.4 2678.37 2472.68 2704.2 2457.09C2714.62 2444.49 2733.65 2425.67 2745.44 2412.43C2756.94 2386.64 2766.43 2368.42 2780.49 2344.45C2796.47 2315.93 2826.13 2276.15 2847.72 2252.53C2893.39 2199.94 3022.88 2136.39 3054.17 2234.13C3078.35 2188.81 3082.81 2175.51 3135.42 2203.4C3142.67 2207.24 3146.1 2210.39 3150.89 2216.9C3153.16 2228.51 3024.39 2433.97 3035.06 2467.55C3057.72 2538.96 3155.86 2399.42 3168.9 2375.25L3172.55 2373.37C3182.01 2379.63 3181.91 2398.62 3178.25 2407.86C3152.69 2472.37 3099.78 2545.91 3027.62 2559.62C2963.88 2571.73 2942.6 2527.23 2950.45 2471.83C2926.3 2511.87 2873.36 2564.51 2826.59 2575C2760.63 2589.8 2729.21 2541.23 2725.66 2483.27C2688.85 2527.08 2639.97 2585.37 2578.99 2590.91C2525.49 2595.78 2493.87 2559.57 2488.79 2508.55C2459.09 2549.96 2382.01 2647.68 2322.07 2603.14C2301.46 2587.83 2296.01 2563.39 2295.57 2539.01C2261.59 2581.15 2183.71 2666.54 2120.24 2614.5C2100.67 2598.45 2092.91 2567.12 2091.35 2542.19C2057.55 2588.68 2021.85 2625.78 1968.07 2647.12C1899.18 2662.58 1866.86 2622.5 1863.59 2558.45C1854.2 2575.48 1843.7 2588.79 1831.75 2604.03C1825.13 2612.21 1817.96 2619.92 1810.28 2627.12C1753.67 2681.19 1653.82 2698.91 1656.62 2590.85C1625.68 2629.4 1587.02 2672.45 1539.94 2691.04C1497.17 2707.93 1445.82 2694.24 1430.71 2647.28C1414.18 2595.94 1432.44 2542.2 1455.48 2495.97C1498.19 2415.07 1560.27 2331.43 1649.9 2300.35C1676.03 2291.47 1715.43 2287.7 1739.93 2301.34C1757.09 2310.89 1762.03 2323.2 1767.04 2340.37C1793.79 2299.03 1812.65 2276.12 1860.6 2312.79C1866.2 2317.19 1869.02 2318.44 1871.01 2325.22C1870.88 2334.76 1865.15 2340.89 1859.28 2348.47C1852.82 2358.68 1847.03 2366.96 1839.95 2376.75C1835.16 2384.26 1829.99 2392.83 1825.02 2400.1C1822.91 2404.56 1816.81 2416.86 1813.43 2420.25C1809.5 2428.06 1805.36 2436.78 1800.99 2444.26C1789.21 2467.9 1778.09 2492.11 1766.8 2515.76C1719.08 2615.73 1763.59 2613.22 1828.45 2549.14C1838.49 2539.1 1848.09 2528.64 1857.24 2517.78C1861.71 2505.97 1881.51 2473.97 1888.59 2460.65C1925.41 2373.38 2048.9 2018.33 2208.76 2045.01C2216.55 2046.31 2235.3 2065.75 2237.19 2073.79C2247.96 2102.47 2224.02 2158.78 2211.04 2183.58C2160.88 2279.44 2062.22 2410.84 1971.5 2467.77L1971.32 2469.45C1967.67 2501.79 1936.87 2574.47 1989.87 2575.96C2039.4 2561.15 2105.71 2483.59 2125.72 2435.64C2132.56 2419.26 2142.49 2402.77 2151.84 2387.83C2171.56 2356.69 2194.38 2327.63 2219.96 2301.09L2239.4 2282.41C2280.88 2245.26 2363.12 2219.76 2394.64 2281.4C2405.83 2260.1 2412.05 2245.07 2438.52 2243C2454.24 2241.77 2490.31 2266.04 2487.53 2274.81C2461.49 2356.23 2396.39 2427.33 2382.44 2512.85C2380.64 2523.9 2389.1 2540.04 2400.27 2536.24C2436.09 2524.04 2478.6 2473.85 2498.44 2442.8C2509.43 2419.5 2513.27 2384.21 2522.41 2361.59C2545.24 2305.11 2582.61 2194.16 2620.54 2149.44C2643.65 2103.31 2707.04 2034.3 2758.32 2016.39Z"/><path fill="#EE641D" transform="scale(0.262939 0.262939)" d="M2847.72 2252.53L2851.22 2257.18C2847.35 2270.33 2816.4 2299.76 2808.51 2312.56C2803.97 2319.92 2789.19 2345.5 2782.35 2348.89L2780.49 2344.45C2796.47 2315.93 2826.13 2276.15 2847.72 2252.53Z"/><path fill="#EE641D" transform="scale(0.262939 0.262939)" d="M1860.6 2312.79C1866.2 2317.19 1869.02 2318.44 1871.01 2325.22C1870.88 2334.76 1865.15 2340.89 1859.28 2348.47C1852.42 2335.59 1862.14 2333.52 1860.23 2318.78C1859.6 2313.92 1858.76 2319.79 1860.6 2312.79Z"/><path fill="white" transform="scale(0.262939 0.262939)" d="M1694.77 2344.51C1701.2 2344.45 1712.56 2344.14 1718.18 2347.11C1746.32 2361.99 1717.3 2419.15 1707.87 2437.43C1672.76 2505.48 1636.34 2585.99 1558.84 2612.63C1460.23 2623.37 1596.89 2367.71 1694.77 2344.51Z"/><path fill="white" transform="scale(0.262939 0.262939)" d="M2976.32 2238.59C3040.67 2230.37 3011.86 2292.82 2996.66 2326.13C2968.34 2388.22 2927.67 2461.57 2860.29 2487.3C2794.79 2500.94 2826.28 2417.92 2839.84 2388.16C2857.83 2348.69 2885.79 2313.74 2914.9 2281.85C2933.34 2261.64 2950.54 2248.11 2976.32 2238.59Z"/><path fill="white" transform="scale(0.262939 0.262939)" d="M2339.3 2296.21C2413.78 2292.96 2280.98 2533.89 2206.94 2553.79C2164.05 2545.14 2191.57 2469.45 2204.84 2445.25C2236.29 2387.92 2274.41 2319.44 2339.3 2296.21Z"/><path fill="white" transform="scale(0.262939 0.262939)" d="M2119.34 2166.65C2134.65 2148.42 2150.06 2117.98 2172.29 2113.53C2176.27 2114.75 2177.08 2113.98 2178.6 2117.09C2183.73 2127.57 2169.38 2163.8 2164.88 2173.98C2133.71 2244.46 2085 2316.98 2031.61 2372.46C2026.96 2377.29 2013.85 2390.61 2009.02 2393.56L2007.82 2390.58C2019.38 2367.05 2033.59 2327.15 2043.43 2301.64C2046.88 2296.24 2058.63 2271.3 2062.38 2263.85C2074.62 2239.53 2085.85 2219.16 2100.35 2195.92C2107.76 2185.71 2112.83 2177.41 2119.34 2166.65Z"/><path fill="white" transform="scale(0.262939 0.262939)" d="M2727.71 2127.17C2737.94 2113.11 2759.07 2080.93 2778.87 2083.22C2811.27 2116.88 2652.41 2318.5 2620.6 2347.43C2618.22 2349.61 2615.8 2351.74 2613.32 2353.81C2621.53 2326.77 2635.42 2299.34 2642.26 2276.57C2646.26 2269.86 2650.38 2259.55 2653.66 2252.15C2674.66 2210.16 2690.21 2182.38 2716.25 2143.91L2727.71 2127.17Z"/><path fill="#A8C2A6" transform="scale(0.262939 0.262939)" d="M1615.01 1582.78C1638.65 1574.14 1662.01 1562.57 1685.92 1554.57C1790.75 1519.47 1924.49 1483.3 2020.08 1557.72C2075.34 1583.16 2123.03 1610.63 2172.97 1644.98C2239.03 1690.44 2250.37 1711.09 2167.77 1745.07C2182.25 1744.42 2222.51 1740.79 2233.54 1746.57C2252.71 1778.97 2114.1 1853.94 2088.96 1867.84C2057.54 1885.17 2032.89 1896.09 1999.64 1909.73C1982.11 1915.72 1962.79 1922.81 1945.05 1927.55C1900.83 1991.53 1847.07 2036.3 1771.26 2058.45C1783.92 2025.87 1797.39 1993.61 1811.68 1961.72C1756.34 1982.73 1681.57 1989.56 1621.74 1991.34C1573.36 2036.73 1545.05 2075.51 1474.09 2046.98C1470.68 2045.86 1461.52 2041.33 1457.81 2039.6L1438.05 2030.74L1427.87 2025.51L1405.79 2012.17C1414.52 1999.1 1424.07 1985.85 1433.09 1972.92C1397.64 1980.58 1372.29 1988.09 1338.24 1999.19C1294.22 2022.84 1246.62 2053.89 1222.1 2098.79C1182.66 2098.25 1119.04 2096.96 1086.69 2122.24C1085.56 2082.91 1091.19 2063.03 1106.34 2026.3C1089.1 2023.34 1079.09 2021.35 1063.33 2012.43C1052.39 2005.82 1029.03 1983.96 1018.23 1974.5C1000.2 1958.45 981.169 1943.54 961.264 1929.88C1038.58 1853.82 1147.8 1934.03 1252.94 1903.71C1294.55 1889.25 1316.84 1852.54 1343.36 1820.05C1371.34 1785.78 1398.6 1750.84 1429.01 1718.64C1415.53 1720.8 1409.75 1723.61 1398.73 1716.08C1394.66 1706.56 1397.54 1700.36 1407.73 1697.92C1399.62 1692.94 1401.64 1695.64 1399.75 1688.1C1402.16 1681.52 1405.16 1676.15 1403.72 1669.59C1408.76 1661.86 1406.64 1662.53 1413.72 1659.69C1408.75 1656.95 1410.57 1658.9 1408.83 1653.14C1411.35 1646.45 1413.53 1642.88 1412.26 1635.88L1420.06 1619.1C1416.93 1607.63 1416.2 1607.83 1417.01 1595.06C1410.63 1594.59 1410.83 1594.5 1404.82 1592.12L1404.72 1589.64C1419.03 1577.41 1465.86 1572.29 1484.91 1571.68C1529.38 1570.15 1571.39 1575.11 1615.01 1582.78Z"/><path fill="#4C7E77" transform="scale(0.262939 0.262939)" d="M1615.01 1582.78C1638.65 1574.14 1662.01 1562.57 1685.92 1554.57C1790.75 1519.47 1924.49 1483.3 2020.08 1557.72C2012.77 1556.72 2010.73 1556.04 2003.35 1557.6C1999.74 1579.62 2013.1 1565.91 1990.21 1584.9L1980.52 1582.72L1977.75 1588.51C1971.55 1586.49 1961.19 1585.5 1954.45 1584.6C1893.38 1575.44 1831.14 1577.76 1770.92 1591.44C1760.19 1593.86 1720.24 1606.68 1714.52 1607.33C1646.34 1633.33 1609.01 1650.46 1547.21 1690.49C1551.93 1694.95 1553.72 1697.51 1560.03 1699.07C1571.11 1692.5 1560.54 1688.51 1569.43 1688.7C1569.68 1690.35 1571.67 1702.73 1571.5 1703.61C1551.43 1733.43 1540.03 1757.64 1546.78 1795.89C1548.49 1805.61 1551.86 1811.72 1550.24 1821.31C1531.02 1823.59 1511.97 1787.37 1504.81 1772.3L1502.95 1773.1C1498.26 1771.59 1495.09 1771.14 1490.25 1770.26C1471.45 1800.37 1471.29 1819.18 1483.88 1851.97C1476.2 1847.16 1469.2 1842.79 1461.86 1837.34C1454.51 1831.89 1447.25 1816.67 1440.41 1815.5C1431.82 1823.06 1428.67 1828.16 1421.25 1836.22C1421.46 1860.91 1420.4 1868.53 1428.67 1891.52C1401 1882.58 1396.81 1881.19 1382.25 1856.42C1358.05 1877.49 1337.55 1899.33 1311.21 1918.11C1296.05 1912.56 1296.3 1919.63 1284.2 1924.3C1267.63 1930.69 1268.92 1910.36 1252.94 1903.71C1294.55 1889.25 1316.84 1852.54 1343.36 1820.05C1371.34 1785.78 1398.6 1750.84 1429.01 1718.64C1415.53 1720.8 1409.75 1723.61 1398.73 1716.08C1394.66 1706.56 1397.54 1700.36 1407.73 1697.92C1399.62 1692.94 1401.64 1695.64 1399.75 1688.1C1402.16 1681.52 1405.16 1676.15 1403.72 1669.59C1408.76 1661.86 1406.64 1662.53 1413.72 1659.69C1408.75 1656.95 1410.57 1658.9 1408.83 1653.14C1411.35 1646.45 1413.53 1642.88 1412.26 1635.88L1420.06 1619.1C1416.93 1607.63 1416.2 1607.83 1417.01 1595.06C1410.63 1594.59 1410.83 1594.5 1404.82 1592.12L1404.72 1589.64C1419.03 1577.41 1465.86 1572.29 1484.91 1571.68C1529.38 1570.15 1571.39 1575.11 1615.01 1582.78Z"/><path fill="#487472" transform="scale(0.262939 0.262939)" d="M1615.01 1582.78C1638.65 1574.14 1662.01 1562.57 1685.92 1554.57C1790.75 1519.47 1924.49 1483.3 2020.08 1557.72C2012.77 1556.72 2010.73 1556.04 2003.35 1557.6C1999.74 1579.62 2013.1 1565.91 1990.21 1584.9L1980.52 1582.72C1947.96 1572.53 1923.76 1566.35 1889.33 1566.07C1791.88 1564.71 1696.02 1594.09 1609.92 1638.63C1605.27 1632.82 1603.32 1631.14 1596.12 1631.16C1589.85 1637.41 1584.9 1638.15 1577.66 1645.92C1575.86 1643.75 1574.36 1642.09 1572.46 1640.02C1573.41 1634.1 1576.33 1631.93 1580.4 1627.3L1582.15 1625.34L1581.56 1622.56C1573.87 1618.03 1574.08 1618.46 1570.03 1610.62L1570.48 1609.41L1568.93 1606.79L1554.76 1603.9L1546.57 1610.71L1524.26 1610.25C1481.29 1609.71 1463.49 1611.56 1420.06 1619.1C1416.93 1607.63 1416.2 1607.83 1417.01 1595.06C1410.63 1594.59 1410.83 1594.5 1404.82 1592.12L1404.72 1589.64C1419.03 1577.41 1465.86 1572.29 1484.91 1571.68C1529.38 1570.15 1571.39 1575.11 1615.01 1582.78Z"/><path fill="#F6E1BB" transform="scale(0.262939 0.262939)" d="M1460.55 1588.97C1495.99 1592.36 1519.93 1596.24 1554.76 1603.9L1546.57 1610.71L1524.26 1610.25C1481.29 1609.71 1463.49 1611.56 1420.06 1619.1C1416.93 1607.63 1416.2 1607.83 1417.01 1595.06L1426.92 1594.02L1460.55 1588.97Z"/><path fill="white" transform="scale(0.262939 0.262939)" d="M1460.55 1588.97C1495.99 1592.36 1519.93 1596.24 1554.76 1603.9L1546.57 1610.71L1524.26 1610.25C1516.95 1609.24 1520.93 1609.9 1515.83 1606.44C1495.03 1592.37 1447.27 1604.8 1426.92 1594.02L1460.55 1588.97Z"/><path fill="#4C7E77" transform="scale(0.262939 0.262939)" d="M1417.01 1595.06C1410.63 1594.59 1410.83 1594.5 1404.82 1592.12L1404.72 1589.64C1419.03 1577.41 1465.86 1572.29 1484.91 1571.68C1489.67 1577.52 1488.34 1574.32 1489.42 1581.48C1481.5 1591.49 1469.39 1585.47 1460.55 1588.97L1426.92 1594.02L1417.01 1595.06Z"/><path fill="#F6E1BB" transform="scale(0.262939 0.262939)" d="M1889.33 1566.07C1923.76 1566.35 1947.96 1572.53 1980.52 1582.72L1977.75 1588.51C1971.55 1586.49 1961.19 1585.5 1954.45 1584.6C1893.38 1575.44 1831.14 1577.76 1770.92 1591.44C1760.19 1593.86 1720.24 1606.68 1714.52 1607.33C1646.34 1633.33 1609.01 1650.46 1547.21 1690.49C1485.5 1733.21 1440.91 1777.25 1386.18 1828.14L1382.06 1825.77C1461.23 1740.9 1507.71 1697.1 1609.92 1638.63C1696.02 1594.09 1791.88 1564.71 1889.33 1566.07Z"/><path fill="#F6E1BB" transform="scale(0.262939 0.262939)" d="M1412.26 1635.88C1456.29 1631.59 1480.94 1628.13 1523.71 1640.75C1481.59 1647.77 1457.44 1649.53 1413.72 1659.69C1408.75 1656.95 1410.57 1658.9 1408.83 1653.14C1411.35 1646.45 1413.53 1642.88 1412.26 1635.88Z"/><path fill="#F6E1BB" transform="scale(0.262939 0.262939)" d="M1407.73 1697.92C1399.62 1692.94 1401.64 1695.64 1399.75 1688.1C1402.16 1681.52 1405.16 1676.15 1403.72 1669.59C1407.08 1671.02 1460.82 1668.07 1472.79 1668.67C1448.16 1686.76 1436.64 1689.61 1407.73 1697.92Z"/><path fill="#F6E1BB" transform="scale(0.262939 0.262939)" d="M1554.76 1603.9L1568.93 1606.79L1570.48 1609.41L1570.03 1610.62C1562.72 1612.06 1554.14 1611.11 1546.57 1610.71L1554.76 1603.9Z"/><path fill="#BBC2A5" transform="scale(0.262939 0.262939)" d="M1490.25 1770.26C1495.02 1765.43 1497.88 1760.43 1502.84 1760.3C1504.47 1765.81 1504.41 1766.49 1504.81 1772.3L1502.95 1773.1C1498.26 1771.59 1495.09 1771.14 1490.25 1770.26Z"/><path fill="#BBC2A5" transform="scale(0.262939 0.262939)" d="M1382.06 1825.77L1386.18 1828.14C1381.25 1832.73 1376.74 1838.14 1370.53 1839.8C1372.91 1833.04 1376.43 1831.2 1382.06 1825.77Z"/><path fill="#487472" transform="scale(0.262939 0.262939)" d="M961.264 1929.88C1038.58 1853.82 1147.8 1934.03 1252.94 1903.71C1268.92 1910.36 1267.63 1930.69 1284.2 1924.3C1296.3 1919.63 1296.05 1912.56 1311.21 1918.11C1275.41 1942.01 1256.94 1952.2 1214.04 1963.46C1219.45 1983.7 1222.41 2032.67 1254.71 2018.31C1282.96 2005.76 1302.18 1986.49 1331.93 1974.09C1336.59 1985.47 1335.6 1983.62 1347.4 1991.22C1344.2 1993.74 1341.18 1996.37 1338.24 1999.19C1294.22 2022.84 1246.62 2053.89 1222.1 2098.79C1182.66 2098.25 1119.04 2096.96 1086.69 2122.24C1085.56 2082.91 1091.19 2063.03 1106.34 2026.3C1089.1 2023.34 1079.09 2021.35 1063.33 2012.43C1052.39 2005.82 1029.03 1983.96 1018.23 1974.5C1000.2 1958.45 981.169 1943.54 961.264 1929.88Z"/><path fill="#A8C2A6" transform="scale(0.262939 0.262939)" d="M1063.33 2012.43C1089.21 2001.46 1147.17 1997.86 1177.07 1995.09C1158.73 2006.73 1127.26 2018.84 1106.34 2026.3C1089.1 2023.34 1079.09 2021.35 1063.33 2012.43Z"/><path fill="#A8C2A6" transform="scale(0.262939 0.262939)" d="M1182.08 2028.76C1189.71 2030.54 1187.54 2028.44 1190.8 2033.31C1152.4 2054.13 1153.17 2055.49 1120.51 2084.4L1117.15 2087.51L1114.82 2086.15C1117.44 2054.73 1153.42 2032.92 1182.08 2028.76Z"/><path fill="#BBC2A5" transform="scale(0.262939 0.262939)" d="M1054.48 1960C1074.12 1962.42 1156.99 1966.47 1166.98 1975.07C1136.82 1982.04 1079.4 1979.81 1054.48 1960Z"/><path fill="#BBC2A5" transform="scale(0.262939 0.262939)" d="M1053.49 1932.86C1092.31 1930.77 1134.41 1932.32 1168.17 1953.17L1136.46 1946.16C1087.94 1939.49 1064.21 1939.63 1015.29 1939.47C1031.17 1935.42 1037.18 1934.35 1053.49 1932.86Z"/><path fill="#4C7E77" transform="scale(0.262939 0.262939)" d="M1203.26 2012.75L1206.89 2012.11L1205.09 2014.96C1218.59 2024.58 1215.77 2017.56 1222.63 2030.57L1220.6 2032.79L1216 2032.29C1210.88 2027.75 1201.72 2021.15 1200.38 2015.09L1203.26 2012.75Z"/><path fill="#4C7E77" transform="scale(0.262939 0.262939)" d="M1093.42 2072.7C1100.87 2074.6 1101.04 2073.2 1104.15 2078.01C1102.74 2085.23 1105.64 2082.27 1100.59 2090.48C1096.19 2094.32 1098.6 2093.67 1093.69 2094.11C1091.07 2087.57 1092.68 2079.96 1093.42 2072.7Z"/><path fill="#4C7E77" transform="scale(0.262939 0.262939)" d="M1192.05 1955.95C1193.16 1956.65 1196 1961.04 1196.92 1962.34C1194.27 1968.26 1191.77 1968.29 1185.33 1972.6L1183.4 1965.42C1186.14 1958.86 1185.46 1960.81 1192.05 1955.95Z"/><path fill="#4C7E77" transform="scale(0.262939 0.262939)" d="M1909.4 1904.81C1920.09 1899.91 1941.69 1893.31 1953.54 1889.31C1969.5 1893.55 1968.76 1891.45 1980.04 1904.14L1979.13 1906.24L1975.64 1907.4L1975.35 1909.01C1981.19 1910.04 1985.35 1907.08 1990.96 1904.43C1997.79 1905.28 1994.86 1903.82 1999.64 1909.73C1982.11 1915.72 1962.79 1922.81 1945.05 1927.55C1900.83 1991.53 1847.07 2036.3 1771.26 2058.45C1783.92 2025.87 1797.39 1993.61 1811.68 1961.72C1756.34 1982.73 1681.57 1989.56 1621.74 1991.34C1573.36 2036.73 1545.05 2075.51 1474.09 2046.98C1470.68 2045.86 1461.52 2041.33 1457.81 2039.6L1438.05 2030.74L1427.87 2025.51L1405.79 2012.17C1414.52 1999.1 1424.07 1985.85 1433.09 1972.92C1397.64 1980.58 1372.29 1988.09 1338.24 1999.19C1341.18 1996.37 1344.2 1993.74 1347.4 1991.22C1335.6 1983.62 1336.59 1985.47 1331.93 1974.09C1359.65 1964.22 1400.6 1948.61 1428.7 1946.5C1446.84 1942.96 1464.87 1944.81 1482.63 1941.71C1515.04 1931.64 1609.61 1953.9 1649.26 1952.26C1662.12 1951.73 1722.88 1948.44 1731.03 1951.39C1759.23 1951.78 1877.16 1913.96 1909.4 1904.81Z"/><path fill="#487472" transform="scale(0.262939 0.262939)" d="M1731.03 1951.39C1759.23 1951.78 1877.16 1913.96 1909.4 1904.81C1899.34 1919.27 1764.03 1949.82 1735.46 1954.92C1707.93 1959.83 1676.53 1965.62 1648.66 1965.37C1599.93 1964.94 1550.19 1950.3 1501.48 1946.13C1479.08 1944.21 1449.51 1953.57 1428.7 1946.5C1446.84 1942.96 1464.87 1944.81 1482.63 1941.71C1515.04 1931.64 1609.61 1953.9 1649.26 1952.26C1662.12 1951.73 1722.88 1948.44 1731.03 1951.39Z"/><path fill="#BBC2A5" transform="scale(0.262939 0.262939)" d="M1482.63 1941.71C1515.04 1931.64 1609.61 1953.9 1649.26 1952.26C1662.12 1951.73 1722.88 1948.44 1731.03 1951.39C1656.03 1969.74 1560.49 1947.45 1482.63 1941.71Z"/><path fill="#BBC2A5" transform="scale(0.262939 0.262939)" d="M1457.81 2039.6C1494.33 2019.65 1523.14 2007.22 1557.21 1982.39C1540.26 2012.83 1505.1 2033.05 1474.09 2046.98C1470.68 2045.86 1461.52 2041.33 1457.81 2039.6Z"/><path fill="#BBC2A5" transform="scale(0.262939 0.262939)" d="M1427.87 2025.51C1450.73 2006.18 1483.75 1986.58 1512.83 1979.28C1482.8 2007.81 1467.8 2009.37 1438.05 2030.74L1427.87 2025.51Z"/><path fill="#BBC2A5" transform="scale(0.262939 0.262939)" d="M1907.38 1928.2C1903.63 1947.64 1827.17 2012 1807.83 2024.78L1808.15 2021.2C1837.59 1986.53 1870.88 1955.33 1907.38 1928.2Z"/><path fill="#4C7E77" transform="scale(0.262939 0.262939)" d="M1990.21 1584.9C2013.1 1565.91 1999.74 1579.62 2003.35 1557.6C2010.73 1556.04 2012.77 1556.72 2020.08 1557.72C2075.34 1583.16 2123.03 1610.63 2172.97 1644.98C2239.03 1690.44 2250.37 1711.09 2167.77 1745.07C2182.25 1744.42 2222.51 1740.79 2233.54 1746.57C2252.71 1778.97 2114.1 1853.94 2088.96 1867.84C2057.54 1885.17 2032.89 1896.09 1999.64 1909.73C1994.86 1903.82 1997.79 1905.28 1990.96 1904.43C1985.35 1907.08 1981.19 1910.04 1975.35 1909.01L1975.64 1907.4L1979.13 1906.24L1980.04 1904.14C1968.76 1891.45 1969.5 1893.55 1953.54 1889.31C1972.93 1881.65 1993 1872.07 2012.71 1865.91C1954.7 1848.68 1921.97 1810.13 1912.15 1749.2C1905.79 1709.73 1915.27 1678.79 1939.38 1646.95C1922.58 1708.45 1931.62 1769.29 1987.53 1807.23C2016.93 1827.19 2052.4 1838.12 2087.21 1825.32C2123.72 1811.89 2158.07 1794.6 2189.51 1771.65C2169.47 1773.63 2106.64 1780.94 2095.67 1762.74C2097.09 1734 2171.12 1713.86 2184.75 1693.54C2184.52 1692.26 2184.1 1689.04 2183.24 1688.23C2131.21 1639.17 2056.74 1605.65 1990.21 1584.9Z"/><path fill="#487472" transform="scale(0.262939 0.262939)" d="M2012.71 1865.91L2016.04 1864.14L2021.14 1866.23L2024.61 1862.27C2028.67 1867.09 2026.91 1864.73 2027.92 1872.52C2023.61 1876.39 2022.05 1876.13 2016.35 1877.39L2017.39 1882.38L2016.79 1879.64L2019.14 1881.53L2015.69 1882.32L2010.07 1878.75L2004.65 1880.42C2002.1 1887.73 2001.75 1884.52 2003.21 1890.89C2008.5 1892.46 2006.09 1892.72 2012.18 1889.3C2013.87 1888.34 2015.55 1887.36 2017.22 1886.36C2021.34 1890.05 2019.62 1887.87 2021.19 1893.94C2027.24 1891.51 2046.38 1884.95 2049.11 1880.54L2045.78 1875.98L2046.52 1872.74L2049.55 1871.07C2047.19 1867.89 2044.75 1864.77 2042.24 1861.72C2044.63 1857.95 2043.44 1859.13 2047.54 1857.07L2045.04 1854.97C2035.73 1855.85 2037.06 1857.18 2030.14 1853.55C2025.74 1846.89 2019.56 1840.65 2020.39 1834.43C2027.11 1833.51 2032.31 1837.6 2038.65 1841.04C2042.39 1840.31 2046.12 1839.55 2049.85 1838.77L2052.09 1845.37L2055.3 1846.46L2053.95 1840.54L2055.99 1840L2061.89 1843.96C2069.29 1841 2078.77 1836.16 2086.28 1836.93C2092.06 1843.93 2090.95 1859.19 2088.96 1867.84C2057.54 1885.17 2032.89 1896.09 1999.64 1909.73C1994.86 1903.82 1997.79 1905.28 1990.96 1904.43C1985.35 1907.08 1981.19 1910.04 1975.35 1909.01L1975.64 1907.4L1979.13 1906.24L1980.04 1904.14C1968.76 1891.45 1969.5 1893.55 1953.54 1889.31C1972.93 1881.65 1993 1872.07 2012.71 1865.91Z"/><path fill="#4C7E77" transform="scale(0.262939 0.262939)" d="M1991.44 1829.83C2000.57 1835.1 2008.74 1836.81 2007.05 1848.26L2008.17 1849.55L2004.33 1852.68C1993.43 1852.81 1983.69 1849.88 1981.39 1837.89C1985 1832.29 1985.29 1832.8 1991.44 1829.83Z"/><path fill="#487472" transform="scale(0.262939 0.262939)" d="M1714.52 1607.33C1720.24 1606.68 1760.19 1593.86 1770.92 1591.44C1831.14 1577.76 1893.38 1575.44 1954.45 1584.6C1941.89 1588 1927.55 1599.95 1914.04 1595.88C1911.29 1590.35 1911.9 1593.35 1913.3 1586.44L1906.73 1584.96C1899.58 1590.93 1910.25 1594.22 1893.1 1600.64C1885.22 1598.99 1883.05 1597.07 1875.98 1592.8C1860.71 1593.1 1837.15 1594.94 1823.3 1600.59L1802.79 1608.74L1802.64 1597.45L1799.47 1594.53L1794.94 1594.89C1791.44 1600.68 1790.63 1602.44 1790.71 1609.27L1792.02 1610.98C1761.34 1631.4 1753.21 1650.96 1742.51 1685.25L1741.29 1682.99C1739.67 1687.72 1738.91 1689.14 1736.8 1693.68C1730.32 1690.09 1723.23 1652.9 1710.92 1643.54L1711.67 1638.41L1709.38 1637.69C1680.58 1661.53 1676.43 1706.35 1678.58 1741.13C1662.39 1728.32 1651.13 1719.5 1646.17 1698.4C1644.16 1689.07 1644.5 1685.11 1644.53 1675.39L1641.95 1674.22L1636.57 1676.7C1631.77 1670.42 1633.59 1672.43 1625.47 1669.08C1617.94 1669.53 1618.05 1670.05 1612.04 1674.22C1612.97 1679.33 1612.2 1676.86 1616.62 1681.41C1610.16 1686.29 1599.29 1675.14 1594.92 1670.27C1582.15 1675.95 1577.14 1684.11 1569.43 1688.7C1560.54 1688.51 1571.11 1692.5 1560.03 1699.07C1553.72 1697.51 1551.93 1694.95 1547.21 1690.49C1609.01 1650.46 1646.34 1633.33 1714.52 1607.33Z"/><path fill="#4C7E77" transform="scale(0.262939 0.262939)" d="M1644.53 1675.39C1645.6 1671.49 1645.21 1671.82 1644.74 1667.97C1650.16 1664.88 1648.08 1665.9 1654.83 1665.22L1653.97 1662.61L1652.04 1661.98C1649.89 1661.27 1650.55 1661.78 1649.62 1660.91L1652.56 1654.95C1658.17 1656.5 1663.11 1656.72 1665.6 1662.63C1671.94 1677.73 1677.88 1696.36 1662.68 1707.17L1658.28 1705.9L1661.8 1707.38L1658.11 1704.6L1657.99 1698.39L1654.17 1696.07L1657.24 1695.79C1652.59 1694.18 1652.26 1695.73 1646.17 1698.4C1644.16 1689.07 1644.5 1685.11 1644.53 1675.39Z"/><path fill="#4C7E77" transform="scale(0.262939 0.262939)" d="M1954.45 1584.6C1961.19 1585.5 1971.55 1586.49 1977.75 1588.51C1971.71 1603.69 1890.52 1625.36 1873.04 1695.74C1865.38 1699.76 1858.32 1693.49 1855.52 1686.45C1849.29 1670.79 1851.39 1653.2 1856.84 1637.58L1839.96 1635.55L1836.33 1636.43C1829.44 1648.05 1819.22 1655.28 1812.09 1670.99C1806.3 1683.76 1807.61 1698.13 1802.09 1705.36C1794.09 1702.98 1788.71 1691.89 1786.04 1684.54C1779.51 1664.1 1788.71 1632.41 1795.47 1612.49L1792.02 1610.98L1790.71 1609.27C1790.63 1602.44 1791.44 1600.68 1794.94 1594.89L1799.47 1594.53L1802.64 1597.45L1802.79 1608.74L1823.3 1600.59C1837.15 1594.94 1860.71 1593.1 1875.98 1592.8C1883.05 1597.07 1885.22 1598.99 1893.1 1600.64C1910.25 1594.22 1899.58 1590.93 1906.73 1584.96L1913.3 1586.44C1911.9 1593.35 1911.29 1590.35 1914.04 1595.88C1927.55 1599.95 1941.89 1588 1954.45 1584.6Z"/><path fill="#487472" transform="scale(0.262939 0.262939)" d="M1795.47 1612.49C1798.96 1621.86 1799.21 1625.04 1796.36 1634.8C1793.27 1645.41 1790 1676.92 1786.04 1684.54C1779.51 1664.1 1788.71 1632.41 1795.47 1612.49Z"/><path fill="#487472" transform="scale(0.262939 0.262939)" d="M1836.33 1636.43C1834.14 1632.29 1834.77 1633.96 1834.38 1629.1C1842.71 1618.38 1851.16 1617.65 1862.48 1622.57L1864.5 1623.83L1856.84 1637.58L1839.96 1635.55L1836.33 1636.43Z"/><path fill="#BBC2A5" transform="scale(0.262939 0.262939)" d="M1862.48 1622.57L1864.5 1623.83L1856.84 1637.58L1839.96 1635.55C1847.16 1631.03 1855.04 1626.76 1862.48 1622.57Z"/><path fill="#4C7E77" transform="scale(0.262939 0.262939)" d="M1569.43 1688.7C1577.14 1684.11 1582.15 1675.95 1594.92 1670.27C1599.29 1675.14 1610.16 1686.29 1616.62 1681.41C1612.2 1676.86 1612.97 1679.33 1612.04 1674.22C1618.05 1670.05 1617.94 1669.53 1625.47 1669.08C1633.59 1672.43 1631.77 1670.42 1636.57 1676.7C1617.09 1699.13 1605.63 1715.09 1605.93 1746.49C1602.82 1749.77 1601.23 1751.7 1599.07 1755.67L1592.42 1756.77C1568.88 1729.83 1579.94 1722.52 1571.5 1703.61C1571.67 1702.73 1569.68 1690.35 1569.43 1688.7Z"/><path fill="#4C7E77" transform="scale(0.262939 0.262939)" d="M1710.92 1643.54C1723.23 1652.9 1730.32 1690.09 1736.8 1693.68C1738.91 1689.14 1739.67 1687.72 1741.29 1682.99L1742.51 1685.25C1741.71 1698.45 1743.35 1706.69 1745.28 1719.74C1719.59 1702.95 1704.64 1674.54 1710.92 1643.54Z"/><path fill="#487472" transform="scale(0.262939 0.262939)" d="M1592.42 1756.77L1599.07 1755.67C1601.23 1751.7 1602.82 1749.77 1605.93 1746.49C1607.45 1754.11 1609.95 1759.83 1607.63 1766.2C1601.43 1765.53 1597.46 1760.97 1592.42 1756.77Z"/><path fill="#4C7E77" transform="scale(0.262939 0.262939)" d="M1757.3 1760.86C1805.36 1757.46 1842.52 1766.4 1886.55 1784.39C1881.54 1791.12 1873.31 1803.6 1870.56 1810.74C1859.22 1840.23 1872.72 1864.09 1828.99 1859.09C1815.31 1857.53 1797.61 1856.4 1782.46 1853.99C1781.09 1853.77 1779.73 1853.53 1778.36 1853.26C1738.54 1845.3 1672.14 1823.8 1648.49 1788.59C1678.96 1773.75 1723.47 1763.8 1757.3 1760.86Z"/><path fill="#BBC2A5" transform="scale(0.262939 0.262939)" d="M1734.35 1816.53C1753.53 1812.87 1813.62 1817.93 1832.81 1829.43C1811.66 1830.82 1753.33 1825.24 1734.35 1816.53Z"/><path fill="#BBC2A5" transform="scale(0.262939 0.262939)" d="M1745.97 1790.7C1776.76 1787.21 1802.35 1788.93 1831.98 1797.17C1819.33 1798.63 1806.63 1797.75 1793.88 1797.3C1782.55 1796.63 1725.82 1797.93 1721.55 1795.87C1729.48 1792.54 1737.37 1792.03 1745.97 1790.7Z"/><path fill="#F6E1BB" transform="scale(0.262939 0.262939)" d="M2028.35 1632.65C2045.92 1631.45 2048.82 1632.17 2064.36 1640.52C2079.93 1663.57 2076.12 1685.59 2048.58 1695.69C2024.27 1696.92 1998.05 1689.76 2004.11 1655.92C2006.15 1644.57 2018.27 1637.4 2028.35 1632.65Z"/><path fill="#487472" transform="scale(0.262939 0.262939)" d="M2030.04 1642.76C2041.68 1638.09 2054.9 1643.82 2059.47 1655.5C2064.04 1667.19 2058.21 1680.36 2046.48 1684.83C2034.9 1689.25 2021.91 1683.5 2017.39 1671.95C2012.88 1660.4 2018.52 1647.37 2030.04 1642.76Z"/><path fill="#4C7E77" transform="scale(0.262939 0.262939)" d="M2030.91 1650.01C2039.36 1648.97 2035.95 1647.88 2042.01 1651.33C2045.31 1660.24 2046.95 1671.38 2044.69 1680.63C2031.34 1679.92 2024.22 1677.12 2021.8 1663.09C2025.01 1653.68 2023.22 1657.03 2030.91 1650.01Z"/><path fill="#487472" transform="scale(0.262939 0.262939)" d="M1009.33 823.208C1033.91 791.096 1060.93 782.946 1098.89 774.098C1257.85 737.049 1376.3 834.166 1406.39 991.193C1457.34 863.497 1548.34 806.114 1684.3 804.447C1741.47 803.746 1779.41 818.287 1819.69 858.019C1758.02 850.154 1716.77 860.999 1658.74 876.274C1693.55 884.378 1703.06 888.4 1733.26 908.344C1632.41 921.65 1571.18 942.588 1489.54 1006.42C1485.94 1010.28 1477.56 1020.2 1473.55 1022.08L1468.93 1029.86L1469.91 1032.37C1478.66 1028.91 1484.58 1024.05 1492.76 1019.82C1626.06 950.881 1810.26 1005.08 1863.94 1151.02C1877.59 1188.13 1880.59 1211.72 1880.54 1251.27C1848.09 1208.79 1821.79 1180.34 1784.69 1141.5C1796.29 1172.62 1798.65 1202.42 1798.14 1235.2C1764.19 1190.19 1716.53 1120.45 1665.98 1097.76C1693.45 1128.48 1698.4 1145.22 1705.66 1185.15C1639.16 1123.72 1587.71 1097.92 1497.17 1097.79C1566.59 1124.31 1638.07 1178.06 1668.75 1247.54C1687.59 1290.23 1695.74 1352.94 1690.15 1399.02C1689.57 1438.33 1670.27 1490.54 1641.55 1518.12C1636.55 1522.87 1631.26 1527.32 1625.72 1531.43C1622.96 1504.53 1620.6 1477.5 1616.04 1450.87C1608.53 1399.29 1593.22 1355.13 1575 1306.96C1572.43 1352.13 1561.05 1382.79 1543.43 1423.3C1541.66 1362.93 1527.92 1272.63 1503.29 1218.11L1504.51 1227.92C1508.82 1261.43 1502.94 1291.84 1491.36 1323.13C1475.46 1262.92 1453.34 1211.96 1405.73 1171.19C1399.43 1201.77 1393.18 1233.54 1385.88 1263.9C1383.89 1272.16 1375.73 1282.64 1373.88 1290.56C1369.82 1307.95 1368.35 1326.93 1364.05 1344.23C1361.6 1354.1 1352.95 1368.39 1350.89 1378.27C1346.89 1397.45 1347.71 1419.02 1344.12 1438.2C1341.3 1453.29 1333.37 1469.61 1329.15 1484.85C1327.33 1491.42 1330.06 1505.84 1328.26 1514.5C1322.72 1541.24 1317.38 1569.93 1312.43 1596.96C1313.58 1599.25 1314.73 1601.53 1315.88 1603.82C1311.92 1635.72 1307.89 1677.25 1307.72 1708.68C1307.54 1741.88 1309.31 1772.91 1310.48 1804.6C1297.58 1830.04 1278.05 1849.37 1255.04 1865.31C1236.91 1877.87 1201.01 1893.24 1201.4 1857.21C1201.77 1823.27 1204.26 1787.86 1207.59 1754.13C1214.35 1678.36 1225.8 1603.1 1241.89 1528.76C1246.53 1507.8 1252.44 1491.94 1257.81 1471.82C1264.92 1445.18 1267.45 1396.08 1286.23 1376.09C1289.64 1333.44 1333.21 1213.85 1351.91 1172.1C1353.18 1166.53 1353.74 1169.07 1350.82 1164.21C1292.7 1203.03 1261.31 1247 1224.29 1305.26C1222.83 1275.26 1221.45 1248.12 1224.2 1218.01C1194.02 1267.16 1155.18 1370.18 1141.36 1427.23C1137.53 1408.85 1125.51 1330.67 1125.71 1312.58L1123.19 1307.1L1119.42 1310.17C1111.5 1328.32 1102.36 1348.12 1095.53 1366.55C1075.76 1420.41 1059.81 1471.18 1041.6 1525.15C1013.38 1460.03 1007.59 1381.73 1023.76 1312.88C1032.07 1269.08 1051.52 1228.17 1080.24 1194.08C1133.1 1132.4 1213.77 1093.89 1294.49 1087.71C1220.41 1071.39 1160.19 1083.14 1091.19 1114.1C1113.65 1081.37 1135.1 1063.75 1165.36 1038.88C1082.74 1066.5 1038.09 1097.07 971.242 1152.15C978.92 1115.22 991.177 1090.76 1011.78 1059.59C941.849 1097.57 898.193 1129.09 848.831 1194.26C858.982 1140.97 872.541 1097.76 904.023 1053.45C973.938 955.051 1100.54 918.074 1215.01 949.668C1261.12 962.392 1293.41 978.179 1332.52 1006.38C1279.23 933.236 1225.34 909.816 1142.52 876.188C1174.31 860.162 1194.68 862.038 1229.03 866.938C1147.79 827.449 1101.26 817.909 1009.33 823.208Z"/><path fill="#4C7E77" transform="scale(0.262939 0.262939)" d="M1023.76 1312.88C1025.18 1326.72 1024.14 1333.86 1024.92 1346.43C1032.16 1341.78 1028.05 1328.32 1034.8 1323.3L1038.71 1325.13L1041.34 1320.13L1041.57 1326.81L1051.65 1321.57C1050.95 1318.54 1050.31 1317.19 1050.73 1314.09L1053.91 1313.61C1055.84 1319.12 1055.29 1317.55 1055.59 1323.62C1059.68 1326.29 1057.54 1325.99 1061.88 1325.62L1063.13 1319.55C1068.73 1325.37 1067.35 1322.1 1068.7 1329.02C1064.76 1332.64 1064.55 1332.55 1059.71 1334.99C1061.49 1340.3 1063.39 1344.82 1063.72 1350.4C1068.59 1352.92 1071.8 1354.68 1076.54 1357.62C1083.01 1355.44 1083.02 1354.22 1088.29 1349.24C1093.71 1355.52 1084.13 1353.6 1095.53 1366.55C1075.76 1420.41 1059.81 1471.18 1041.6 1525.15C1013.38 1460.03 1007.59 1381.73 1023.76 1312.88Z"/><path fill="#4C7E77" transform="scale(0.262939 0.262939)" d="M1616.04 1450.87C1624.55 1449.32 1621.8 1451.47 1626.06 1446.26L1623.7 1433.02L1625.28 1430.75L1631.96 1435.94L1632.87 1433.03C1628.98 1420.26 1617.78 1426.29 1620.48 1410.28L1624.47 1413.28L1629.81 1411.16L1631.1 1414.49C1632.88 1407.72 1631.8 1407.35 1636.12 1403.14L1638.05 1405L1635.77 1408.87L1638.07 1410.45C1645.58 1405.56 1645.13 1397.26 1651.88 1389.93L1660.02 1390.51C1669.75 1384.76 1660.84 1376.29 1673.4 1371.94C1684.67 1377.72 1687.75 1387.51 1690.15 1399.02C1689.57 1438.33 1670.27 1490.54 1641.55 1518.12C1636.55 1522.87 1631.26 1527.32 1625.72 1531.43C1622.96 1504.53 1620.6 1477.5 1616.04 1450.87Z"/><path fill="#4C7E77" transform="scale(0.262939 0.262939)" d="M1350.82 1164.21L1347.18 1161.2L1348.05 1156.71L1352.21 1153.9C1362.5 1156.93 1350.11 1159.91 1360.59 1160.25L1360.27 1154.17C1372.24 1151.6 1374.26 1161.71 1388.9 1155.51C1400.33 1165.71 1391.39 1193.29 1387.47 1205.55C1377.22 1206.6 1383.8 1200.32 1376.37 1203.66C1366.53 1208.08 1356.47 1215.5 1354.5 1200.14C1356.91 1199.28 1359.34 1198.48 1361.79 1197.73L1363.13 1192.28L1361.37 1191.97L1362.28 1196.99L1359.87 1192.61L1357.75 1192.93C1361.16 1186.73 1358.75 1188.95 1365.3 1186.08C1371.5 1187.01 1375.31 1188.08 1381.46 1186.71L1383.37 1182.26L1382.24 1180.64L1376.96 1180.97C1375.35 1176.39 1376.57 1178.19 1373.71 1175.28L1363.83 1176.27C1363.5 1171.64 1363.4 1173.44 1365.14 1168.87L1362.14 1168.15L1357.05 1172.53L1351.91 1172.1C1353.18 1166.53 1353.74 1169.07 1350.82 1164.21Z"/><path fill="#4C7E77" transform="scale(0.262939 0.262939)" d="M1119.42 1310.17C1112.1 1301.54 1108.15 1295.3 1118.9 1285.64L1123.91 1285.02C1133.5 1293.72 1128.4 1301.13 1125.71 1312.58L1123.19 1307.1L1119.42 1310.17Z"/><path fill="#487472" transform="scale(0.262939 0.262939)" d="M1473.55 1022.08L1469.02 1019.89L1461.61 1026.49C1463.77 1019.01 1469.23 1010.08 1476 1006.15C1480.46 1006.78 1481.78 1006.95 1486.16 1006.66L1489.54 1006.42C1485.94 1010.28 1477.56 1020.2 1473.55 1022.08Z"/><path fill="#4C7E77" transform="scale(0.262939 0.262939)" d="M1311.14 1440.34C1318.59 1441.69 1314.86 1438.34 1320.96 1443L1317.04 1444.95C1323.37 1446.09 1323.28 1445.73 1328.59 1449.18C1328.34 1454.86 1329.28 1452.42 1325.08 1456.4C1320.05 1452.97 1321.96 1453.6 1316.35 1452.13L1314.61 1455.32C1318.64 1461.84 1315.91 1459.84 1322.67 1462.07L1323.91 1464.16C1327.4 1464.99 1326.03 1464.14 1328.23 1466.41C1321.87 1479.21 1307.32 1490.21 1305.38 1507.33C1304.72 1513.16 1301.26 1504.81 1293.03 1507.3C1291 1514.07 1288.99 1520.69 1293.12 1526.86C1298.31 1527.32 1300.16 1527.45 1305.17 1528.7L1306.57 1532.7C1305.25 1540.37 1306.66 1540.19 1302.05 1544.18L1300.26 1541.1L1300.97 1544.23L1297.86 1543.39L1300.57 1540.82C1298.16 1538.82 1296.21 1537.5 1293.66 1535.7C1288.87 1537.56 1287.91 1538.98 1284.45 1542.78L1280.72 1541.13L1283.16 1539.02C1280.76 1533.14 1269.72 1533.9 1264.06 1526.14C1268.5 1522.61 1267.56 1521.7 1269.7 1515.24L1266.65 1511.69C1264.35 1512.21 1262.66 1513.8 1260.78 1515.16L1256.52 1513.84L1255.68 1511.86C1258.89 1504.95 1257.33 1507.28 1265.18 1502.97L1265.54 1501.06C1258.88 1485.41 1262.76 1491.06 1273.21 1481.4C1283.85 1471.56 1273.59 1468.43 1274.93 1457.46C1280.98 1454.45 1281.64 1454.58 1286.21 1449.37C1281.09 1446.73 1282.41 1448.69 1280.84 1444.32L1282.89 1442.57C1292.3 1444.56 1296.92 1446.14 1306.21 1442.91L1308.27 1443.72L1311.14 1440.34Z"/><path fill="#4C7E77" transform="scale(0.262939 0.262939)" d="M1265.07 1569.24L1270.38 1575.4C1275.93 1576 1275.6 1575.82 1280.41 1578.59C1279.91 1586.04 1279.68 1588.39 1278 1595.6C1271.39 1587.71 1260.09 1584.7 1259.61 1575.19L1265.07 1569.24Z"/><path fill="#4C7E77" transform="scale(0.262939 0.262939)" d="M1483.33 975.306L1485.21 977.611L1483.89 981.833C1491.43 984.445 1490.18 980.55 1496.86 984.278C1495.61 989.608 1496.9 987.237 1491.73 990.817C1484.78 991.934 1480.86 992.079 1475.36 987.57C1476.73 980.825 1477.98 981.36 1483.33 975.306Z"/><path fill="#4C7E77" transform="scale(0.262939 0.262939)" d="M1243.15 1227.55L1247.59 1232.23C1248.03 1239.13 1242.95 1244.97 1238.96 1251.08C1235.49 1245.32 1235.64 1245.63 1234.22 1239.05C1236.64 1231.48 1236.22 1233.62 1243.15 1227.55Z"/><path fill="#4C7E77" transform="scale(0.262939 0.262939)" d="M1320.06 1119.95C1322.13 1120.63 1324.19 1121.34 1326.24 1122.07L1326.62 1124.46C1320.88 1129.38 1320.74 1129.96 1313.54 1132.97C1310.45 1127.78 1308.13 1126.28 1308.97 1121.83L1317.18 1124.71L1320.06 1119.95Z"/><path fill="#4C7E77" transform="scale(0.262939 0.262939)" d="M1260.46 1686.8C1266.39 1688.74 1269.87 1690.49 1275.4 1693.14L1276.16 1695.36L1272.15 1695.57C1267.03 1699.32 1267.4 1699.8 1261.68 1701.67C1258.85 1696.77 1260.21 1693.58 1260.46 1686.8Z"/><path fill="#487472" transform="scale(0.262939 0.262939)" d="M1252.73 1546.8C1263.44 1552.95 1263.81 1550.07 1273.01 1559.54L1268.99 1561.1L1266.83 1564.09L1266.69 1560.99C1261.94 1557.95 1257.08 1555.09 1252.12 1552.41C1251.27 1551.96 1250.43 1551.51 1249.58 1551.06L1252.73 1546.8Z"/><path fill="#4C7E77" transform="scale(0.262939 0.262939)" d="M1306.86 1049.48L1310.72 1050.24C1311.49 1056.53 1313.71 1058.83 1316.95 1064.67L1314.39 1064.39C1309.72 1063.46 1304.71 1061.91 1301.48 1058.32L1302.62 1054.28L1305.87 1052.97L1306.86 1049.48Z"/><path fill="#487472" transform="scale(0.262939 0.262939)" d="M1417.22 982.837C1422.2 985.859 1422.53 986.904 1426.53 991.196L1425.46 994.627L1416.81 996.627L1414.71 998.592C1415.84 989.55 1413.03 990.88 1417.22 982.837Z"/><path fill="#4C7E77" transform="scale(0.262939 0.262939)" d="M1296.91 1013.34L1301.14 1012.99C1302 1017.45 1302.04 1015.76 1307.07 1020.05L1304.59 1027.21C1297.17 1023.59 1297.33 1025.03 1293.26 1019.15C1295.68 1014.92 1294.44 1016.84 1296.91 1013.34Z"/><path fill="#4C7E77" transform="scale(0.262939 0.262939)" d="M1550.76 1284.97C1553.21 1289.78 1552.19 1288.39 1555.86 1292.46L1555.54 1290.58L1558.84 1293.95L1557.89 1298.64C1554.55 1301.11 1556.07 1299.89 1554.99 1306.12L1555.53 1309.12C1551.83 1306.04 1552.25 1305.77 1549.47 1301.57C1550.51 1299.38 1551.82 1297.6 1553.27 1295.66L1550.76 1284.97Z"/><path fill="#4C7E77" transform="scale(0.262939 0.262939)" d="M1240.28 1213.63C1244.45 1214.56 1242.47 1213.75 1246.2 1216.12L1244.32 1219.16C1237.4 1222.26 1239.77 1222.68 1233.72 1222.03C1231.83 1220.01 1233.13 1221.14 1229.36 1219.27L1229.91 1221L1228 1219.98C1231.22 1215.22 1233.38 1215.95 1240.28 1213.63Z"/><path fill="#4C7E77" transform="scale(0.262939 0.262939)" d="M1349.88 1081.08C1354.1 1083.8 1355.77 1086.87 1358.69 1090.95L1353.55 1094.2L1349.61 1095.6L1346.79 1092.72C1347.01 1084 1345.62 1087.62 1349.88 1081.08Z"/><path fill="#4C7E77" transform="scale(0.262939 0.262939)" d="M1261.1 1603.53C1264.61 1606.36 1262.71 1605.17 1268.15 1605.67L1269.57 1607.71L1264.35 1611.82C1255.87 1611.32 1258.71 1613.13 1254.29 1608.36L1256.35 1604.68L1261.1 1603.53Z"/><path fill="#4C7E77" transform="scale(0.262939 0.262939)" d="M1625.72 1014.12C1631.15 1014.94 1629.6 1014.65 1634.74 1016.93C1636.44 1022.76 1635.5 1021.8 1633.19 1028.69C1621.98 1024.94 1634.65 1029.24 1625.72 1014.12Z"/><defs><linearGradient id="gradient_0" gradientUnits="userSpaceOnUse" x1="1701.5408" y1="1024.939" x2="1697.7168" y2="1020.5157"><stop offset="0" stop-color="#46706E"/><stop offset="1" stop-color="#59897F"/></linearGradient></defs><path fill="url(#gradient_0)" transform="scale(0.262939 0.262939)" d="M1704.14 1018.73C1707.1 1019.5 1705.32 1018.85 1709.17 1021.36C1705.57 1023.64 1702.34 1025.45 1698.62 1027.52L1697.72 1030.05L1694.48 1027.57L1695.77 1022.98L1704.14 1018.73Z"/><path fill="#EA651C" transform="scale(0.262939 0.262939)" d="M1480.09 2142.87C1491.3 2139.25 1501.2 2135.19 1511.68 2130.98C1522.47 2126.64 1552.41 2107.91 1561.98 2116.11C1601.23 2149.73 1548.49 2218.36 1520.75 2241.86C1504.39 2261.63 1475.95 2288.42 1457.11 2306.96L1363.77 2399.48L1196.33 2563.87C1162.18 2597.42 1121.08 2639.85 1085.58 2671C1160.06 2660.01 1256.61 2677.68 1327.11 2701.93C1364.83 2714.9 1410.3 2732.63 1448.19 2742.05C1497.36 2754.28 1558.83 2758.39 1609.17 2751.65C1630.67 2748.77 1658.08 2729.65 1674.41 2733.21C1688.91 2748.87 1666.39 2770.54 1654.69 2780.75C1601.36 2827.26 1506.65 2844.88 1438.43 2826.95C1405.59 2824.9 1321.15 2797.97 1289.63 2785.31C1282.99 2784.11 1247.45 2771.13 1239.09 2768.1C1198.47 2753.36 1157.38 2744.77 1113.95 2744.2C1081.84 2743.69 1049.93 2749.31 1019.93 2760.76C997.268 2769.47 975.353 2780.81 954.264 2793.09C939.21 2801.85 922.509 2818.62 903.72 2817.39C888.405 2816.39 879.013 2805.33 870.065 2794.19C869.286 2778.03 867.512 2754.17 877.295 2741.1C930.992 2669.37 1016.06 2599.77 1081.44 2539.26L1333.11 2303.24C1344.11 2292.89 1402.59 2240.28 1405.43 2233.3C1341.77 2247.52 1257.7 2234.27 1193.71 2224.78C1153.48 2221.62 1124.77 2221.72 1087.57 2240.39L1071.61 2253.56L1069.7 2255.86C1048.15 2282.17 1038.3 2316.03 1068.41 2338.66C1079.32 2346.86 1108.59 2352.91 1112.1 2363.33C1108.53 2372.04 1096.85 2376.55 1088.21 2379.91C1047.97 2395.58 1009.01 2374.58 985.67 2342.48C982.788 2338.1 982.205 2335.68 980.407 2330.76C956.774 2287.26 978.363 2226.35 1016.27 2197.72C1117.65 2121.17 1257.34 2159.99 1374.18 2159.99C1408.92 2159.99 1446.32 2150.68 1480.09 2142.87Z"/><path fill="#EE641D" transform="scale(0.262939 0.262939)" d="M1193.71 2224.78L1193.66 2221.42C1202.29 2217.25 1220.99 2223.72 1230.29 2225.51C1276.15 2234.32 1323.21 2228.28 1369.68 2231.43C1380.96 2232.2 1392.63 2228.37 1404.08 2229.51L1405.43 2233.3C1341.77 2247.52 1257.7 2234.27 1193.71 2224.78Z"/><path fill="#EE641D" transform="scale(0.262939 0.262939)" d="M1071.73 2556.09C1077.26 2558.18 1081.86 2559.58 1087.47 2561.26L1087.68 2564.69L1083.88 2567.37C1081.08 2568.61 1077.35 2570.85 1074.58 2572.39L1071.95 2570.97C1072.12 2565.67 1071.68 2561.39 1071.73 2556.09Z"/><path fill="#EE641D" transform="scale(0.262939 0.262939)" d="M1367.14 2308.74C1374.35 2313.91 1375.93 2311.35 1378.65 2321.63C1374.87 2322.78 1373.56 2320.95 1368.75 2318.66C1365.63 2319.44 1367.15 2318.93 1363.51 2320.58L1360.63 2321.92L1358.18 2320.57C1361.77 2315.08 1362.57 2313.7 1367.14 2308.74Z"/><path fill="#EE641D" transform="scale(0.262939 0.262939)" d="M1381.93 2294.49C1388.73 2296.65 1386 2294.8 1390.58 2299.98C1389.42 2306.84 1390.64 2303.53 1385.29 2309.59C1384.24 2309.21 1380.64 2306.65 1379.55 2305.92C1378.18 2300.23 1379.13 2301.11 1381.93 2294.49Z"/><path fill="#EA651C" transform="scale(0.262939 0.262939)" d="M2005.37 2799.04C1959.59 2812.53 1790.69 2825.47 1745.78 2810.89C1737.09 2808.07 1730.33 2804.75 1726.09 2796.36C1725.94 2787.92 1724.78 2791.48 1728.34 2784.92C1749.29 2774.16 1889.7 2751.74 1919.65 2746.44C2118.53 2711.23 2315.84 2675.46 2517.46 2659.61C2606.64 2652.61 2698.21 2646.91 2787.63 2654.6C2862.64 2661.06 2960.44 2673.02 3010.79 2734.66C3018.59 2744.21 3026.93 2755.72 3025.76 2768.55C3015.42 2777.9 2987.12 2762.13 2975.37 2757.48C2880.31 2719.93 2777.48 2715.66 2676.59 2713.94C2532.53 2711.5 2390.83 2732.11 2249.14 2755.52C2186.52 2765.89 2124.31 2781.07 2061.46 2789.93C2042.83 2793.39 2024.13 2796.43 2005.37 2799.04Z"/><path fill="#EE641D" transform="scale(0.262939 0.262939)" d="M2005.37 2799.04L2001.55 2797.24C1999.94 2792.05 1999.61 2792.57 1996.09 2788.26L1996.79 2785.03C2003.44 2781.76 2009.21 2782.61 2016.75 2782.65L2015.59 2783.16C2028.1 2783.94 2038.59 2784.48 2051.16 2783.51C2057.29 2783.03 2058.56 2786.19 2061.46 2789.93C2042.83 2793.39 2024.13 2796.43 2005.37 2799.04Z"/><path fill="#EE641D" transform="scale(0.262939 0.262939)" d="M1893.68 2773.53L1897.48 2771.41L1898.79 2772.36L1896.89 2773.91C1904.12 2780.46 1908.17 2785.96 1907.22 2796.22L1904.39 2798.14L1896.78 2795.12C1894.43 2795.8 1895.82 2795.26 1892.58 2797.51L1889.76 2799.51L1886.59 2798.58C1888.26 2791.02 1890.02 2783.48 1891.89 2775.97L1890.36 2774.41L1893.68 2773.53Z"/><path fill="#A8C2A6" transform="scale(0.262939 0.262939)" d="M2129.56 1936.99C2171.88 1924.39 2226.27 1914.79 2269.97 1923.72C2320.44 1934.04 2364.06 1949.31 2417.13 1947.93C2490.27 1946.02 2552.04 1901.75 2624.03 1895.63C2701.26 1888.34 2770.1 1938.32 2837.75 1944.23C2886.44 1948.48 2976.88 1916.68 3033.74 1912.27C3121.13 1905.49 3178.72 1936.23 3262.96 1950.26C3296.17 1955.8 3333.91 1953.43 3365.92 1961.85C3328.77 1979.86 3292.34 1984.81 3251.46 1987.77C3195.78 1991.8 3141.39 1977.38 3085.99 1975.93C3043.59 1974.81 3001.03 1978.19 2958.72 1980.89C2918.58 1983.46 2879.59 1981.89 2839.74 1976.45C2809.88 1972.44 2780.24 1966.96 2750.92 1960.04C2720.12 1952.59 2680.99 1937.55 2649.85 1938.66C2619.13 1939.75 2581.56 1954.5 2552.32 1964.53C2480.95 1989.01 2413.66 2011.97 2337.32 1995.75C2298.77 1987.56 2259.65 1973.63 2220.16 1973.58C2145.25 1973.67 2063.31 2024.27 1988.77 1999.05C1984.2 1997.46 1979.68 1995.75 1975.21 1993.9C2017.63 1976.82 2063.77 1961.29 2107.41 1944.18L2129.56 1936.99Z"/><defs><linearGradient id="gradient_1" gradientUnits="userSpaceOnUse" x1="2328.7905" y1="3499.5967" x2="1685.2094" y2="2900.4033"><stop offset="0" stop-color="#407677"/><stop offset="1" stop-color="#74A590"/></linearGradient></defs><path fill="url(#gradient_1)" transform="scale(0.262939 0.262939)" d="M2602.55 3213.08C2524.32 3248.69 2490.35 3199.92 2414.74 3206.72C2359.21 3211.72 2304.78 3250.98 2249.27 3253.47C2185.67 3256.33 2127.8 3213.91 2065.41 3208.59C1999.17 3202.92 1933.32 3244.08 1866.7 3250.85C1790.68 3258.57 1750.95 3209.18 1677.99 3206.22C1595.51 3202.88 1536.63 3258.69 1458.32 3223.03C1445.82 3217.33 1412.5 3206.86 1406.82 3194.03L1408.66 3190.69C1417.45 3189.88 1434.79 3193.79 1444.3 3195.29C1464.11 3198.42 1489.59 3199.57 1509.26 3195.43C1570.4 3181.42 1618.7 3156.55 1683.47 3160.71C1744.55 3164.63 1795.21 3205.59 1852.86 3206C1917.21 3206.44 1974.58 3163.19 2041.44 3161.66C2112.84 3160.03 2167.81 3197.12 2236.57 3205.05C2296.84 3211.5 2350.12 3170.74 2404.38 3168.04C2460.6 3165.24 2508.15 3194.46 2568.78 3198.81C2580.61 3198.26 2614.76 3194.31 2622.17 3200.84C2619.11 3207.34 2609.26 3210.43 2602.55 3213.08Z"/><path fill="#4C7E77" transform="scale(0.262939 0.262939)" d="M2568.78 3198.81C2580.61 3198.26 2614.76 3194.31 2622.17 3200.84C2619.11 3207.34 2609.26 3210.43 2602.55 3213.08C2604.27 3205.96 2605.09 3208.72 2602.48 3203.77C2594.23 3200.43 2585.43 3202.76 2571.47 3199.47L2568.78 3198.81Z"/><path fill="#A8C2A6" transform="scale(0.262939 0.262939)" d="M3034.46 1792.72C3061.25 1790.21 3088.24 1790.64 3114.94 1794.01C3189.7 1803.4 3265.91 1831.41 3342.98 1836.41C3357.19 1837.33 3384.84 1837.86 3395.71 1844.68L3396.34 1847.75C3388.82 1857.15 3372.4 1862.49 3361.3 1866.91C3278.89 1899.75 3186.57 1874.69 3102.48 1859.96C3077.82 1856.65 3036 1852.12 3012.07 1856.17C2918.82 1871.96 2848.77 1911.75 2749.89 1886.78C2815.38 1867.12 2865.84 1838 2928.67 1814.3C2959.34 1802.73 3001.73 1796.93 3034.46 1792.72Z"/><path fill="#4C7E77" transform="scale(0.262939 0.262939)" d="M1631.03 3315.87C1646.42 3307.08 1657.09 3301.69 1672.54 3294.79C1751.32 3259.61 1793.97 3320.97 1860.35 3320.4C1918.19 3319.9 1978.13 3283.03 2044.04 3280.57C2105.38 3278.29 2150.81 3315.4 2202.9 3318.65C2266.06 3322.59 2329.55 3280.51 2398.14 3309.78C2403.5 3311.29 2406.65 3310.86 2409.35 3316.38C2395.42 3320.07 2363.88 3318.1 2346.68 3322.17C2290.31 3335.51 2229.38 3370.16 2169.35 3356.26C2125.99 3346.21 2088.42 3322.04 2039.64 3324.55C1975.96 3327.81 1914 3363.9 1851.45 3359C1806.08 3355.45 1766.17 3328.66 1724.47 3318.47C1704.15 3313.5 1654.71 3315.55 1631.03 3315.87Z"/><path fill="#487472" transform="scale(0.262939 0.262939)" d="M2398.14 3309.78C2403.5 3311.29 2406.65 3310.86 2409.35 3316.38C2404.21 3316.02 2402.54 3316.15 2397.67 3314.66L2398.14 3309.78Z"/><path fill="#487472" transform="scale(0.262939 0.262939)" d="M1945.57 3311.34C1949.94 3313.61 1952.9 3313.67 1955.15 3317.75C1947.32 3323.33 1948.67 3320.82 1944.9 3328.64L1942.47 3329.51L1944.29 3328.49L1941.27 3327.37L1940.19 3323.8L1942.19 3328.2C1937.42 3322.64 1938.53 3325.33 1938.53 3318.35L1945.57 3311.34Z"/><path fill="#F6E1BB" transform="scale(0.262939 0.262939)" d="M943.437 1521.06C999.124 1518.62 1009.1 1536.11 1049.64 1538.92C1091.84 1541.85 1158.8 1538.31 1203.61 1537.4C1194.99 1551.31 1195.95 1552.81 1194 1568.88C1182.85 1583.96 1157.11 1588.6 1139.78 1592.78C1081.85 1606.75 1034.57 1602.17 977.069 1591.12C940.849 1585.79 906.992 1589.38 870.719 1590.9C840.599 1592.06 810.45 1592.23 780.319 1591.4C763.607 1590.9 720.529 1591.2 711.961 1575.72L713.883 1571.01C741.3 1547.28 900.265 1523.52 943.437 1521.06Z"/><path fill="#A8C2A6" transform="scale(0.262939 0.262939)" d="M997.002 1650.77C1036.12 1647.65 1138.44 1661.32 1173.45 1678.1C1173.94 1689.27 1176.19 1714.61 1170.46 1723.27C1154.72 1747.07 1096.19 1718.71 1073.65 1716.74C1008.47 1711.04 953.917 1720.88 892.574 1739.66C840.162 1755.52 751.812 1769.49 708.736 1727.26C739.17 1722.53 784 1718.16 812.324 1708.03C880.138 1683.78 921.627 1658.13 997.002 1650.77Z"/><path fill="#A8C2A6" transform="scale(0.262939 0.262939)" d="M1012.55 1768.79C1058.74 1765.01 1110.77 1777.5 1153.44 1794.6C1168.74 1800.74 1161.41 1833.07 1154.14 1844.16C1144.02 1852.58 1103.01 1843.62 1091.04 1840.34C1004.78 1816.73 950.881 1848.83 866.488 1857.69C859.571 1858.45 852.627 1858.96 845.671 1859.2C800.148 1860.6 729.129 1850 694.22 1816.85C738.844 1810.23 779.844 1821.41 834.767 1812.18C899.896 1801.22 950.793 1773.6 1012.55 1768.79Z"/><path fill="#A8C2A6" transform="scale(0.262939 0.262939)" d="M3123.4 1690.87C3198.62 1684.6 3243.51 1708.76 3313.06 1726.06C3331.82 1730.72 3371.27 1734 3385.03 1740.15L3384.54 1742.89C3373.99 1749.1 3366.5 1749.63 3355.15 1752.98C3306.24 1767.4 3269.8 1762.6 3220.48 1756.54C3146.99 1747.92 3027.65 1756.2 2953.19 1765.25C2983.54 1732.92 3077.91 1694.04 3123.4 1690.87Z"/><path fill="#F6E1BB" transform="scale(0.262939 0.262939)" d="M1747.37 1420.6C1806.89 1417.21 1874.26 1446.79 1936.25 1451.59C2001.68 1456.66 2061 1441.87 2125.45 1450.38C2146.41 1453.14 2161.16 1461.4 2177.04 1474.55C2158.46 1478.6 2149.46 1479.75 2130.49 1481.03C2120.97 1482.63 2060.36 1483.59 2049.05 1483.87C1933.21 1486.73 1820.33 1474.15 1704.47 1482.97C1712.59 1449.38 1710.05 1428.1 1747.37 1420.6Z"/><path fill="#487472" transform="scale(0.262939 0.262939)" d="M2290.68 2909.26C2320.81 2909.66 2374.26 2900.76 2388.66 2935.46C2398.19 2958.43 2390.27 2974.14 2381.73 2995.13C2386.05 3019.49 2416.13 3013.29 2390.08 3066.41C2388.85 3067.71 2387.61 3068.99 2386.34 3070.25C2363.68 3092.63 2322.48 3087.02 2290.44 3087.08C2291.25 3028.27 2290.35 2968.31 2290.68 2909.26Z"/><path fill="white" transform="scale(0.262939 0.262939)" d="M2325.66 3013.73C2351.79 3013.01 2373.5 3017.7 2357.51 3049.45C2346.17 3053.85 2337.45 3053 2325.46 3052.86L2325.66 3013.73Z"/><path fill="white" transform="scale(0.262939 0.262939)" d="M2325.91 2942.65C2354.37 2941.63 2363.97 2948.17 2353.04 2977.5C2319.38 2992.81 2324.78 2964.78 2325.91 2942.65Z"/><path fill="#487472" transform="scale(0.262939 0.262939)" d="M1224.86 2909.35C1237.57 2909.14 1250.54 2909.18 1263.24 2908.88C1287.4 2908.32 1314.83 2912.06 1323.88 2938.28C1327.52 2948.84 1328.83 2971.17 1322.46 2980.52C1306.36 3004.18 1327.57 3003.64 1333.39 3024.81C1337.11 3037.59 1330.25 3054.94 1324.09 3066.63C1322.47 3068.42 1320.8 3070.15 1319.06 3071.83C1297.66 3092.37 1254.26 3087.4 1224.81 3087.2L1224.86 2909.35Z"/><path fill="white" transform="scale(0.262939 0.262939)" d="M1259.88 3013.64C1285.25 3013.15 1304.35 3015.21 1293.74 3046.7C1281.92 3054.55 1273.82 3052.97 1259.76 3052.81L1259.88 3013.64Z"/><path fill="white" transform="scale(0.262939 0.262939)" d="M1260.11 2942.55C1288.69 2941.77 1298.06 2948.51 1287.41 2977.47C1253.81 2994.13 1259.25 2963.08 1260.11 2942.55Z"/><path fill="#F6E1BB" transform="scale(0.262939 0.262939)" d="M1756.03 1306.65C1836.08 1296.22 1895.74 1331.08 1969.77 1346.37C2001.81 1352.99 2046.74 1350.83 2081.09 1355.78L2084.31 1356.25C2065.47 1366.46 2051.15 1371.26 2030.82 1377.52C1952.31 1395.58 1922.91 1379.98 1847.71 1368.33C1812.08 1362.81 1759.62 1368.98 1724.28 1376.08C1724.74 1353.81 1725.29 1336.05 1723.39 1313.8C1736.34 1309.9 1742.66 1308.76 1756.03 1306.65Z"/><path fill="#487472" transform="scale(0.262939 0.262939)" d="M2666.19 2909.3C2719.15 2908.74 2781.82 2899.86 2774.17 2978.8C2772.43 2996.67 2763.95 3007.96 2750.3 3019.02L2783.56 3086.49L2745.11 3087.01C2738.26 3072.89 2720.98 3031.83 2709.26 3026.19L2705.71 3027.66C2698.08 3041.45 2700.6 3069.79 2700.9 3086.49L2666.17 3087.13C2667 3028.47 2666.23 2968.09 2666.19 2909.3Z"/><path fill="white" transform="scale(0.262939 0.262939)" d="M2701.34 2942.39C2735.65 2941.61 2748.59 2955.56 2731.71 2988.73C2719.13 2992.89 2714.17 2992.24 2700.98 2992.45C2700.37 2976.91 2701.11 2958.17 2701.34 2942.39Z"/><path fill="#F6E1BB" transform="scale(0.262939 0.262939)" d="M3143.7 1552.86C3196.89 1545.54 3334.56 1563.06 3384.73 1583.44C3354.44 1604.91 3339.11 1609.68 3302.39 1613.07C3249.93 1614.37 3199.79 1614.86 3146.48 1609.22C3125.17 1606.97 3038.21 1623.08 3071.18 1571.63C3081.13 1556.09 3124.49 1554.54 3143.7 1552.86Z"/><path fill="#F6E1BB" transform="scale(0.262939 0.262939)" d="M3013.41 1116.86C3041.82 1111.98 3104.97 1132.84 3136.76 1134.88C3156.46 1136.15 3209.55 1145.3 3210.94 1170.26C3200.08 1192.79 3165.12 1188.25 3143.33 1188.38C3108.25 1189.55 3074.47 1194.39 3039.18 1196.34C3012.67 1197.8 2986.69 1166.33 2967.6 1150.26C2962.47 1145.94 2950.8 1134.14 2950.75 1126.97C2959.59 1120.18 3000.34 1118.12 3013.41 1116.86Z"/><path fill="#487472" transform="scale(0.262939 0.262939)" d="M1972.26 2909.49L2007.33 2909.28C2006.54 2933.29 2006.89 2957.35 2007.03 2981.37L2046.23 2981.2L2046.5 2909.59L2081.63 2909.37C2077.96 2953.96 2080.93 3037.11 2081.23 3083.42L2080.02 3085.19C2072.41 3087.71 2055.09 3086.91 2046.28 3086.91L2046.35 3014.31L2007.12 3014.76C2007.05 3038.76 2007.18 3062.76 2007.49 3086.76L1972.16 3086.89C1972.95 3028.25 1972.28 2968.23 1972.26 2909.49Z"/><path fill="#F6E1BB" transform="scale(0.262939 0.262939)" d="M956.51 1390.76C965.165 1389.83 963.887 1388.71 970.937 1391.62C978.64 1402.51 990.064 1447.88 979.449 1452.3C928.14 1473.7 839.49 1471.92 785.467 1466.79C769.392 1459.51 762.217 1455.14 749.864 1441.79C808.536 1407.96 889.312 1399.03 956.51 1390.76Z"/><path fill="#F6E1BB" transform="scale(0.262939 0.262939)" d="M3078.59 1268.2C3093.55 1266.35 3117.94 1270.49 3133.86 1272.14C3190.96 1278.08 3269.66 1279.68 3318.27 1311.29C3308.7 1318.34 3301.16 1321.44 3290.51 1326.47C3234.22 1347.07 3158.39 1344.89 3099.33 1339.35C3091.06 1326.41 3077.37 1293.8 3073.83 1278.39C3072.81 1273.93 3075.73 1271.91 3078.59 1268.2Z"/><path fill="#487472" transform="scale(0.262939 0.262939)" d="M2504.01 2909.24L2541.77 2909.19C2556.65 2966.85 2570.21 3028.22 2584.08 3086.4L2547.67 3086.8L2541.83 3056.05L2503.82 3056.25L2498.39 3086.57L2461.57 3086.72L2504.01 2909.24Z"/><path fill="white" transform="scale(0.262939 0.262939)" d="M2522.8 2955.36C2525.59 2964.62 2533.49 3012.03 2532.69 3021.2L2528.14 3024.22C2521.55 3023.28 2515.36 3023.41 2512.01 3018.99C2515.19 2998.16 2518.48 2975.93 2522.8 2955.36Z"/><path fill="#487472" transform="scale(0.262939 0.262939)" d="M1624.39 2909.05L1661.75 2909.16C1676.81 2966.9 1690.27 3028.13 1704.41 3086.51L1667.55 3086.79L1662.23 3056.17L1623.99 3056.39L1618.63 3086.66L1581.65 3086.71C1596.83 3028.74 1609.55 2967.68 1624.39 2909.05Z"/><path fill="white" transform="scale(0.262939 0.262939)" d="M1642.79 2955.36C1645.83 2965.22 1653.73 3011.51 1652.77 3021.26L1648.04 3024.45C1641.43 3023.33 1636.37 3023.75 1632.27 3020.03C1635.45 2999.03 1638.57 2976.03 1642.79 2955.36Z"/><path fill="#F6E1BB" transform="scale(0.262939 0.262939)" d="M3128.38 1416.68C3131.08 1416.41 3133.79 1416.2 3136.49 1416.06C3179.48 1413.64 3309.68 1421.18 3340.33 1448.93C3344.89 1465.17 3315.99 1469.66 3304.46 1471.59C3276.24 1473.27 3240.59 1471.59 3211.38 1472.51C3186.06 1473.31 3141.7 1476.41 3118.41 1473.65C3085.37 1452.96 3088.9 1425.99 3128.38 1416.68Z"/><path fill="#F6E1BB" transform="scale(0.262939 0.262939)" d="M1398.68 1458.68C1444.87 1456.79 1503.17 1454.4 1547.83 1467.25C1558.26 1470.25 1595.48 1501.17 1589.08 1515.41C1581.94 1517.63 1560.32 1515.85 1551.51 1515.44C1518.92 1513.29 1485.12 1514.54 1452.53 1514.4C1428.99 1514.3 1387.48 1522.34 1366.88 1516.22C1361.2 1507.43 1364.64 1489.23 1365.91 1478.58C1376.05 1470.17 1386.13 1462.87 1398.68 1458.68Z"/><path fill="#487472" transform="scale(0.262939 0.262939)" d="M1819.3 2906.27C1865.68 2901.98 1883.26 2917.63 1889 2962.56L1854.79 2963.07C1844.68 2920.55 1812.63 2940.11 1814.14 2972.97C1815.18 2995.67 1808.43 3036.26 1824.56 3053.92C1847.54 3064.25 1847.84 3046.92 1857.25 3033.45L1862.48 3033.33L1890.49 3033.07C1882.21 3077.63 1856.86 3104.79 1805.28 3084.98C1768.88 3071 1779.29 2995.48 1778.96 2963.61C1778.68 2936 1789.8 2914.16 1819.3 2906.27Z"/><path fill="#487472" transform="scale(0.262939 0.262939)" d="M1415.2 2909.45L1504.05 2909.52L1503.99 2941.96L1449.05 2942.49L1448.76 2981.1L1499.6 2981.66L1499.37 3012.64L1449.2 3013.57L1448.91 3040.5C1448.87 3043.54 1449.24 3046.75 1449.47 3049.82C1457.94 3056.94 1493.97 3053.71 1506.77 3053.51L1506.79 3086.02L1414.76 3086.25C1415.33 3027.32 1415.48 2968.38 1415.2 2909.45Z"/><path fill="#F6E1BB" transform="scale(0.262939 0.262939)" d="M2943.6 1024.96C2969.82 1024.42 3080.61 1023.8 3089.03 1052.11C3078.98 1074.38 3020.98 1073.87 2999.89 1074.42C2972.63 1074.55 2945.41 1072.45 2918.49 1068.16C2899.97 1065.3 2862.56 1059.84 2851.01 1044.18C2851.15 1022.67 2927.19 1025.23 2943.6 1024.96Z"/><path fill="#F6E1BB" transform="scale(0.262939 0.262939)" d="M1186.28 1384.31C1209.9 1381.95 1222.4 1387.41 1244.08 1395.15C1209.22 1456.97 1238.26 1471.54 1148.22 1465.9C1140.42 1465.41 1126.94 1465.81 1118.65 1465.76C1112.97 1464.08 1102.34 1461.86 1100.85 1455.55C1096.32 1436.3 1115.13 1405.61 1123.43 1388.41C1127.65 1400.24 1130.66 1422.52 1142.77 1426.85C1155.53 1420.09 1156 1401.6 1183.94 1385.63L1186.28 1384.31Z"/><path fill="#A8C2A6" transform="scale(0.262939 0.262939)" d="M894.041 1916.8L903.169 1916.22C915.289 1922.2 913.553 1933.06 921.459 1948.71L922.585 1950.9C928.192 1954.32 936.938 1958.62 939.743 1963.93L937.621 1966.81C907.069 1976.96 810.384 1976.53 777.12 1971.57C754.64 1967.99 732.989 1960.39 713.199 1949.14C735.274 1946.52 760.016 1944.51 781.529 1939.95C819.515 1931.91 855.229 1920.94 894.041 1916.8Z"/><path fill="#F6E1BB" transform="scale(0.262939 0.262939)" d="M959.333 1278.88C970.366 1278.1 984.209 1279 995.468 1279.38C989.82 1297.55 985.686 1322.75 983.28 1341.65C947.532 1341.39 908.988 1341 873.554 1337.56C863.683 1336.49 843.747 1333.72 838.564 1324.82C840.216 1296.25 934.364 1279.86 959.333 1278.88Z"/><path fill="#F6E1BB" transform="scale(0.262939 0.262939)" d="M1410.96 1346.92C1434.68 1344.85 1480.87 1348.26 1504.81 1352.09C1508.68 1364.82 1515.47 1390.89 1506.08 1401.36C1499.8 1408.38 1487.03 1406.35 1478.5 1406.06C1449.4 1405.79 1429.64 1408.13 1401.08 1410.35C1395 1410.82 1389.5 1408.85 1385.17 1404.31C1384.02 1398.63 1383.73 1397.44 1386.29 1391.75C1396.2 1369.66 1378.93 1353.09 1410.96 1346.92Z"/><path fill="#EE641D" transform="scale(0.262939 0.262939)" d="M2064 1215.5C2058.04 1214.96 2055.17 1215.15 2049.82 1212.34C2054.13 1208.39 2057.12 1209.17 2064.05 1207.95L2064 1215.5Z"/></svg>